<!-- Generator: Adobe Illustrator 24.0.0, SVG Export Plug-In  -->
<svg version="1.1" xmlns="http://www.w3.org/2000/svg" xmlns:xlink="http://www.w3.org/1999/xlink" x="0px" y="0px"
	 width="927.55px" height="313.89px" viewBox="0 0 927.55 313.89" style="enable-background:new 0 0 927.55 313.89;"
	 xml:space="preserve">
<style type="text/css">
	.st0{fill:#FF0000;}
	.st1{fill:#890000;}
	.st2{fill:#CC1515;}
	.st3{opacity:0.5;fill:#6ED5F9;}
	.st4{fill:none;stroke:#FFFFFF;stroke-width:10;stroke-miterlimit:10;}
	.st5{fill:#92EAFF;}
	.st6{fill:#0CA6BF;}
	.st7{fill:#E34F26;}
	.st8{fill:#1572B6;}
	.st9{fill:#F7DF1E;}
	.st10{fill:none;stroke:#FF0000;stroke-width:18;stroke-miterlimit:10;}
</style>
<defs>
</defs>
<g>
	<path class="st0" d="M58.66,68.37c0-3.07,0.99-6.19,2.96-9.34c1.97-3.15,4.85-5.76,8.64-7.83c3.78-2.07,8.2-3.1,13.24-3.1
		c4.69,0,8.83,0.87,12.42,2.6c3.59,1.73,6.36,4.08,8.32,7.06c1.96,2.98,2.93,6.21,2.93,9.7c0,2.75-0.56,5.16-1.67,7.23
		c-1.12,2.07-2.44,3.86-3.98,5.36c-1.54,1.5-4.29,4.03-8.27,7.59c-1.1,1-1.98,1.88-2.64,2.64c-0.66,0.76-1.16,1.46-1.48,2.09
		c-0.32,0.63-0.57,1.26-0.75,1.89c-0.18,0.63-0.44,1.74-0.8,3.32c-0.61,3.36-2.54,5.05-5.77,5.05c-1.68,0-3.1-0.55-4.24-1.65
		c-1.15-1.1-1.72-2.73-1.72-4.9c0-2.72,0.42-5.07,1.26-7.06c0.84-1.99,1.96-3.74,3.35-5.24c1.39-1.5,3.27-3.29,5.63-5.36
		c2.07-1.81,3.57-3.18,4.49-4.1s1.7-1.95,2.33-3.08c0.63-1.13,0.95-2.36,0.95-3.69c0-2.59-0.96-4.77-2.89-6.55
		c-1.92-1.78-4.41-2.67-7.45-2.67c-3.56,0-6.18,0.9-7.86,2.69c-1.68,1.79-3.1,4.44-4.27,7.93c-1.1,3.66-3.19,5.48-6.26,5.48
		c-1.81,0-3.34-0.64-4.58-1.92C59.28,71.24,58.66,69.86,58.66,68.37z M82.33,121.54c-1.97,0-3.7-0.64-5.17-1.92
		c-1.47-1.28-2.21-3.06-2.21-5.36c0-2.04,0.71-3.75,2.13-5.14c1.42-1.39,3.17-2.09,5.24-2.09c2.04,0,3.75,0.7,5.14,2.09
		c1.39,1.39,2.09,3.1,2.09,5.14c0,2.26-0.73,4.04-2.18,5.34C85.92,120.9,84.24,121.54,82.33,121.54z"/>
</g>
<g>
	<path class="st1" d="M339.85,276.81v-43.78h-74.69v-14.34l71.72-102.64h23.49v99.92h22.51v17.06h-22.51v43.78H339.85z
		 M339.85,215.97V162.3c0-8.41,0.25-16.82,0.74-25.23h-0.74c-4.95,9.4-8.9,16.32-13.35,23.74l-39.32,54.66v0.49H339.85z"/>
	<path class="st1" d="M506.29,194.7c0,54.66-20.28,84.83-55.89,84.83c-31.41,0-52.68-29.43-53.17-82.6
		c0-53.91,23.25-83.59,55.89-83.59C486.99,113.33,506.29,143.5,506.29,194.7z M418.98,197.17c0,41.8,12.86,65.54,32.65,65.54
		c22.26,0,32.89-25.97,32.89-67.02c0-39.57-10.14-65.54-32.65-65.54C432.83,130.15,418.98,153.4,418.98,197.17z"/>
	<path class="st1" d="M593.58,276.81v-43.78h-74.69v-14.34l71.72-102.64h23.49v99.92h22.51v17.06h-22.51v43.78H593.58z
		 M593.58,215.97V162.3c0-8.41,0.25-16.82,0.74-25.23h-0.74c-4.95,9.4-8.9,16.32-13.35,23.74l-39.32,54.66v0.49H593.58z"/>
</g>
<g>
	<path class="st2" d="M709.7,271.91v4.89h-28.76v-44.46h28.14v4.89h-22.57v14.14h17.91v4.53h-17.91v16.02H709.7z"/>
	<path class="st2" d="M722.15,276.79h-5.11v-32.9h4.49v7.69c1.58-3.63,3.18-5.98,4.77-7.05c1.6-1.07,3.23-1.61,4.9-1.61
		c0.52,0,1.19,0.04,2.02,0.13v4.89h-1.04c-2.82,0-5.17,1.05-7.03,3.16c-1.87,2.11-2.87,4.88-3,8.31V276.79z"/>
	<path class="st2" d="M744.13,276.79h-5.11v-32.9h4.49v7.69c1.59-3.63,3.18-5.98,4.77-7.05c1.6-1.07,3.23-1.61,4.9-1.61
		c0.52,0,1.19,0.04,2.02,0.13v4.89h-1.04c-2.82,0-5.17,1.05-7.04,3.16c-1.87,2.11-2.87,4.88-3,8.31V276.79z"/>
	<path class="st2" d="M771.59,277.71c-4.52,0-8.04-1.67-10.57-5.02c-2.53-3.35-3.79-7.5-3.79-12.45c0-5.24,1.42-9.42,4.27-12.55
		c2.84-3.13,6.38-4.69,10.62-4.69c4.54,0,8.12,1.65,10.73,4.94c2.62,3.29,3.92,7.41,3.92,12.34c0,5.13-1.41,9.32-4.23,12.57
		C779.71,276.08,776.06,277.71,771.59,277.71z M771.98,273.47c2.61,0,4.79-1.07,6.55-3.22c1.76-2.15,2.64-5.49,2.64-10.03
		c0-4.56-0.92-7.87-2.77-9.92c-1.85-2.05-4.01-3.08-6.48-3.08c-2.54,0-4.69,1.04-6.45,3.11c-1.76,2.07-2.64,5.36-2.64,9.85
		c0,4.76,0.88,8.16,2.64,10.21C767.22,272.45,769.4,273.47,771.98,273.47z"/>
	<path class="st2" d="M799.57,276.79h-5.11v-32.9h4.49v7.69c1.59-3.63,3.18-5.98,4.77-7.05c1.6-1.07,3.23-1.61,4.9-1.61
		c0.52,0,1.19,0.04,2.02,0.13v4.89h-1.04c-2.82,0-5.17,1.05-7.04,3.16c-1.87,2.11-2.87,4.88-3,8.31V276.79z"/>
</g>
<g>
	<path d="M226.75,68.94c-8.51,0-15.14-3.31-19.89-9.93c-4.75-6.62-7.13-14.73-7.13-24.35c0-10.03,2.49-18.32,7.47-24.86
		C212.18,3.27,218.78,0,226.99,0c8.18,0,14.75,3.21,19.7,9.64c4.95,6.42,7.42,14.52,7.42,24.3c0,9.39-2.4,17.57-7.2,24.54
		C242.11,65.45,235.39,68.94,226.75,68.94z M226.95,62.19c5.79,0,10.32-2.64,13.58-7.91c3.27-5.28,4.9-12.07,4.9-20.39
		c0-8.55-1.69-15.2-5.07-19.96c-3.38-4.76-7.87-7.14-13.46-7.14c-5.66,0-10.16,2.57-13.49,7.72c-3.33,5.15-5,11.88-5,20.2
		c0,8.13,1.68,14.74,5.05,19.83C216.82,59.64,221.32,62.19,226.95,62.19z"/>
	<path d="M283.46,68.94c-6.73,0-11.98-2.49-15.74-7.48c-3.77-4.99-5.65-11.17-5.65-18.55c0-7.8,2.12-14.03,6.36-18.69
		c4.24-4.66,9.51-6.99,15.81-6.99c6.76,0,12.09,2.45,15.98,7.36c3.9,4.9,5.85,11.03,5.85,18.38c0,7.64-2.1,13.88-6.31,18.72
		C295.56,66.52,290.12,68.94,283.46,68.94z M284.04,62.63c3.88,0,7.13-1.6,9.75-4.8c2.62-3.2,3.93-8.18,3.93-14.94
		c0-6.79-1.38-11.72-4.12-14.77c-2.75-3.06-5.97-4.58-9.65-4.58c-3.78,0-6.99,1.54-9.61,4.63c-2.62,3.09-3.93,7.98-3.93,14.67
		c0,7.08,1.31,12.15,3.93,15.21C276.96,61.1,280.2,62.63,284.04,62.63z"/>
	<path d="M325.13,84.12h-7.62V18.58h6.89v9.51c3.46-7.24,8.61-10.87,15.45-10.87c5.78,0,10.45,2.42,14,7.26
		c3.55,4.84,5.33,10.97,5.33,18.38c0,8-1.83,14.34-5.48,19.03c-3.66,4.69-8.34,7.04-14.07,7.04c-6.15,0-10.98-2.93-14.51-8.78V84.12
		z M325.13,36v13.83c0.49,3.71,2.05,6.77,4.71,9.18c2.65,2.42,5.42,3.62,8.3,3.62c3.33,0,6.28-1.46,8.85-4.37
		c2.57-2.91,3.86-7.94,3.86-15.09c0-6.18-1.16-10.94-3.49-14.29c-2.33-3.35-5.42-5.02-9.27-5.02c-3.04,0-5.77,1.18-8.17,3.54
		C327.5,29.77,325.91,32.63,325.13,36z"/>
	<path d="M363.99,54.87l7.28-1.5c1.62,6.18,6.73,9.27,15.33,9.27c3.17,0,5.85-0.71,8.05-2.13c2.2-1.42,3.3-3.42,3.3-6.01
		c0-3.84-2.8-6.28-8.4-7.32l-10.33-1.96c-4.04-0.78-7.26-2.3-9.65-4.56c-2.39-2.26-3.59-5.26-3.59-8.97c0-4.11,1.63-7.54,4.9-10.31
		c3.27-2.77,7.66-4.15,13.2-4.15c10.64,0,17.21,4.16,19.7,12.47l-6.99,1.5c-2.01-5.11-6.13-7.66-12.37-7.66
		c-3.1,0-5.65,0.64-7.64,1.91c-1.99,1.28-2.98,3.06-2.98,5.35c0,3.62,2.54,5.9,7.62,6.83l9.55,1.71
		c9.99,1.81,14.99,6.66,14.99,14.53c0,4.5-1.86,8.14-5.58,10.91c-3.72,2.77-8.67,4.15-14.84,4.15
		C373.92,68.94,366.74,64.25,363.99,54.87z"/>
	<path d="M424.37,51.08h-4.12l-3.57-49.72h11.45L424.37,51.08z M427.5,67.58h-10.14V57.29h10.14V67.58z"/>
</g>
<path d="M35.03,15.91c-36.47,24.7-46,74.28-21.3,110.75s74.28,46,110.75,21.3s46-74.28,21.3-110.75S71.5-8.79,35.03,15.91z
	 M117.45,137.58c-30.74,20.82-72.53,12.78-93.35-17.96S11.32,47.1,42.06,26.28s72.53-12.78,93.35,17.96S148.19,116.76,117.45,137.58
	z"/>
<polygon points="245.3,291.14 210.95,313.89 115.43,150.75 129.06,141.52 "/>
<circle class="st3" cx="79.75" cy="81.93" r="67.22"/>
<path class="st4" d="M26.96,74.64c1.68-26.78,24.74-47.13,51.52-45.45"/>
<g>
	<path class="st5" d="M679.27,184.14c0,8.84,7.17,16.01,16.01,16.01h216.26c8.84,0,16.01-7.17,16.01-16.01v-116H679.27V184.14z"/>
	<path class="st6" d="M911.54,32.08H695.28c-8.84,0-16.01,7.17-16.01,16.01v19.96h248.28V48.09
		C927.55,39.25,920.38,32.08,911.54,32.08z M856.12,58.38c-4.5,0-8.15-3.65-8.15-8.15c0-4.5,3.65-8.15,8.15-8.15
		s8.15,3.65,8.15,8.15C864.27,54.73,860.62,58.38,856.12,58.38z M879.8,58.38c-4.5,0-8.15-3.65-8.15-8.15c0-4.5,3.65-8.15,8.15-8.15
		c4.5,0,8.15,3.65,8.15,8.15C887.95,54.73,884.3,58.38,879.8,58.38z M903.48,58.38c-4.5,0-8.15-3.65-8.15-8.15
		c0-4.5,3.65-8.15,8.15-8.15c4.5,0,8.15,3.65,8.15,8.15C911.63,54.73,907.98,58.38,903.48,58.38z"/>
	<circle class="st7" cx="856.12" cy="50.23" r="8.15"/>
	<circle class="st8" cx="879.8" cy="50.23" r="8.15"/>
	<circle class="st9" cx="903.48" cy="50.23" r="8.15"/>
</g>
<g>
	<line class="st10" x1="845.03" y1="92.94" x2="803.11" y2="132.51"/>
	<line class="st10" x1="761.79" y1="171.52" x2="803.11" y2="132.51"/>
	<line class="st10" x1="803.11" y1="132.51" x2="845.03" y2="172.08"/>
	<line class="st10" x1="803.11" y1="132.51" x2="761.79" y2="93.5"/>
</g>
</svg>