<!-- Generator: Adobe Illustrator 24.0.0, SVG Export Plug-In  -->
<svg version="1.1" xmlns="http://www.w3.org/2000/svg" xmlns:xlink="http://www.w3.org/1999/xlink" x="0px" y="0px"
	 width="830.15px" height="245.26px" viewBox="0 0 830.15 245.26" style="enable-background:new 0 0 830.15 245.26;"
	 xml:space="preserve">
<style type="text/css">
	.st0{fill:#4FA31D;}
	.st1{fill:#9B3227;}
	.st2{fill:none;stroke:#000000;stroke-width:4;stroke-miterlimit:10;}
</style>
<defs>
</defs>
<g>
	<path class="st0" d="M0.84,174.18l16.4-15.88c11.85,17.96,28.01,26.6,43.84,26.55c28.86-0.09,41.85-14.71,41.75-48.23l-0.35-114.51
		l-85.03,0.26l9.93-22.03L128.79,0l0.42,138.72c0.12,37.86-16.86,68.95-67.44,69.1C39.12,207.89,15.19,197.41,0.84,174.18z"/>
</g>
<g>
	<path class="st1" d="M178.16,61.59v21.38c0,1.71,0.58,2.57,1.75,2.57c1.2,0,3.08-0.89,5.63-2.68v6.07
		c-2.26,1.46-4.07,2.45-5.44,2.98s-2.8,0.79-4.29,0.79c-4.27,0-6.78-1.68-7.55-5.03c-4.23,3.28-8.73,4.92-13.51,4.92
		c-3.5,0-6.42-1.16-8.75-3.47c-2.33-2.31-3.5-5.22-3.5-8.72c0-3.17,1.14-6.01,3.42-8.5c2.28-2.5,5.51-4.48,9.71-5.93l12.74-4.38
		v-2.68c0-6.05-3.03-9.08-9.08-9.08c-5.43,0-10.72,2.81-15.86,8.42V47.37c3.86-4.56,9.42-6.84,16.68-6.84
		c5.43,0,9.79,1.42,13.07,4.27c1.09,0.91,2.08,2.12,2.95,3.64c0.88,1.51,1.43,3.03,1.67,4.54
		C178.05,54.49,178.16,57.36,178.16,61.59z M168.38,81.88V66.95l-6.67,2.57c-3.39,1.35-5.79,2.71-7.19,4.07
		c-1.4,1.37-2.11,3.07-2.11,5.11c0,2.08,0.67,3.77,2,5.09c1.33,1.31,3.05,1.97,5.17,1.97C162.74,85.76,165.68,84.47,168.38,81.88z"
		/>
	<path class="st1" d="M193.91,15.43h9.95v29.7c4.3-3.14,8.9-4.7,13.78-4.7c6.38,0,11.59,2.41,15.64,7.22s6.07,10.99,6.07,18.54
		c0,8.09-2.42,14.54-7.25,19.33c-4.83,4.79-11.29,7.19-19.39,7.19c-3.25,0-6.66-0.35-10.25-1.04c-3.59-0.69-6.44-1.57-8.56-2.63
		V15.43z M203.87,54.64v27.23c3.39,1.02,6.87,1.53,10.45,1.53c4.41,0,8.01-1.57,10.8-4.7c2.79-3.14,4.18-7.16,4.18-12.09
		c0-4.99-1.3-9.06-3.91-12.2c-2.61-3.14-6.01-4.7-10.2-4.7C211.47,49.72,207.7,51.36,203.87,54.64z"/>
	<path class="st1" d="M255.49,20.35c1.64,0,3.04,0.57,4.21,1.7c1.17,1.13,1.75,2.52,1.75,4.16c0,1.6-0.58,2.99-1.75,4.16
		c-1.17,1.17-2.57,1.75-4.21,1.75c-1.53,0-2.88-0.59-4.05-1.78c-1.17-1.18-1.75-2.56-1.75-4.13c0-1.53,0.58-2.89,1.75-4.07
		C252.61,20.95,253.96,20.35,255.49,20.35z M250.57,41.52h9.95v50.31h-9.95V41.52z"/>
	<path class="st1" d="M285.57,41.52v11.54l0.55-0.88c4.81-7.77,9.63-11.65,14.44-11.65c3.75,0,7.67,1.9,11.76,5.69l-5.25,8.75
		c-3.46-3.28-6.67-4.92-9.63-4.92c-3.21,0-5.99,1.53-8.34,4.59s-3.53,6.69-3.53,10.88v26.3h-10.01V41.52H285.57z"/>
	<path class="st1" d="M351.85,15.43h10.94v76.4h-10.94V15.43z"/>
	<path class="st1" d="M377.94,15.43h9.95v29.7c4.3-3.14,8.9-4.7,13.78-4.7c6.38,0,11.59,2.41,15.64,7.22
		c4.05,4.81,6.07,10.99,6.07,18.54c0,8.09-2.42,14.54-7.25,19.33c-4.83,4.79-11.29,7.19-19.39,7.19c-3.25,0-6.66-0.35-10.25-1.04
		c-3.59-0.69-6.44-1.57-8.56-2.63V15.43z M387.89,54.64v27.23c3.39,1.02,6.87,1.53,10.45,1.53c4.41,0,8.01-1.57,10.8-4.7
		c2.79-3.14,4.18-7.16,4.18-12.09c0-4.99-1.3-9.06-3.91-12.2c-2.61-3.14-6.01-4.7-10.2-4.7C395.49,49.72,391.72,51.36,387.89,54.64z
		"/>
	<path class="st1" d="M444.33,41.52v6.4c4.45-4.92,9.5-7.38,15.15-7.38c3.14,0,6.05,0.81,8.75,2.43c2.7,1.62,4.75,3.85,6.15,6.67
		c1.4,2.83,2.11,7.3,2.11,13.43v28.77h-9.95V63.17c0-5.14-0.78-8.81-2.35-11.02c-1.57-2.21-4.19-3.31-7.88-3.31
		c-4.7,0-8.7,2.35-11.98,7.05v35.93h-10.17V41.52H444.33z"/>
	<path class="st1" d="M533.25,67.55h-35.38c0.25,4.81,1.87,8.64,4.84,11.48c2.97,2.84,6.81,4.27,11.51,4.27
		c6.56,0,12.61-2.04,18.16-6.13v9.73c-3.06,2.04-6.1,3.5-9.11,4.38s-6.54,1.31-10.58,1.31c-5.54,0-10.03-1.15-13.45-3.45
		c-3.43-2.3-6.17-5.39-8.23-9.27c-2.06-3.88-3.09-8.38-3.09-13.48c0-7.66,2.17-13.88,6.51-18.68c4.34-4.79,9.97-7.19,16.9-7.19
		c6.67,0,11.99,2.33,15.97,7c3.97,4.67,5.96,10.92,5.96,18.76V67.55z M498.09,61.59h25.32c-0.26-3.97-1.44-7.04-3.55-9.19
		c-2.11-2.15-4.96-3.23-8.53-3.23c-3.57,0-6.5,1.08-8.78,3.23C500.26,54.55,498.78,57.62,498.09,61.59z"/>
	<path class="st1" d="M630.38,15.43h10.94v76.4h-10.94V58.58h-42.93v33.25h-10.94v-76.4h10.94v33.03h42.93V15.43z"/>
	<path class="st1" d="M688.4,61.59v21.38c0,1.71,0.58,2.57,1.75,2.57c1.2,0,3.08-0.89,5.63-2.68v6.07
		c-2.26,1.46-4.07,2.45-5.44,2.98s-2.8,0.79-4.29,0.79c-4.27,0-6.78-1.68-7.55-5.03c-4.23,3.28-8.73,4.92-13.51,4.92
		c-3.5,0-6.42-1.16-8.75-3.47c-2.33-2.31-3.5-5.22-3.5-8.72c0-3.17,1.14-6.01,3.42-8.5c2.28-2.5,5.51-4.48,9.71-5.93l12.74-4.38
		v-2.68c0-6.05-3.03-9.08-9.08-9.08c-5.43,0-10.72,2.81-15.86,8.42V47.37c3.86-4.56,9.42-6.84,16.68-6.84
		c5.43,0,9.79,1.42,13.07,4.27c1.09,0.91,2.08,2.12,2.95,3.64c0.88,1.51,1.43,3.03,1.67,4.54C688.28,54.49,688.4,57.36,688.4,61.59z
		 M678.61,81.88V66.95l-6.67,2.57c-3.39,1.35-5.79,2.71-7.19,4.07c-1.4,1.37-2.11,3.07-2.11,5.11c0,2.08,0.67,3.77,2,5.09
		c1.33,1.31,3.05,1.97,5.17,1.97C672.98,85.76,675.91,84.47,678.61,81.88z"/>
	<path class="st1" d="M704.15,15.43h9.95v29.7c4.3-3.14,8.9-4.7,13.78-4.7c6.38,0,11.59,2.41,15.64,7.22s6.07,10.99,6.07,18.54
		c0,8.09-2.42,14.54-7.25,19.33c-4.83,4.79-11.29,7.19-19.39,7.19c-3.25,0-6.66-0.35-10.25-1.04c-3.59-0.69-6.44-1.57-8.56-2.63
		V15.43z M714.1,54.64v27.23c3.39,1.02,6.87,1.53,10.45,1.53c4.41,0,8.01-1.57,10.8-4.7c2.79-3.14,4.18-7.16,4.18-12.09
		c0-4.99-1.3-9.06-3.91-12.2c-2.61-3.14-6.01-4.7-10.2-4.7C721.7,49.72,717.93,51.36,714.1,54.64z"/>
	<path class="st1" d="M765.73,20.35c1.64,0,3.04,0.57,4.21,1.7c1.17,1.13,1.75,2.52,1.75,4.16c0,1.6-0.58,2.99-1.75,4.16
		c-1.17,1.17-2.57,1.75-4.21,1.75c-1.53,0-2.88-0.59-4.05-1.78c-1.17-1.18-1.75-2.56-1.75-4.13c0-1.53,0.58-2.89,1.75-4.07
		C762.85,20.95,764.2,20.35,765.73,20.35z M760.8,41.52h9.95v50.31h-9.95V41.52z"/>
	<path class="st1" d="M784.7,15.43h9.95v29.7c4.3-3.14,8.9-4.7,13.78-4.7c6.38,0,11.59,2.41,15.64,7.22s6.07,10.99,6.07,18.54
		c0,8.09-2.42,14.54-7.25,19.33c-4.83,4.79-11.29,7.19-19.39,7.19c-3.25,0-6.66-0.35-10.25-1.04c-3.59-0.69-6.44-1.57-8.56-2.63
		V15.43z M794.66,54.64v27.23c3.39,1.02,6.87,1.53,10.45,1.53c4.41,0,8.01-1.57,10.8-4.7c2.79-3.14,4.18-7.16,4.18-12.09
		c0-4.99-1.3-9.06-3.91-12.2c-2.61-3.14-6.01-4.7-10.2-4.7C802.26,49.72,798.48,51.36,794.66,54.64z"/>
</g>
<g>
	<path d="M179.01,132.14v39.77h-7.25l0.44-7.43h-0.44c-1.63,2.72-3.64,4.79-6.02,6.22c-2.38,1.42-4.89,2.13-7.55,2.13
		c-3.75,0-6.67-1.27-8.74-3.81c-1.02-1.27-1.7-2.64-2.03-4.1s-0.49-3.32-0.49-5.57v-27.21h7.21v25.23c0,1.54,0.07,2.77,0.2,3.7
		c0.13,0.93,0.46,1.76,0.97,2.49c0.56,0.83,1.29,1.44,2.19,1.83c0.9,0.39,1.88,0.59,2.92,0.59c1.95,0,3.83-0.65,5.63-1.94
		c1.8-1.29,3.7-3.26,5.7-5.9v-26H179.01z"/>
	<path d="M192.34,171.91v-39.77h7.25l-0.44,7.43h0.44c1.61-2.69,3.6-4.75,5.98-6.19c2.38-1.44,4.89-2.16,7.55-2.16
		c3.78,0,6.7,1.27,8.78,3.81c1.02,1.25,1.7,2.61,2.03,4.09c0.33,1.48,0.49,3.33,0.49,5.55v27.23h-7.21v-25.26
		c0-1.52-0.07-2.74-0.2-3.67c-0.13-0.93-0.46-1.77-0.97-2.53c-0.56-0.83-1.29-1.44-2.19-1.81c-0.9-0.38-1.88-0.57-2.92-0.57
		c-1.95,0-3.83,0.64-5.63,1.92c-1.8,1.28-3.7,3.24-5.7,5.88v26.03H192.34z"/>
	<path d="M251.63,171.91v-34.35h-14.43v-5.42h21.68v39.77H251.63z M250.72,123.13v-9.05h9.05v9.05H250.72z"/>
	<path d="M298.64,172.83c-6,0-10.62-1.92-13.87-5.77c-3.24-3.85-4.87-8.86-4.87-15.05c0-6.18,1.62-11.19,4.87-15.03
		c3.24-3.84,7.87-5.75,13.87-5.75c6,0,10.62,1.92,13.87,5.75c3.24,3.84,4.87,8.85,4.87,15.03c0,6.18-1.62,11.2-4.87,15.05
		C309.26,170.9,304.64,172.83,298.64,172.83z M298.64,167.41c3.48,0,6.2-1.36,8.13-4.09s2.91-6.5,2.91-11.31
		c0-4.79-0.98-8.55-2.93-11.27c-1.95-2.73-4.66-4.09-8.12-4.09c-3.46,0-6.17,1.36-8.12,4.09c-1.95,2.73-2.92,6.48-2.92,11.27
		c0,4.82,0.97,8.59,2.91,11.31S295.15,167.41,298.64,167.41z"/>
	<path d="M332.53,171.91v-39.77h7.25l-0.44,7.43h0.44c1.66-2.51,3.65-4.53,5.98-6.06c2.33-1.53,5.26-2.29,8.79-2.29
		c2.14,0,4.59,0.31,7.35,0.92v11.28h-5.42v-5.68c-1.12-0.24-2.13-0.37-3.03-0.37c-2.46,0-4.83,0.72-7.11,2.14
		c-2.28,1.43-4.46,3.59-6.56,6.47v25.92H332.53z"/>
	<path d="M451.99,170.63c-4.27,1.46-8.52,2.2-12.77,2.2c-7.24,0-12.66-1.89-16.24-5.66c-3.59-3.78-5.38-8.83-5.38-15.16
		c0-6.26,1.8-11.28,5.4-15.08c3.6-3.8,8.79-5.7,15.57-5.7c4.19,0,8.43,0.64,12.69,1.9v6.05c-4.71-1.69-8.72-2.53-12.03-2.53
		c-4.39,0-7.81,1.38-10.26,4.14c-2.45,2.76-3.68,6.5-3.68,11.22c0,4.82,1.33,8.59,3.99,11.31s6.3,4.09,10.94,4.09
		c3.49,0,7.41-0.82,11.78-2.46V170.63z"/>
	<path d="M479.4,172.83c-6,0-10.62-1.92-13.87-5.77c-3.24-3.85-4.87-8.86-4.87-15.05c0-6.18,1.62-11.19,4.87-15.03
		c3.24-3.84,7.87-5.75,13.87-5.75c6,0,10.62,1.92,13.87,5.75c3.24,3.84,4.87,8.85,4.87,15.03c0,6.18-1.62,11.2-4.87,15.05
		C490.02,170.9,485.4,172.83,479.4,172.83z M479.4,167.41c3.49,0,6.2-1.36,8.13-4.09s2.91-6.5,2.91-11.31
		c0-4.79-0.97-8.55-2.92-11.27s-4.66-4.09-8.12-4.09c-3.46,0-6.17,1.36-8.12,4.09c-1.95,2.73-2.92,6.48-2.92,11.27
		c0,4.82,0.97,8.59,2.91,11.31S475.91,167.41,479.4,167.41z"/>
	<path d="M534.2,171.91l0.44-7.43h-0.44c-1.76,2.77-3.72,4.86-5.89,6.25c-2.17,1.4-4.55,2.1-7.13,2.1c-4.51,0-8.06-1.77-10.64-5.31
		c-2.58-3.54-3.88-8.27-3.88-14.19c0-6.55,1.49-11.83,4.46-15.83c1.54-2.05,3.36-3.61,5.49-4.67s4.36-1.59,6.73-1.59
		c1.88,0,3.7,0.35,5.47,1.04c1.77,0.7,3.57,2.16,5.39,4.38h0.44l-0.44-5.41v-17.15h7.25v57.82H534.2z M534.2,142.07
		c-1.68-1.81-3.34-3.17-4.99-4.07s-3.27-1.36-4.88-1.36c-2.63,0-4.95,1.2-6.96,3.59c-2.01,2.4-3.01,6.51-3.01,12.36
		c0,5.11,0.79,8.73,2.38,10.85c1.58,2.13,3.58,3.19,6,3.19c1.66,0,3.51-0.6,5.56-1.81c2.05-1.21,4.02-3.15,5.92-5.81V142.07z"/>
	<path d="M587.41,170.34c-1.27,0.42-2.22,0.72-2.86,0.92c-1.86,0.54-3.68,0.93-5.47,1.19c-1.79,0.26-3.61,0.38-5.44,0.38
		c-7.47,0-12.88-1.92-16.24-5.77c-3.36-3.85-5.04-8.72-5.04-14.61c0-5.84,1.71-10.84,5.14-14.99s7.98-6.23,13.64-6.23
		c4.81,0,8.68,1.46,11.61,4.38s4.39,8.25,4.39,15.97v2.31h-27.1c0.29,5.1,1.83,8.63,4.62,10.58c2.78,1.95,6.1,2.93,9.96,2.93
		c3.88,0,8.14-0.93,12.78-2.78V170.34z M560.28,148.48h19.19v-1.03c0-3.87-0.85-6.64-2.55-8.3c-1.7-1.67-3.84-2.5-6.43-2.5
		c-2.76,0-5.07,1.02-6.92,3.07C561.72,141.76,560.62,144.68,560.28,148.48z"/>
	<path d="M603.67,171.91v-39.77h7.25l-0.44,7.43h0.44c1.66-2.51,3.65-4.53,5.98-6.06c2.33-1.53,5.26-2.29,8.79-2.29
		c2.14,0,4.59,0.31,7.35,0.92v11.28h-5.42v-5.68c-1.12-0.24-2.13-0.37-3.03-0.37c-2.46,0-4.83,0.72-7.11,2.14
		c-2.28,1.43-4.46,3.59-6.56,6.47v25.92H603.67z"/>
</g>
<line class="st2" x1="0.5" y1="225.76" x2="662.5" y2="225.76"/>
<line class="st2" x1="0" y1="243.26" x2="378" y2="243.26"/>
<g>
	<path d="M369.64,157.12v-6.69h36.77v6.69H369.64z"/>
</g>
</svg>
