<!-- Generator: Adobe Illustrator 24.0.0, SVG Export Plug-In  -->
<svg version="1.1" xmlns="http://www.w3.org/2000/svg" xmlns:xlink="http://www.w3.org/1999/xlink" x="0px" y="0px" width="13.89px"
	 height="13.89px" viewBox="0 0 13.89 13.89" style="enable-background:new 0 0 13.89 13.89;" xml:space="preserve">
<defs>
</defs>
<path d="M4.07,6.37c0.92-0.92,2.53-0.92,3.45,0L8.1,6.95L9.25,5.8L8.67,5.22C7.9,4.45,6.88,4.03,5.79,4.03S3.68,4.45,2.92,5.22
	L1.19,6.95c-1.59,1.59-1.59,4.17,0,5.76c0.76,0.76,1.8,1.19,2.88,1.19c1.08,0,2.12-0.43,2.88-1.19l0.58-0.58l-1.15-1.15l-0.58,0.58
	c-0.96,0.95-2.5,0.95-3.45,0c-0.95-0.95-0.95-2.5,0-3.45C2.34,8.1,4.07,6.37,4.07,6.37z"/>
<path d="M6.95,1.19L6.37,1.77l1.15,1.15L8.1,2.34c0.96-0.95,2.5-0.95,3.45,0c0.95,0.95,0.95,2.5,0,3.45L9.82,7.52
	c-0.92,0.92-2.53,0.92-3.45,0L5.79,6.95L4.64,8.1l0.58,0.58C5.99,9.44,7.01,9.87,8.1,9.87s2.11-0.42,2.88-1.19l1.73-1.73
	c1.59-1.59,1.59-4.17,0-5.76C11.11-0.4,8.54-0.4,6.95,1.19z"/>
</svg>
