<!-- Generator: Adobe Illustrator 24.0.0, SVG Export Plug-In  -->
<svg version="1.1" xmlns="http://www.w3.org/2000/svg" xmlns:xlink="http://www.w3.org/1999/xlink" x="0px" y="0px"
	 width="523.18px" height="191.89px" viewBox="0 0 523.18 191.89" style="enable-background:new 0 0 523.18 191.89;"
	 xml:space="preserve">
<style type="text/css">
	.st0{fill:none;}
	.st1{fill:#C6C6C6;}
	.st2{fill:#3D3D3D;}
	.st3{fill:#BABABA;}
	.st4{fill:#A3A3A3;}
	.st5{fill:#CE6828;}
	.st6{fill:#FFFFFF;}
	.st7{fill:#BCBCBC;}
	.st8{fill:#828282;}
	.st9{fill:#EED813;stroke:#000000;stroke-width:3;stroke-miterlimit:10;}
	.st10{fill:#878787;}
	.st11{fill:#F47B3C;}
	.st12{fill:#EBE9F0;}
	.st13{fill:#F47B39;}
	.st14{fill:#ECE9F4;}
</style>
<defs>
</defs>
<g>
	<path d="M204.95,87.62c3.15-0.53,7.27-0.98,12.52-0.98c6.45,0,11.17,1.5,14.17,4.2c2.77,2.4,4.42,6.07,4.42,10.57
		c0,4.57-1.35,8.17-3.9,10.8c-3.45,3.67-9.07,5.55-15.45,5.55c-1.95,0-3.75-0.07-5.25-0.45v20.25h-6.52V87.62z M211.48,112
		c1.42,0.38,3.22,0.52,5.4,0.52c7.87,0,12.67-3.83,12.67-10.8c0-6.67-4.73-9.9-11.92-9.9c-2.85,0-5.02,0.23-6.15,0.52V112z"/>
	<path d="M310.7,101.27c-0.15,2.62-0.3,5.55-0.3,9.97v21.07c0,8.32-1.65,13.42-5.17,16.57c-3.52,3.3-8.63,4.35-13.2,4.35
		c-4.35,0-9.15-1.05-12.07-3l1.65-5.02c2.4,1.5,6.15,2.85,10.65,2.85c6.75,0,11.7-3.52,11.7-12.67v-4.05h-0.15
		c-2.02,3.37-5.92,6.07-11.55,6.07c-9,0-15.45-7.65-15.45-17.7c0-12.3,8.02-19.27,16.35-19.27c6.3,0,9.75,3.3,11.32,6.3h0.15
		l0.3-5.47H310.7z M303.87,115.6c0-1.13-0.08-2.1-0.38-3c-1.2-3.82-4.42-6.97-9.22-6.97c-6.3,0-10.8,5.32-10.8,13.72
		c0,7.12,3.6,13.05,10.72,13.05c4.05,0,7.72-2.55,9.15-6.75c0.38-1.13,0.52-2.4,0.52-3.52V115.6z"/>
	<path d="M325.02,120.62c0.15,8.92,5.85,12.6,12.45,12.6c4.72,0,7.57-0.83,10.05-1.88l1.12,4.72c-2.32,1.05-6.3,2.25-12.07,2.25
		c-11.17,0-17.85-7.35-17.85-18.3s6.45-19.57,17.02-19.57c11.85,0,15,10.42,15,17.1c0,1.35-0.15,2.4-0.23,3.08H325.02z
		 M344.37,115.9c0.07-4.2-1.73-10.72-9.15-10.72c-6.67,0-9.6,6.15-10.12,10.72H344.37z"/>
</g>
<g>
	<path class="st0" d="M265.04,27.1c-0.02-0.01-0.03-0.02-0.04-0.03c0,0.01,0,0.02-0.01,0.02L265.04,27.1z"/>
	<polygon class="st0" points="264.16,34.57 264.16,34.58 264.17,34.58 	"/>
	<path class="st0" d="M262.57,18.76c-0.01,0.67-0.56,1.23-1.22,1.22c-0.67,0-1.22-0.55-1.23-1.22c0-0.56,0.39-1.04,0.91-1.17v1.17
		h0.68V17.6C262.21,17.75,262.58,18.21,262.57,18.76z"/>
	<path class="st0" d="M249.7,52.3c0,4.28,2.85,6.3,6.22,6.3c4.73,0,7.72-3,8.77-6.07c0.23-0.68,0.38-1.43,0.38-2.1v-6.3
		C257.87,43.98,249.7,45.25,249.7,52.3z"/>
	<path d="M271.44,53.95V40.38c0-4.47-1.02-9.05-4.39-11.92l-0.04-0.08c0,0.01-0.01,0.02-0.01,0.03c-0.57-0.5-1.23-0.93-1.96-1.3
		h-0.05v-0.03c-1.23-0.64-2.67-1.1-4.37-1.35c-0.34,0.51-0.68,1.03-1.01,1.55c-0.37,0.57-0.5,1.19-0.4,1.87
		c0.12,0.83,0.6,1.48,1.25,1.87c0.2,0.13,0.43,0.22,0.66,0.29c1.56,0.78,2.5,1.98,3.04,3.27c0.63,1.46,0.76,3.03,0.76,4.22v0.75
		c-14.02-0.07-21.82,4.73-21.82,13.5c0,5.25,3.75,10.43,11.1,10.43c5.17,0,9.07-2.55,11.1-5.4h0.22l0.52,4.57h6
		C271.59,60.18,271.44,57.1,271.44,53.95z M265.07,50.43c0,0.67-0.15,1.42-0.38,2.1c-1.05,3.07-4.04,6.07-8.77,6.07
		c-3.37,0-6.22-2.02-6.22-6.3c0-7.05,8.17-8.32,15.37-8.17V50.43z"/>
	<path d="M255.08,28.32c0.13-1.02,0.48-1.93,1.03-2.74c-4.01,0.25-7.73,1.44-10.39,3.17l1.5,4.35c2.17-1.41,5.06-2.38,7.95-2.63
		C255.02,29.78,254.98,29.07,255.08,28.32z"/>
	<path class="st1" d="M266.38,27.19l0.63,1.19c0.06-0.7,0.21-1.38,0.44-2.03c0.18-0.54-0.09-1.05-0.63-1.19
		c-0.37-0.09-0.68,0.03-0.91,0.33c-0.38,0.5-0.69,1.03-0.92,1.6c0.02,0.01,0.03,0.02,0.04,0.03L266.38,27.19z"/>
	<path class="st1" d="M264.14,17.26c-0.53-0.99-1.35-1.56-2.43-1.65c-0.11-0.01-0.22-0.02-0.34-0.02s-0.23,0.01-0.34,0.02
		c-1.21,0.1-2.1,0.75-2.59,1.9c-0.52,1.24-0.33,2.41,0.6,3.42c0.42,0.47,0.45,1.01,0.02,1.48c-0.65,0.69-1.31,1.39-1.99,2.04
		c-0.37,0.35-0.69,0.73-0.96,1.13c0.51-0.03,1.02-0.05,1.54-0.05c1.07,0,2.06,0.07,2.97,0.2c1.13-1.74,2.26-3.48,3.38-5.22
		C264.67,19.46,264.73,18.36,264.14,17.26z M261.35,19.98c-0.67,0-1.22-0.55-1.23-1.22c0-0.56,0.39-1.04,0.91-1.17
		c0.1-0.04,0.21-0.05,0.32-0.05c0.13,0,0.25,0.02,0.36,0.06c0.5,0.15,0.87,0.61,0.86,1.16C262.56,19.43,262.01,19.99,261.35,19.98z"
		/>
	<path class="st1" d="M260.54,32.06l-0.35-1.13c-0.96-0.33-2.12-0.53-3.51-0.53c-0.5,0-1,0.02-1.5,0.07
		c0.17,0.75,0.47,1.47,0.92,2.16c0.92,1.43,2.18,2.34,3.84,2.68c0.39,0.08,0.78,0.1,1.17,0.15c1.12-0.02,2.17-0.33,3.06-0.88
		c0,0,0,0,0,0L260.54,32.06z"/>
	<path class="st1" d="M265.04,27.1c0.73,0.37,1.39,0.81,1.97,1.3c0-0.01,0-0.02,0.01-0.04l-0.63-1.19L265.04,27.1z"/>
	<path class="st1" d="M260.19,30.93l0.35,1.13l3.62,2.51c-0.54-1.29-1.48-2.49-3.04-3.27c-0.23-0.07-0.46-0.16-0.66-0.29
		c-0.65-0.39-1.13-1.04-1.25-1.87c-0.1-0.68,0.03-1.3,0.4-1.87c0.33-0.52,0.67-1.04,1.01-1.55c-0.91-0.13-1.9-0.2-2.97-0.2
		c-0.52,0-1.03,0.02-1.54,0.05c-0.55,0.81-0.9,1.72-1.03,2.74c-0.1,0.75-0.06,1.46,0.09,2.15c0.5-0.05,1-0.07,1.5-0.07
		C258.07,30.4,259.23,30.6,260.19,30.93z"/>
</g>
<path class="st2" d="M261.71,4.08V17.6c-0.11-0.04-0.23-0.06-0.36-0.06c-0.11,0-0.22,0.01-0.32,0.05V4.08H261.71z"/>
<rect x="46.03" y="62.76" class="st3" width="6.33" height="128.97"/>
<rect x="163.92" y="62.76" class="st3" width="6.33" height="128.97"/>
<rect x="246.85" y="52.02" transform="matrix(0.8886 0.4586 -0.4586 0.8886 65.5268 -159.4388)" class="st4" width="228.4" height="6.37"/>
<circle class="st2" cx="261.39" cy="3.89" r="0.96"/>
<g>
	<rect x="105.27" y="145.89" class="st0" width="348.77" height="14.8"/>
	<path class="st5" d="M454.04,145.89v-15.43H105.27v15.43H454.04z M450.34,131.23h3.65l-7.66,13.88h-3.65L450.34,131.23z
		 M438.31,131.23h3.65l-7.66,13.88h-3.65L438.31,131.23z M426.29,131.23h3.65l-7.66,13.88h-3.65L426.29,131.23z M414.26,131.23h3.65
		l-7.66,13.88h-3.65L414.26,131.23z M402.23,131.23h3.65l-7.66,13.88h-3.65L402.23,131.23z M390.2,131.23h3.65l-7.66,13.88h-3.65
		L390.2,131.23z M378.18,131.23h3.65l-7.66,13.88h-3.65L378.18,131.23z M366.15,131.23h3.65l-7.66,13.88h-3.65L366.15,131.23z
		 M354.12,131.23h3.65l-7.66,13.88h-3.65L354.12,131.23z M342.1,131.23h3.65l-7.66,13.88h-3.65L342.1,131.23z M330.07,131.23h3.65
		l-7.66,13.88h-3.65L330.07,131.23z M318.04,131.23h3.65l-7.66,13.88h-3.65L318.04,131.23z M306.02,131.23h3.65L302,145.11h-3.65
		L306.02,131.23z M293.99,131.23h3.65l-7.66,13.88h-3.65L293.99,131.23z M281.96,131.23h3.65l-7.66,13.88h-3.65L281.96,131.23z
		 M269.94,131.23h3.65l-7.66,13.88h-3.65L269.94,131.23z M257.91,131.23h3.65l-7.66,13.88h-3.65L257.91,131.23z M245.88,131.23h3.65
		l-7.66,13.88h-3.65L245.88,131.23z M233.85,131.23h3.65l-7.66,13.88h-3.65L233.85,131.23z M221.83,131.23h3.65l-7.66,13.88h-3.65
		L221.83,131.23z M209.8,131.23h3.65l-7.66,13.88h-3.65L209.8,131.23z M197.77,131.23h3.65l-7.66,13.88h-3.65L197.77,131.23z
		 M185.75,131.23h3.65l-7.66,13.88h-3.65L185.75,131.23z M173.72,131.23h3.65l-7.66,13.88h-3.65L173.72,131.23z M161.69,131.23h3.65
		l-7.66,13.88h-3.65L161.69,131.23z M149.67,131.23h3.65l-7.66,13.88H142L149.67,131.23z M137.64,131.23h3.65l-7.66,13.88h-3.65
		L137.64,131.23z M125.61,131.23h3.65l-7.66,13.88h-3.65L125.61,131.23z M117.23,131.23l-7.66,13.88h-3.65l7.66-13.88H117.23z"/>
	<polygon class="st6" points="109.57,145.11 117.23,131.23 113.58,131.23 105.92,145.11 	"/>
	<polygon class="st6" points="129.26,131.23 125.61,131.23 117.95,145.11 121.6,145.11 	"/>
	<polygon class="st6" points="141.29,131.23 137.64,131.23 129.98,145.11 133.62,145.11 	"/>
	<polygon class="st6" points="153.31,131.23 149.67,131.23 142,145.11 145.65,145.11 	"/>
	<polygon class="st6" points="165.34,131.23 161.69,131.23 154.03,145.11 157.68,145.11 	"/>
	<polygon class="st6" points="177.37,131.23 173.72,131.23 166.06,145.11 169.71,145.11 	"/>
	<polygon class="st6" points="189.4,131.23 185.75,131.23 178.08,145.11 181.73,145.11 	"/>
	<polygon class="st6" points="201.42,131.23 197.77,131.23 190.11,145.11 193.76,145.11 	"/>
	<polygon class="st6" points="213.45,131.23 209.8,131.23 202.14,145.11 205.79,145.11 	"/>
	<polygon class="st6" points="225.48,131.23 221.83,131.23 214.16,145.11 217.81,145.11 	"/>
	<polygon class="st6" points="237.5,131.23 233.85,131.23 226.19,145.11 229.84,145.11 	"/>
	<polygon class="st6" points="249.53,131.23 245.88,131.23 238.22,145.11 241.87,145.11 	"/>
	<polygon class="st6" points="261.56,131.23 257.91,131.23 250.24,145.11 253.89,145.11 	"/>
	<polygon class="st6" points="273.58,131.23 269.94,131.23 262.27,145.11 265.92,145.11 	"/>
	<polygon class="st6" points="285.61,131.23 281.96,131.23 274.3,145.11 277.95,145.11 	"/>
	<polygon class="st6" points="297.64,131.23 293.99,131.23 286.33,145.11 289.98,145.11 	"/>
	<polygon class="st6" points="309.67,131.23 306.02,131.23 298.35,145.11 302,145.11 	"/>
	<polygon class="st6" points="321.69,131.23 318.04,131.23 310.38,145.11 314.03,145.11 	"/>
	<polygon class="st6" points="333.72,131.23 330.07,131.23 322.41,145.11 326.06,145.11 	"/>
	<polygon class="st6" points="345.75,131.23 342.1,131.23 334.43,145.11 338.08,145.11 	"/>
	<polygon class="st6" points="357.77,131.23 354.12,131.23 346.46,145.11 350.11,145.11 	"/>
	<polygon class="st6" points="369.8,131.23 366.15,131.23 358.49,145.11 362.14,145.11 	"/>
	<polygon class="st6" points="381.83,131.23 378.18,131.23 370.51,145.11 374.16,145.11 	"/>
	<polygon class="st6" points="393.85,131.23 390.2,131.23 382.54,145.11 386.19,145.11 	"/>
	<polygon class="st6" points="405.88,131.23 402.23,131.23 394.57,145.11 398.22,145.11 	"/>
	<polygon class="st6" points="417.91,131.23 414.26,131.23 406.6,145.11 410.24,145.11 	"/>
	<polygon class="st6" points="429.93,131.23 426.29,131.23 418.62,145.11 422.27,145.11 	"/>
	<polygon class="st6" points="441.96,131.23 438.31,131.23 430.65,145.11 434.3,145.11 	"/>
	<polygon class="st6" points="453.99,131.23 450.34,131.23 442.68,145.11 446.33,145.11 	"/>
	<path class="st5" d="M105.27,160.68v15.43h348.77v-15.43H105.27z M109.57,175.34h-3.65l7.66-13.88h3.65L109.57,175.34z
		 M121.6,175.34h-3.65l7.66-13.88h3.65L121.6,175.34z M133.62,175.34h-3.65l7.66-13.88h3.65L133.62,175.34z M145.65,175.34H142
		l7.66-13.88h3.65L145.65,175.34z M157.68,175.34h-3.65l7.66-13.88h3.65L157.68,175.34z M169.71,175.34h-3.65l7.66-13.88h3.65
		L169.71,175.34z M181.73,175.34h-3.65l7.66-13.88h3.65L181.73,175.34z M193.76,175.34h-3.65l7.66-13.88h3.65L193.76,175.34z
		 M205.79,175.34h-3.65l7.66-13.88h3.65L205.79,175.34z M217.81,175.34h-3.65l7.66-13.88h3.65L217.81,175.34z M229.84,175.34h-3.65
		l7.66-13.88h3.65L229.84,175.34z M241.87,175.34h-3.65l7.66-13.88h3.65L241.87,175.34z M253.89,175.34h-3.65l7.66-13.88h3.65
		L253.89,175.34z M265.92,175.34h-3.65l7.66-13.88h3.65L265.92,175.34z M277.95,175.34h-3.65l7.66-13.88h3.65L277.95,175.34z
		 M289.98,175.34h-3.65l7.66-13.88h3.65L289.98,175.34z M302,175.34h-3.65l7.66-13.88h3.65L302,175.34z M314.03,175.34h-3.65
		l7.66-13.88h3.65L314.03,175.34z M326.06,175.34h-3.65l7.66-13.88h3.65L326.06,175.34z M338.08,175.34h-3.65l7.66-13.88h3.65
		L338.08,175.34z M350.11,175.34h-3.65l7.66-13.88h3.65L350.11,175.34z M362.14,175.34h-3.65l7.66-13.88h3.65L362.14,175.34z
		 M374.16,175.34h-3.65l7.66-13.88h3.65L374.16,175.34z M386.19,175.34h-3.65l7.66-13.88h3.65L386.19,175.34z M398.22,175.34h-3.65
		l7.66-13.88h3.65L398.22,175.34z M410.24,175.34h-3.65l7.66-13.88h3.65L410.24,175.34z M422.27,175.34h-3.65l7.66-13.88h3.65
		L422.27,175.34z M434.3,175.34h-3.65l7.66-13.88h3.65L434.3,175.34z M442.68,175.34l7.66-13.88h3.65l-7.66,13.88H442.68z"/>
	<polygon class="st6" points="105.92,175.34 109.57,175.34 117.23,161.45 113.58,161.45 	"/>
	<polygon class="st6" points="117.95,175.34 121.6,175.34 129.26,161.45 125.61,161.45 	"/>
	<polygon class="st6" points="129.98,175.34 133.62,175.34 141.29,161.45 137.64,161.45 	"/>
	<polygon class="st6" points="142,175.34 145.65,175.34 153.31,161.45 149.67,161.45 	"/>
	<polygon class="st6" points="154.03,175.34 157.68,175.34 165.34,161.45 161.69,161.45 	"/>
	<polygon class="st6" points="166.06,175.34 169.71,175.34 177.37,161.45 173.72,161.45 	"/>
	<polygon class="st6" points="178.08,175.34 181.73,175.34 189.4,161.45 185.75,161.45 	"/>
	<polygon class="st6" points="190.11,175.34 193.76,175.34 201.42,161.45 197.77,161.45 	"/>
	<polygon class="st6" points="202.14,175.34 205.79,175.34 213.45,161.45 209.8,161.45 	"/>
	<polygon class="st6" points="214.16,175.34 217.81,175.34 225.48,161.45 221.83,161.45 	"/>
	<polygon class="st6" points="226.19,175.34 229.84,175.34 237.5,161.45 233.85,161.45 	"/>
	<polygon class="st6" points="238.22,175.34 241.87,175.34 249.53,161.45 245.88,161.45 	"/>
	<polygon class="st6" points="250.24,175.34 253.89,175.34 261.56,161.45 257.91,161.45 	"/>
	<polygon class="st6" points="262.27,175.34 265.92,175.34 273.58,161.45 269.94,161.45 	"/>
	<polygon class="st6" points="274.3,175.34 277.95,175.34 285.61,161.45 281.96,161.45 	"/>
	<polygon class="st6" points="286.33,175.34 289.98,175.34 297.64,161.45 293.99,161.45 	"/>
	<polygon class="st6" points="298.35,175.34 302,175.34 309.67,161.45 306.02,161.45 	"/>
	<polygon class="st6" points="310.38,175.34 314.03,175.34 321.69,161.45 318.04,161.45 	"/>
	<polygon class="st6" points="322.41,175.34 326.06,175.34 333.72,161.45 330.07,161.45 	"/>
	<polygon class="st6" points="334.43,175.34 338.08,175.34 345.75,161.45 342.1,161.45 	"/>
	<polygon class="st6" points="346.46,175.34 350.11,175.34 357.77,161.45 354.12,161.45 	"/>
	<polygon class="st6" points="358.49,175.34 362.14,175.34 369.8,161.45 366.15,161.45 	"/>
	<polygon class="st6" points="370.51,175.34 374.16,175.34 381.83,161.45 378.18,161.45 	"/>
	<polygon class="st6" points="382.54,175.34 386.19,175.34 393.85,161.45 390.2,161.45 	"/>
	<polygon class="st6" points="394.57,175.34 398.22,175.34 405.88,161.45 402.23,161.45 	"/>
	<polygon class="st6" points="406.6,175.34 410.24,175.34 417.91,161.45 414.26,161.45 	"/>
	<polygon class="st6" points="418.62,175.34 422.27,175.34 429.93,161.45 426.29,161.45 	"/>
	<polygon class="st6" points="430.65,175.34 434.3,175.34 441.96,161.45 438.31,161.45 	"/>
	<polygon class="st6" points="450.34,161.45 442.68,175.34 446.33,175.34 453.99,161.45 	"/>
	<path class="st7" d="M104.26,160.68h1.01v-14.8h-1.01v-15.43h1.01v-19.14h-4.32c-0.54,0.14-1.1,0.22-1.68,0.22
		s-1.14-0.08-1.68-0.22h-4.32v80.57h12v-15.78h-1.01V160.68z"/>
	<rect x="104.26" y="130.46" class="st7" width="1.01" height="15.43"/>
	<rect x="104.26" y="160.68" class="st7" width="1.01" height="15.43"/>
	<path class="st8" d="M105.95,104.86c0-3.69-2.99-6.69-6.69-6.69s-6.69,2.99-6.69,6.69c0,3.11,2.13,5.72,5,6.46h3.36
		C103.83,110.58,105.95,107.97,105.95,104.86z"/>
	<path class="st8" d="M100.95,111.32h-3.36c0.54,0.14,1.1,0.22,1.68,0.22S100.41,111.46,100.95,111.32z"/>
	<path class="st7" d="M460.04,111.54c-0.58,0-1.14-0.08-1.68-0.22h-4.32v19.14h0.31v15.43h-0.31v14.8h0.31v15.43h-0.31v15.78h12
		v-80.57h-4.32C461.18,111.46,460.62,111.54,460.04,111.54z"/>
	<rect x="454.04" y="130.46" class="st7" width="0.31" height="15.43"/>
	<rect x="454.04" y="160.68" class="st7" width="0.31" height="15.43"/>
	<path class="st8" d="M466.72,104.86c0-3.69-2.99-6.69-6.69-6.69s-6.69,2.99-6.69,6.69c0,3.11,2.13,5.72,5,6.46h3.36
		C464.59,110.58,466.72,107.97,466.72,104.86z"/>
	<path class="st8" d="M461.72,111.32h-3.36c0.54,0.14,1.1,0.22,1.68,0.22S461.18,111.46,461.72,111.32z"/>
</g>
<path class="st9" d="M276.02,138.37c1.58-2.73,5.52-2.73,7.1,0l6.37,11.03l6.37,11.03c1.58,2.73-0.39,6.15-3.55,6.15h-12.74h-12.74
	c-3.16,0-5.13-3.42-3.55-6.15l6.37-11.03L276.02,138.37z"/>
<g>
	<path d="M278.28,154.13l-0.37-5.61c-0.07-1.09-0.11-1.88-0.11-2.35c0-0.65,0.17-1.15,0.51-1.52c0.34-0.36,0.79-0.54,1.34-0.54
		c0.67,0,1.12,0.23,1.35,0.7c0.23,0.46,0.34,1.13,0.34,2.01c0,0.52-0.03,1.04-0.08,1.57l-0.5,5.78c-0.05,0.69-0.17,1.21-0.35,1.58
		c-0.18,0.37-0.48,0.55-0.89,0.55c-0.42,0-0.71-0.18-0.88-0.53C278.47,155.4,278.35,154.85,278.28,154.13z M279.58,161.84
		c-0.48,0-0.89-0.15-1.25-0.46c-0.36-0.31-0.53-0.74-0.53-1.29c0-0.48,0.17-0.9,0.51-1.24c0.34-0.34,0.76-0.51,1.25-0.51
		s0.91,0.17,1.26,0.51c0.35,0.34,0.52,0.75,0.52,1.24c0,0.55-0.18,0.98-0.53,1.29C280.46,161.68,280.05,161.84,279.58,161.84z"/>
</g>
<g>
	<polygon class="st10" points="76.75,187.8 47.38,187.8 47.36,187.87 76.77,187.87 	"/>
	<path class="st10" d="M61.72,146.44c-0.09,0-0.18,0.01-0.26,0.03h0.52C61.9,146.45,61.81,146.44,61.72,146.44z"/>
	<path class="st11" d="M63.09,147.43c-0.17-0.5-0.6-0.86-1.11-0.95h-0.52c-0.51,0.09-0.94,0.46-1.11,0.97l-3,9.35h8.91L63.09,147.43
		z"/>
	<polygon class="st12" points="66.26,156.8 57.35,156.8 54.03,167.13 69.75,167.13 	"/>
	<polygon class="st13" points="69.75,167.13 54.03,167.13 50.71,177.46 73.25,177.46 	"/>
	<polygon class="st14" points="73.25,177.46 50.71,177.46 47.38,187.8 76.75,187.8 	"/>
	<path class="st13" d="M78.9,187.87H45.23c-1.07,0-1.94,0.87-1.94,1.94c0,1.07,0.87,1.94,1.94,1.94H78.9c1.07,0,1.94-0.87,1.94-1.94
		C80.84,188.74,79.97,187.87,78.9,187.87z"/>
</g>
<g>
	<polygon class="st10" points="33.46,187.8 4.09,187.8 4.07,187.87 33.48,187.87 	"/>
	<path class="st10" d="M18.43,146.44c-0.09,0-0.18,0.01-0.26,0.03h0.52C18.61,146.45,18.52,146.44,18.43,146.44z"/>
	<path class="st11" d="M19.8,147.43c-0.17-0.5-0.6-0.86-1.11-0.95h-0.52c-0.51,0.09-0.94,0.46-1.11,0.97l-3,9.35h8.91L19.8,147.43z"
		/>
	<polygon class="st12" points="22.97,156.8 14.06,156.8 10.73,167.13 26.46,167.13 	"/>
	<polygon class="st13" points="26.46,167.13 10.73,167.13 7.42,177.46 29.96,177.46 	"/>
	<polygon class="st14" points="29.96,177.46 7.42,177.46 4.09,187.8 33.46,187.8 	"/>
	<path class="st13" d="M35.61,187.87H1.94c-1.07,0-1.94,0.87-1.94,1.94c0,1.07,0.87,1.94,1.94,1.94h33.67
		c1.07,0,1.94-0.87,1.94-1.94C37.55,188.74,36.68,187.87,35.61,187.87z"/>
</g>
<g>
	<polygon class="st10" points="479.19,186.33 491.41,159.62 491.35,159.57 479.12,186.32 	"/>
	<path class="st10" d="M523.05,189.86c0.04-0.08,0.07-0.17,0.08-0.25l-0.22,0.47C522.97,190.02,523.01,189.94,523.05,189.86z"/>
	<path class="st11" d="M521.59,190.7c0.53,0.05,1.04-0.19,1.33-0.62l0.22-0.47c0.13-0.51-0.03-1.04-0.43-1.41l-7.26-6.62l-3.71,8.11
		L521.59,190.7z"/>
	<polygon class="st12" points="511.75,189.68 515.45,181.58 507.44,174.26 500.9,188.56 	"/>
	<polygon class="st13" points="500.9,188.56 507.44,174.26 499.42,166.94 490.05,187.44 	"/>
	<polygon class="st14" points="490.05,187.44 499.42,166.94 491.41,159.62 479.19,186.33 	"/>
	<path class="st13" d="M478.23,188.25l14.01-30.62c0.44-0.97,0.02-2.12-0.96-2.57s-2.12-0.02-2.57,0.96l-14.01,30.62
		c-0.44,0.97-0.02,2.12,0.96,2.57S477.79,189.23,478.23,188.25z"/>
</g>
<rect x="35.53" y="12.61" class="st9" width="146.27" height="64.29"/>
<g>
	<path class="st0" d="M104.18,33.81c-0.97,0-1.87,0.69-2.15,1.76c-0.05,0.18-0.1,0.39-0.1,0.58v1.34c0,0.21,0.03,0.4,0.06,0.58
		c0.26,0.98,1.11,1.66,2.13,1.66c1.5,0,2.37-1.23,2.37-3.02C106.51,35.15,105.68,33.81,104.18,33.81z"/>
	<path class="st0" d="M110.52,38.44c0,0.92,0.61,1.36,1.34,1.36c1.02,0,1.66-0.65,1.89-1.31c0.05-0.15,0.08-0.31,0.08-0.45v-1.36
		C112.28,36.65,110.52,36.93,110.52,38.44z"/>
	<path class="st0" d="M99.51,49.48c-1.68,0-2.4,1.55-2.4,3.03c0,1.71,0.98,3,2.37,3c1.36,0,2.37-1.28,2.37-3.03
		C101.85,51.16,101.19,49.48,99.51,49.48z"/>
	<path class="st0" d="M120.69,33.8c-1.36,0-2.32,1.15-2.32,2.95c0,1.53,0.77,2.81,2.31,2.81c0.87,0,1.66-0.55,1.97-1.45
		c0.08-0.24,0.11-0.52,0.11-0.76v-1.4c0-0.24-0.02-0.45-0.08-0.65C122.42,34.47,121.72,33.8,120.69,33.8z"/>
	<path class="st0" d="M129.5,33.7c-1.44,0-2.07,1.32-2.18,2.31h4.15C131.49,35.1,131.1,33.7,129.5,33.7z"/>
	<path class="st0" d="M75.31,49.43c-1.44,0-2.07,1.32-2.18,2.31h4.15C77.29,50.84,76.9,49.43,75.31,49.43z"/>
	<path class="st0" d="M66.43,49.53c-1.47,0-2.34,1.29-2.34,3.02c0,1.58,0.78,2.89,2.31,2.89c0.95,0,1.82-0.63,2.08-1.69
		c0.05-0.19,0.06-0.39,0.06-0.61v-1.36c0-0.18-0.02-0.42-0.06-0.6C68.27,50.27,67.5,49.53,66.43,49.53z"/>
	<path class="st0" d="M92.02,33.7c-1.44,0-2.07,1.32-2.18,2.31h4.15C94,35.1,93.61,33.7,92.02,33.7z"/>
	<path class="st0" d="M159.78,49.48c-1.68,0-2.4,1.55-2.4,3.03c0,1.71,0.98,3,2.37,3c1.36,0,2.37-1.28,2.37-3.03
		C162.12,51.16,161.46,49.48,159.78,49.48z"/>
	<polygon points="70.97,30.99 74.28,30.99 74.28,40.67 75.7,40.67 75.7,30.99 79.03,30.99 79.03,29.79 70.97,29.79 	"/>
	<path d="M84,32.68c-0.53,0-1.03,0.16-1.45,0.4c-0.44,0.24-0.79,0.6-1.02,1h-0.03v-4.87h-1.42v11.46h1.42v-4.71
		c0-0.27,0.02-0.48,0.1-0.68c0.26-0.77,0.98-1.42,1.9-1.42c1.34,0,1.81,1.07,1.81,2.32v4.49h1.42v-4.65
		C86.72,33.33,85.05,32.68,84,32.68z"/>
	<path d="M92.13,32.68c-2.28,0-3.66,1.86-3.66,4.21c0,2.36,1.44,3.94,3.84,3.94c1.24,0,2.1-0.26,2.6-0.48l-0.24-1.02
		c-0.53,0.23-1.15,0.4-2.16,0.4c-1.42,0-2.65-0.79-2.68-2.71h5.49c0.02-0.15,0.05-0.37,0.05-0.66
		C95.36,34.93,94.68,32.68,92.13,32.68z M89.84,36.01c0.11-0.98,0.74-2.31,2.18-2.31c1.6,0,1.99,1.4,1.97,2.31H89.84z"/>
	<path d="M107.93,36.65c0-2.37-1.42-3.97-3.31-3.97c-1.28,0-2.19,0.56-2.78,1.52h-0.03l-0.06-1.34h-1.28
		c0.03,0.74,0.06,1.55,0.06,2.55v8.46h1.4v-4.24h0.03c0.47,0.77,1.37,1.23,2.4,1.23C106.22,40.85,107.93,39.46,107.93,36.65z
		 M104.13,39.74c-1.02,0-1.87-0.68-2.13-1.66c-0.03-0.18-0.06-0.37-0.06-0.58v-1.34c0-0.19,0.05-0.4,0.1-0.58
		c0.27-1.07,1.18-1.76,2.15-1.76c1.5,0,2.32,1.34,2.32,2.91C106.51,38.51,105.63,39.74,104.13,39.74z"/>
	<path d="M113.93,39.69l0.11,0.98h1.29c-0.1-0.53-0.13-1.19-0.13-1.87v-2.92c0-1.57-0.58-3.2-2.97-3.2c-0.98,0-1.92,0.27-2.57,0.69
		l0.32,0.94c0.55-0.35,1.31-0.58,2.03-0.58c1.6,0,1.78,1.16,1.78,1.81v0.16c-3.02-0.02-4.7,1.02-4.7,2.9c0,1.13,0.81,2.24,2.39,2.24
		c1.11,0,1.95-0.55,2.39-1.16H113.93z M113.83,38.04c0,0.15-0.03,0.31-0.08,0.45c-0.23,0.66-0.87,1.31-1.89,1.31
		c-0.73,0-1.34-0.44-1.34-1.36c0-1.52,1.76-1.79,3.31-1.76V38.04z"/>
	<path d="M122.92,34.04h-0.03c-0.34-0.65-1.08-1.36-2.44-1.36c-1.79,0-3.52,1.5-3.52,4.15c0,2.16,1.39,3.81,3.32,3.81
		c1.21,0,2.05-0.58,2.49-1.31h0.03v0.87c0,1.97-1.07,2.73-2.52,2.73c-0.97,0-1.78-0.29-2.29-0.61l-0.35,1.08
		c0.63,0.42,1.66,0.65,2.6,0.65c0.98,0,2.08-0.23,2.84-0.94c0.76-0.68,1.11-1.78,1.11-3.57v-4.54c0-0.95,0.03-1.58,0.06-2.15h-1.24
		L122.92,34.04z M122.76,37.35c0,0.24-0.03,0.52-0.11,0.76c-0.31,0.9-1.1,1.45-1.97,1.45c-1.53,0-2.31-1.27-2.31-2.81
		c0-1.81,0.97-2.95,2.32-2.95c1.03,0,1.73,0.68,1.99,1.5c0.06,0.19,0.08,0.4,0.08,0.65V37.35z"/>
	<path d="M132.15,39.33c-0.53,0.23-1.15,0.4-2.16,0.4c-1.42,0-2.65-0.79-2.68-2.71h5.49c0.02-0.15,0.05-0.37,0.05-0.66
		c0-1.44-0.68-3.68-3.23-3.68c-2.28,0-3.66,1.86-3.66,4.21c0,2.36,1.44,3.94,3.84,3.94c1.24,0,2.1-0.26,2.6-0.48L132.15,39.33z
		 M129.5,33.7c1.6,0,1.99,1.4,1.97,2.31h-4.15C127.43,35.02,128.06,33.7,129.5,33.7z"/>
	<rect x="138.02" y="32.86" width="1.42" height="7.81"/>
	<path d="M138.7,31.54c0.56,0,0.92-0.39,0.9-0.87c0-0.5-0.34-0.89-0.87-0.89c-0.52,0-0.89,0.39-0.89,0.89
		C137.84,31.15,138.2,31.54,138.7,31.54z"/>
	<path d="M144.31,36.14c-1.02-0.39-1.48-0.68-1.48-1.32c0-0.58,0.47-1.07,1.31-1.07c0.73,0,1.29,0.26,1.6,0.45l0.35-1.03
		c-0.44-0.26-1.13-0.48-1.92-0.48c-1.68,0-2.7,1.03-2.7,2.29c0,0.94,0.66,1.71,2.07,2.21c1.05,0.39,1.45,0.76,1.45,1.44
		c0,0.65-0.48,1.16-1.52,1.16c-0.71,0-1.45-0.29-1.87-0.57l-0.36,1.08c0.55,0.32,1.34,0.53,2.2,0.53c1.86,0,2.92-0.97,2.92-2.34
		C146.36,37.33,145.67,36.65,144.31,36.14z"/>
	<path d="M51.91,48.59h-1.42v4.79c0,0.26-0.05,0.52-0.13,0.73c-0.26,0.63-0.92,1.29-1.87,1.29c-1.29,0-1.74-1-1.74-2.49v-4.33h-1.42
		v4.57c0,2.74,1.47,3.42,2.7,3.42c1.39,0,2.21-0.82,2.58-1.45h0.03l0.08,1.28h1.26c-0.05-0.61-0.06-1.32-0.06-2.13V48.59z"/>
	<path d="M58.15,48.42c-1.29,0-2.19,0.73-2.58,1.47h-0.03l-0.08-1.29H54.2c0.05,0.65,0.06,1.31,0.06,2.11v5.7h1.42v-4.7
		c0-0.24,0.03-0.48,0.1-0.66c0.24-0.79,0.97-1.45,1.9-1.45c1.34,0,1.81,1.05,1.81,2.31v4.5h1.42v-4.66
		C60.91,49.06,59.23,48.42,58.15,48.42z"/>
	<path d="M69.97,44.95h-1.42v4.66h-0.03c-0.36-0.63-1.16-1.19-2.36-1.19c-1.9,0-3.52,1.6-3.5,4.2c0,2.37,1.45,3.97,3.34,3.97
		c1.27,0,2.23-0.66,2.66-1.53h0.03l0.06,1.36h1.28c-0.05-0.53-0.06-1.32-0.06-2.02V44.95z M68.54,53.13c0,0.23-0.02,0.42-0.06,0.61
		c-0.26,1.07-1.13,1.69-2.08,1.69c-1.53,0-2.31-1.31-2.31-2.89c0-1.73,0.87-3.02,2.34-3.02c1.07,0,1.84,0.74,2.05,1.65
		c0.05,0.18,0.06,0.42,0.06,0.6V53.13z"/>
	<path d="M75.42,48.42c-2.28,0-3.66,1.86-3.66,4.21s1.44,3.94,3.84,3.94c1.24,0,2.1-0.26,2.6-0.48l-0.24-1.02
		c-0.53,0.23-1.15,0.4-2.16,0.4c-1.42,0-2.65-0.79-2.68-2.71h5.49c0.02-0.15,0.05-0.37,0.05-0.66
		C78.65,50.66,77.97,48.42,75.42,48.42z M73.13,51.74c0.11-0.98,0.74-2.31,2.18-2.31c1.6,0,1.98,1.4,1.97,2.31H73.13z"/>
	<path d="M81.7,50.13h-0.06l-0.05-1.53h-1.24c0.05,0.73,0.07,1.52,0.07,2.44v5.37h1.4v-4.16c0-0.24,0.03-0.47,0.06-0.66
		c0.19-1.07,0.9-1.82,1.9-1.82c0.19,0,0.34,0.02,0.48,0.05v-1.34c-0.13-0.03-0.24-0.05-0.4-0.05C82.91,48.42,82.05,49.08,81.7,50.13
		z"/>
	<path d="M92.73,49.56c0.77,0,1.31,0.18,1.65,0.37l0.32-1.1c-0.39-0.19-1.13-0.4-1.97-0.4c-2.55,0-4.2,1.74-4.2,4.15
		c0,2.39,1.53,3.99,3.89,3.99c1.05,0,1.87-0.26,2.24-0.45l-0.24-1.07c-0.4,0.18-0.94,0.39-1.74,0.39c-1.55,0-2.71-1.11-2.71-2.92
		C89.97,50.89,90.94,49.56,92.73,49.56z"/>
	<path d="M99.54,48.42c-2.16,0-3.87,1.53-3.87,4.15c0,2.47,1.63,4.02,3.74,4.02c1.89,0,3.89-1.26,3.89-4.15
		C103.3,50.05,101.79,48.42,99.54,48.42z M99.48,55.52c-1.39,0-2.37-1.29-2.37-3c0-1.48,0.73-3.03,2.4-3.03c1.68,0,2.34,1.68,2.34,3
		C101.85,54.24,100.83,55.52,99.48,55.52z"/>
	<path d="M108.98,48.42c-1.29,0-2.19,0.73-2.58,1.47h-0.03l-0.08-1.29h-1.26c0.05,0.65,0.06,1.31,0.06,2.11v5.7h1.42v-4.7
		c0-0.24,0.03-0.48,0.1-0.66c0.24-0.79,0.97-1.45,1.9-1.45c1.34,0,1.81,1.05,1.81,2.31v4.5h1.42v-4.66
		C111.74,49.06,110.06,48.42,108.98,48.42z"/>
	<path d="M116.57,51.87c-1.02-0.39-1.48-0.68-1.48-1.32c0-0.58,0.47-1.07,1.31-1.07c0.73,0,1.29,0.26,1.6,0.45l0.35-1.03
		c-0.44-0.26-1.13-0.48-1.92-0.48c-1.68,0-2.7,1.03-2.7,2.29c0,0.94,0.66,1.71,2.07,2.21c1.05,0.39,1.45,0.76,1.45,1.44
		c0,0.65-0.48,1.16-1.52,1.16c-0.71,0-1.45-0.29-1.87-0.57l-0.36,1.08c0.55,0.32,1.34,0.53,2.19,0.53c1.86,0,2.92-0.97,2.92-2.34
		C118.62,53.07,117.92,52.39,116.57,51.87z"/>
	<path d="M122.15,46.35l-1.39,0.37v1.87h-1.21v1.08h1.21v4.26c0,0.92,0.14,1.61,0.55,2.03c0.34,0.39,0.87,0.6,1.53,0.6
		c0.55,0,0.98-0.08,1.26-0.19l-0.07-1.07c-0.18,0.05-0.45,0.1-0.82,0.1c-0.79,0-1.07-0.55-1.07-1.52v-4.21h2.03v-1.08h-2.03V46.35z"
		/>
	<path d="M127.07,50.13h-0.06l-0.05-1.53h-1.24c0.05,0.73,0.07,1.52,0.07,2.44v5.37h1.4v-4.16c0-0.24,0.03-0.47,0.06-0.66
		c0.19-1.07,0.9-1.82,1.9-1.82c0.19,0,0.34,0.02,0.48,0.05v-1.34c-0.13-0.03-0.24-0.05-0.4-0.05
		C128.28,48.42,127.43,49.08,127.07,50.13z"/>
	<path d="M137.59,48.59h-1.42v4.79c0,0.26-0.05,0.52-0.13,0.73c-0.26,0.63-0.92,1.29-1.87,1.29c-1.29,0-1.74-1-1.74-2.49v-4.33
		h-1.42v4.57c0,2.74,1.47,3.42,2.7,3.42c1.39,0,2.21-0.82,2.58-1.45h0.03l0.08,1.28h1.26c-0.05-0.61-0.06-1.32-0.06-2.13V48.59z"/>
	<path d="M143.58,49.56c0.77,0,1.31,0.18,1.65,0.37l0.32-1.1c-0.39-0.19-1.13-0.4-1.97-0.4c-2.55,0-4.2,1.74-4.2,4.15
		c0,2.39,1.53,3.99,3.89,3.99c1.05,0,1.87-0.26,2.24-0.45l-0.24-1.07c-0.4,0.18-0.94,0.39-1.74,0.39c-1.55,0-2.71-1.11-2.71-2.92
		C140.82,50.89,141.79,49.56,143.58,49.56z"/>
	<path d="M149.1,46.35l-1.39,0.37v1.87h-1.21v1.08h1.21v4.26c0,0.92,0.14,1.61,0.55,2.03c0.34,0.39,0.87,0.6,1.53,0.6
		c0.55,0,0.98-0.08,1.26-0.19l-0.07-1.07c-0.18,0.05-0.45,0.1-0.82,0.1c-0.79,0-1.07-0.55-1.07-1.52v-4.21h2.03v-1.08h-2.03V46.35z"
		/>
	<rect x="152.73" y="48.59" width="1.42" height="7.81"/>
	<path d="M153.44,45.51c-0.52,0-0.89,0.39-0.89,0.89c0,0.48,0.35,0.87,0.86,0.87c0.56,0,0.92-0.39,0.9-0.87
		C154.31,45.9,153.97,45.51,153.44,45.51z"/>
	<path d="M159.81,48.42c-2.16,0-3.87,1.53-3.87,4.15c0,2.47,1.63,4.02,3.74,4.02c1.89,0,3.89-1.26,3.89-4.15
		C163.57,50.05,162.06,48.42,159.81,48.42z M159.75,55.52c-1.39,0-2.37-1.29-2.37-3c0-1.48,0.73-3.03,2.4-3.03s2.34,1.68,2.34,3
		C162.12,54.24,161.1,55.52,159.75,55.52z"/>
	<path d="M169.25,48.42c-1.29,0-2.19,0.73-2.58,1.47h-0.03l-0.08-1.29h-1.26c0.05,0.65,0.06,1.31,0.06,2.11v5.7h1.42v-4.7
		c0-0.24,0.03-0.48,0.1-0.66c0.24-0.79,0.97-1.45,1.9-1.45c1.34,0,1.81,1.05,1.81,2.31v4.5h1.42v-4.66
		C172.01,49.06,170.33,48.42,169.25,48.42z"/>
</g>
</svg>