<!-- Generator: Adobe Illustrator 24.0.0, SVG Export Plug-In  -->
<svg version="1.1" xmlns="http://www.w3.org/2000/svg" xmlns:xlink="http://www.w3.org/1999/xlink" x="0px" y="0px" width="797px"
	 height="797px" viewBox="0 0 797 797" style="enable-background:new 0 0 797 797;" xml:space="preserve">
<style type="text/css">
	.st0{fill:#25C3F4;}
	.st1{fill:#0998AF;stroke:#000000;stroke-width:3;stroke-miterlimit:10;}
	.st2{fill:#F0FF31;}
	.st3{fill:#DDDDDD;}
	.st4{fill:#B77500;}
	.st5{fill:#FFFFFF;}
</style>
<defs>
</defs>
<g>
	<circle class="st0" cx="398.5" cy="398.5" r="393.64"/>
	<path d="M398.5,797c-106.44,0-206.52-41.45-281.78-116.72S0,504.94,0,398.5s41.45-206.52,116.72-281.78S292.06,0,398.5,0
		s206.52,41.45,281.78,116.72C755.55,191.98,797,292.06,797,398.5s-41.45,206.52-116.72,281.78C605.02,755.55,504.94,797,398.5,797z
		 M398.5,9.72C184.13,9.72,9.72,184.13,9.72,398.5c0,214.38,174.41,388.78,388.78,388.78S787.28,612.88,787.28,398.5
		C787.28,184.13,612.87,9.72,398.5,9.72z"/>
</g>
<circle class="st1" cx="398.5" cy="396.02" r="213.02"/>
<g>
	<path d="M67.93,450.18l4.02,9.59l7.49-8.68l3.57,3.46l-8.54,7.6l10.8,3.85l-1.98,4.56l-10.23-5.18l-0.05,10.47l-4.89-0.74
		l1.72-10.27l-10.92,3.03l-1-5.03l11.25-1.35l-5.51-8.88L67.93,450.18z"/>
	<path d="M64.35,415.66l3,9.96l8.36-7.85l3.18,3.82l-9.29,6.67l10.34,4.96l-2.44,4.33l-9.64-6.22l-1.15,10.41l-4.78-1.24l2.78-10.03
		l-11.18,1.87l-0.47-5.11l11.33-0.17l-4.55-9.4L64.35,415.66z"/>
	<path d="M64.39,380.96l1.94,10.21l9.13-6.94l2.77,4.13l-9.93,5.66l9.77,6.01l-2.88,4.05l-8.93-7.19l-2.22,10.23l-4.62-1.74
		l3.82-9.69l-11.31,0.7l0.07-5.13l11.29,1.01l-3.55-9.83L64.39,380.96z"/>
	<path d="M68.02,346.49l0.87,10.36l9.8-5.95l2.33,4.39l-10.46,4.6l9.09,6.99l-3.29,3.73l-8.14-8.08l-3.27,9.95l-4.42-2.21l4.8-9.24
		l-11.32-0.48l0.6-5.09l11.12,2.18l-2.51-10.14L68.02,346.49z"/>
	<path d="M124.63,189.2l-4.02-3.7l45.87-47.58l3.64,4.21L124.63,189.2z M166.67,159.23c1.59-0.52,3.26-0.68,5.01-0.47
		c1.74,0.21,3.45,0.64,5.12,1.3c1.67,0.66,3.24,1.47,4.7,2.44c1.47,0.96,2.73,1.93,3.79,2.91c1.35,1.24,2.55,2.63,3.59,4.17
		c1.05,1.54,1.89,3.17,2.55,4.89c0.65,1.73,1.1,3.51,1.34,5.35c0.24,1.84,0.23,3.68-0.03,5.53c-0.26,1.84-0.81,3.65-1.63,5.42
		c-0.82,1.77-1.96,3.45-3.42,5.04c-1.68,1.82-3.54,3.26-5.57,4.32c-2.04,1.06-4.18,1.81-6.43,2.27s-4.58,0.65-6.99,0.59
		c-2.4-0.06-4.8-0.31-7.2-0.74c-2.4-0.44-4.75-1.01-7.06-1.72c-2.31-0.71-4.51-1.48-6.58-2.32c-2.08-0.83-4.01-1.69-5.79-2.58
		c-1.78-0.88-3.33-1.71-4.64-2.48l0.46-5.39l0.15-0.16c3.1,1.61,6.17,3.06,9.21,4.35c3.04,1.3,5.99,2.37,8.86,3.22
		c2.87,0.85,5.63,1.47,8.27,1.85c2.65,0.38,5.13,0.47,7.46,0.27c2.32-0.2,4.46-0.72,6.39-1.57c1.94-0.84,3.64-2.06,5.1-3.64
		c1.61-1.75,2.69-3.66,3.25-5.73c0.56-2.07,0.68-4.13,0.37-6.2c-0.31-2.06-0.97-4.05-2-5.95c-1.03-1.9-2.32-3.57-3.86-5
		c-1.02-0.94-2.13-1.74-3.32-2.4c-1.19-0.66-2.45-1.16-3.76-1.49c0.59,1.42,0.88,2.9,0.9,4.46c0.01,1.56-0.2,3.11-0.65,4.66
		c-0.44,1.54-1.09,3.05-1.94,4.5c-0.85,1.46-1.83,2.79-2.94,3.99c-1.19,1.3-2.49,2.4-3.9,3.31c-1.41,0.91-2.86,1.53-4.36,1.85
		c-1.49,0.33-2.99,0.32-4.47-0.02c-1.49-0.34-2.89-1.12-4.2-2.33c-1.02-0.94-1.81-1.97-2.35-3.1c-0.55-1.13-0.87-2.25-0.96-3.38
		c-0.09-1.13,0.04-2.23,0.4-3.29c0.36-1.07,0.92-2.02,1.7-2.86c0.77-0.84,1.68-1.49,2.71-1.95c1.03-0.46,2.09-0.74,3.18-0.82
		c1.08-0.08,2.15,0.05,3.21,0.38c1.06,0.33,2,0.88,2.82,1.63c0.71,0.65,1.27,1.4,1.67,2.25c0.4,0.84,0.66,1.66,0.78,2.44l0.61,0.11
		c1.01-1.36,1.68-2.77,1.99-4.23c0.32-1.46,0.41-2.94,0.28-4.45c-0.13-1.5-0.41-3-0.84-4.49c-0.43-1.49-0.87-2.94-1.31-4.36
		L166.67,159.23z"/>
	<path d="M179.65,141.42c-0.49-0.59-1.08-1.05-1.75-1.37c-0.67-0.32-1.39-0.51-2.14-0.56c-0.75-0.05-1.51,0.05-2.28,0.31
		c-0.77,0.26-1.5,0.67-2.18,1.24l-1.26,1.05l-3.5-4.19l1.25-1.05c0.46-0.38,1.02-0.78,1.69-1.19c0.67-0.41,1.42-0.78,2.25-1.1
		c0.83-0.32,1.71-0.57,2.64-0.75c0.93-0.18,1.88-0.24,2.84-0.17l-0.19-0.23c-0.6-0.72-0.94-1.46-1-2.22
		c-0.06-0.75,0.17-1.35,0.7-1.8l7.76-7.36l3.06,4.6l0,0c-0.9,1.13-1.86,2.22-2.82,3.31c-0.32,0.36-0.58,0.74-0.81,1.15
		c-0.39,0.71-0.64,1.45-0.74,2.22c-0.1,0.76-0.06,1.51,0.13,2.24s0.53,1.39,1.02,1.98l28.4,34.01l-4.68,3.91L179.65,141.42z"/>
	<path d="M187.41,126.68l-3.03-4.55l32.26-21.44c-1.1-1.12-2.16-1.91-3.18-2.4c-1.02-0.48-2-0.73-2.95-0.74
		c-0.94-0.01-1.86,0.17-2.75,0.53c-0.89,0.37-1.74,0.82-2.57,1.37c-0.95,0.63-1.88,1.35-2.79,2.15c-0.91,0.8-1.84,1.64-2.77,2.51
		c-0.94,0.87-1.91,1.75-2.93,2.61c-1.02,0.87-2.1,1.69-3.26,2.46c-2.4,1.59-4.64,2.6-6.72,3.02c-2.09,0.42-4.02,0.4-5.79-0.05
		c-1.77-0.46-3.39-1.28-4.85-2.47c-1.46-1.19-2.77-2.6-3.95-4.23l5.08-3.38c1.23,1.71,2.44,2.89,3.64,3.54
		c1.2,0.65,2.35,0.97,3.45,0.96c1.1,0,2.13-0.24,3.1-0.7c0.97-0.47,1.84-0.95,2.6-1.46c1.22-0.81,2.32-1.64,3.32-2.5
		c1-0.85,1.96-1.71,2.88-2.58s1.86-1.71,2.8-2.53c0.94-0.82,1.96-1.59,3.06-2.32c2.17-1.44,4.19-2.36,6.08-2.74
		c1.88-0.39,3.64-0.39,5.26-0.01c1.62,0.38,3.12,1.07,4.5,2.07s2.65,2.18,3.81,3.52l6.41-3.43l2.64,4.93l-30.86,19.55l16.28,24.49
		c1.07,1.61,2.16,2.95,3.28,4.03c1.12,1.07,2.22,1.95,3.31,2.62c1.09,0.68,2.12,1.17,3.11,1.48c0.98,0.32,1.87,0.52,2.68,0.61
		c0.81,0.09,1.49,0.09,2.05,0c0.56-0.09,0.96-0.21,1.19-0.37c0.93-0.62,1.77-1.44,2.53-2.46c0.76-1.03,1.4-2.19,1.91-3.5
		c0.51-1.31,0.89-2.73,1.14-4.26c0.25-1.53,0.31-3.09,0.19-4.68c-0.12-1.59-0.43-3.18-0.93-4.78s-1.24-3.14-2.21-4.6
		c-0.68-1.03-1.47-1.99-2.34-2.89c-0.87-0.89-1.86-1.69-2.95-2.39l-0.3,0.29c0.3,0.45,0.53,1.01,0.7,1.66
		c0.16,0.65,0.21,1.33,0.13,2.04c-0.08,0.71-0.31,1.41-0.7,2.1c-0.39,0.69-0.99,1.3-1.79,1.84c-0.74,0.49-1.51,0.82-2.3,0.97
		c-0.79,0.15-1.55,0.15-2.28,0c-0.73-0.16-1.41-0.45-2.03-0.88c-0.63-0.43-1.15-0.97-1.58-1.61c-0.34-0.52-0.63-1.15-0.87-1.92
		c-0.24-0.76-0.3-1.59-0.18-2.49c0.12-0.9,0.48-1.82,1.08-2.77c0.6-0.95,1.57-1.87,2.92-2.77c1.71-1.14,3.39-1.77,5.02-1.91
		c1.64-0.14,3.19,0.08,4.65,0.66c1.47,0.57,2.82,1.42,4.06,2.55c1.24,1.12,2.32,2.38,3.24,3.76c1.1,1.65,2,3.45,2.72,5.4
		c0.72,1.95,1.21,3.95,1.5,6.01c0.28,2.06,0.33,4.13,0.14,6.22c-0.19,2.09-0.64,4.1-1.35,6.03c-0.71,1.93-1.7,3.73-2.97,5.41
		c-1.27,1.67-2.84,3.14-4.72,4.39c-0.29,0.19-0.84,0.4-1.65,0.63c-0.81,0.23-1.81,0.35-3,0.36c-1.18,0.01-2.51-0.12-3.99-0.4
		c-1.48-0.28-3.03-0.84-4.65-1.69c-1.62-0.84-3.27-2.01-4.94-3.5c-1.68-1.49-3.3-3.42-4.88-5.8l-16.28-24.49L187.41,126.68z"/>
	<path d="M240.21,100.37c-0.35-0.68-0.82-1.25-1.41-1.72c-0.59-0.46-1.25-0.8-1.97-1.01c-0.72-0.21-1.49-0.27-2.3-0.19
		c-0.81,0.08-1.61,0.33-2.4,0.74l-1.45,0.75l-2.52-5.04l1.45-0.56c0.53-0.27,1.16-0.54,1.91-0.8c0.75-0.26,1.56-0.46,2.44-0.59
		c0.88-0.14,1.79-0.19,2.74-0.17c0.95,0.03,1.88,0.18,2.81,0.45l-0.14-0.26c-0.43-0.84-0.6-1.63-0.5-2.38
		c0.1-0.75,0.46-1.28,1.07-1.6l7.49-3.88l2.52,4.85l-1.35,0.7c-0.79,0.41-1.46,0.92-1.99,1.54c-0.53,0.61-0.93,1.28-1.2,2
		c-0.27,0.72-0.39,1.46-0.36,2.22c0.03,0.75,0.22,1.47,0.57,2.15l20.39,39.34l-5.41,2.8L240.21,100.37z"/>
	<path d="M283.45,75l-33.57,13.92l-2.57-4.71l49.2-19.37l1.42,5.28l-8.8,2.65l18.75,47.91l-3.39,1.33
		c-1.49-1.57-3.21-2.99-5.16-4.27c-1.95-1.27-4.02-2.39-6.22-3.35c-2.2-0.96-4.46-1.77-6.79-2.41c-2.33-0.65-4.61-1.15-6.84-1.52
		c-2.23-0.36-4.35-0.58-6.37-0.66c-2.01-0.08-3.8-0.01-5.37,0.2l-2.91-7.44c1.2-1.69,2.53-3.55,4-5.58
		c1.47-2.02,3.08-4.05,4.83-6.08c1.75-2.03,3.61-3.96,5.59-5.8c1.98-1.84,4.08-3.42,6.31-4.74L283.45,75z M297.09,109.83l-9.3-23.75
		c-0.9,0.49-1.87,1.17-2.91,2.06c-1.04,0.88-2.08,1.88-3.14,2.99c-1.06,1.11-2.1,2.27-3.13,3.48c-1.03,1.21-1.99,2.38-2.9,3.51
		c-0.9,1.12-1.71,2.17-2.42,3.14s-1.27,1.75-1.68,2.33l0.3,0.76c3.92-0.12,8,0.26,12.24,1.14c4.24,0.88,8.49,2.35,12.73,4.42
		L297.09,109.83z M277.62,123.03c-0.24-0.62-0.35-1.25-0.33-1.87c0.02-0.62,0.16-1.2,0.39-1.75c0.24-0.55,0.58-1.04,1.02-1.48
		c0.44-0.44,0.97-0.78,1.59-1.02c0.62-0.25,1.24-0.36,1.87-0.33c0.62,0.02,1.2,0.15,1.75,0.39c0.55,0.24,1.04,0.58,1.48,1.02
		c0.44,0.44,0.78,0.97,1.02,1.6c0.24,0.62,0.35,1.24,0.33,1.87c-0.02,0.62-0.16,1.2-0.39,1.75c-0.24,0.55-0.58,1.04-1.02,1.48
		c-0.44,0.44-0.97,0.78-1.59,1.02c-0.62,0.24-1.25,0.36-1.87,0.33c-0.62-0.02-1.21-0.15-1.75-0.39c-0.55-0.24-1.04-0.58-1.48-1.02
		C278.21,124.19,277.87,123.66,277.62,123.03z"/>
	<path d="M306.97,73.57c-0.2-0.74-0.54-1.4-1.02-1.97c-0.48-0.58-1.05-1.04-1.71-1.4c-0.66-0.36-1.4-0.58-2.21-0.67
		c-0.81-0.09-1.64-0.01-2.5,0.22l-1.58,0.43l-1.44-5.27l1.58-0.43c0.57-0.16,1.25-0.28,2.03-0.38c0.78-0.1,1.62-0.12,2.51-0.07
		c0.89,0.05,1.79,0.19,2.71,0.41c0.92,0.22,1.81,0.57,2.65,1.03l-0.08-0.29c-0.25-0.91-0.25-1.72,0.01-2.43
		c0.25-0.71,0.72-1.16,1.39-1.34l8.14-2.22l1.44,5.27l-1.47,0.4c-0.86,0.23-1.62,0.6-2.27,1.08c-0.65,0.49-1.18,1.06-1.6,1.71
		c-0.41,0.65-0.68,1.35-0.81,2.09c-0.13,0.74-0.1,1.49,0.11,2.23l11.67,42.75l-5.88,1.61L306.97,73.57z"/>
	<path d="M368.44,95.5c-1.33,0.1-2.52-0.01-3.57-0.33c-1.04-0.32-1.94-0.77-2.68-1.36c-0.74-0.59-1.31-1.29-1.72-2.09
		c-0.41-0.8-0.65-1.63-0.71-2.5c-0.07-0.96,0.06-1.93,0.4-2.9c0.34-0.97,0.87-1.86,1.61-2.66c0.73-0.8,1.66-1.47,2.77-2.02
		c1.11-0.54,2.41-0.87,3.89-0.99c0.62-0.05,1.19-0.05,1.71,0c0.53,0.05,1.16,0.17,1.89,0.36c-0.24-2.54-0.73-4.74-1.45-6.58
		c-0.72-1.85-1.6-3.42-2.61-4.72c-1.02-1.3-2.14-2.37-3.38-3.21s-2.48-1.52-3.75-2.05c-1.27-0.52-2.51-0.93-3.73-1.21
		c-1.21-0.28-2.31-0.52-3.3-0.72l-0.37-4.86l-9.82,0.75l-0.41-5.45l61.39-3.43l-0.35,5.26l-10.66-0.18l3.89,51.3l-3.63,0.28
		c-0.79-1.63-1.81-3.22-3.05-4.78c-1.24-1.56-2.6-3.04-4.08-4.44c-1.49-1.4-3.05-2.71-4.7-3.91c-1.64-1.2-3.29-2.27-4.92-3.19
		c-0.73,1.6-1.86,2.89-3.42,3.89C372.14,94.78,370.39,95.36,368.44,95.5z M390.35,92.39l-2.83-37.29l-28.69,2.18
		c3.39,1.11,6.26,2.54,8.62,4.3c2.36,1.76,4.29,3.78,5.81,6.07c1.52,2.28,2.66,4.79,3.44,7.53c0.78,2.74,1.29,5.65,1.52,8.74
		c2.07,1.11,4.11,2.37,6.1,3.79c1.99,1.42,3.93,2.98,5.8,4.71L390.35,92.39z"/>
	<path d="M404.12,54.89l0.36-5.26l33.83,2.06l-0.36,5.45l-8.16-0.54c-2.3,0.67-4.31,1.79-6.02,3.36c-1.71,1.58-3.15,3.45-4.32,5.62
		c-1.18,2.17-2.09,4.54-2.75,7.12c-0.65,2.58-1.07,5.19-1.25,7.83c-0.12,1.81-0.13,3.6-0.04,5.38c0.09,1.78,0.28,3.49,0.57,5.12
		c0.29,1.63,0.68,3.17,1.16,4.62c0.49,1.45,1.06,2.74,1.74,3.88l0.41-0.05c0.04-0.59,0.2-1.22,0.48-1.87
		c0.28-0.65,0.68-1.24,1.2-1.76c0.52-0.52,1.16-0.95,1.93-1.27c0.77-0.32,1.66-0.45,2.67-0.38c0.94,0.06,1.79,0.29,2.55,0.67
		s1.39,0.87,1.9,1.47c0.51,0.59,0.88,1.26,1.13,1.99c0.25,0.74,0.35,1.5,0.29,2.29c-0.04,0.67-0.22,1.4-0.52,2.18
		c-0.3,0.79-0.78,1.52-1.45,2.19c-0.67,0.68-1.54,1.22-2.62,1.63c-1.08,0.41-2.42,0.57-4,0.46c-1.8-0.12-3.41-0.56-4.83-1.33
		c-1.41-0.76-2.65-1.78-3.71-3.04c-1.06-1.26-1.95-2.74-2.67-4.42c-0.72-1.69-1.28-3.5-1.69-5.44c-0.41-1.94-0.67-3.97-0.79-6.11
		c-0.12-2.13-0.11-4.29,0.04-6.46c0.17-2.52,0.5-5.01,1-7.48c0.5-2.46,1.14-4.77,1.93-6.93c0.79-2.16,1.7-4.1,2.74-5.84
		c1.03-1.73,2.18-3.14,3.45-4.22L404.12,54.89z"/>
	<path d="M449.55,62.52l0.22,0.05c0.03,3.41,0.13,6.82,0.28,10.24c0.15,3.42,0.44,6.72,0.86,9.92s1.03,6.21,1.81,9.06
		c0.78,2.85,1.83,5.4,3.15,7.66c1.32,2.26,2.95,4.16,4.89,5.7c1.94,1.54,4.27,2.61,6.98,3.21c2.47,0.54,4.71,0.57,6.72,0.07
		c2.01-0.49,3.78-1.34,5.3-2.54c1.52-1.2,2.78-2.68,3.79-4.44c1.01-1.76,1.73-3.62,2.16-5.58c0.32-1.45,0.47-2.91,0.47-4.37
		s-0.19-2.9-0.53-4.32c-1,0.87-2.09,1.65-3.28,2.34c-1.18,0.69-2.41,1.25-3.7,1.68c-1.29,0.43-2.61,0.69-3.96,0.8
		c-1.36,0.11-2.7,0.02-4.03-0.28c-1.67-0.37-3.02-0.96-4.04-1.78c-1.03-0.82-1.79-1.77-2.3-2.85c-0.51-1.08-0.8-2.21-0.87-3.41
		c-0.07-1.19,0.03-2.36,0.28-3.5l3.93-17.86l-29.87-5.28l0.22-5.34l66.15,13.06L503,70.1l-29.37-6.46l-3.21,14.59
		c-0.24,1.09-0.45,2.07-0.63,2.95c-0.18,0.87-0.29,1.63-0.34,2.26c-0.05,0.64-0.03,1.14,0.07,1.5c0.1,0.36,0.31,0.58,0.65,0.66
		c1.28,0.28,2.57,0.33,3.87,0.15c1.3-0.18,2.63-0.61,4.01-1.27c1.38-0.66,2.81-1.57,4.29-2.73c1.48-1.16,3.06-2.58,4.73-4.27
		l0.51,0.11c1.07,1.45,1.95,3.01,2.63,4.67c0.67,1.66,1.17,3.35,1.47,5.06c0.31,1.72,0.43,3.45,0.38,5.2
		c-0.06,1.75-0.27,3.46-0.64,5.13c-0.59,2.66-1.56,5.16-2.91,7.51c-1.35,2.34-3.08,4.3-5.18,5.88c-2.1,1.58-4.57,2.68-7.41,3.3
		c-2.84,0.62-6.02,0.54-9.56-0.24c-3.53-0.78-6.53-2.07-8.99-3.86c-2.46-1.8-4.5-3.95-6.12-6.47s-2.88-5.32-3.8-8.43
		c-0.91-3.11-1.58-6.36-2-9.75c-0.42-3.39-0.67-6.85-0.76-10.39c-0.09-3.53-0.1-6.99-0.04-10.38L449.55,62.52z"/>
	<path d="M524.2,103c0.2-3.12-0.18-5.62-1.16-7.49c-0.98-1.88-2.32-3.18-4.03-3.91c-1.23-0.53-2.43-0.75-3.6-0.67
		c-1.17,0.08-2.26,0.38-3.28,0.9c-1.02,0.52-1.92,1.23-2.71,2.13c-0.79,0.9-1.43,1.91-1.9,3.03c-0.37,0.87-0.63,1.75-0.79,2.65
		c-0.16,0.9-0.19,1.78-0.09,2.63l0.4,0.09c0.24-0.57,0.62-1.13,1.12-1.68c0.5-0.55,1.11-1,1.81-1.35c0.7-0.35,1.49-0.54,2.36-0.59
		c0.87-0.05,1.79,0.14,2.77,0.56c0.91,0.39,1.67,0.9,2.27,1.54c0.6,0.64,1.06,1.34,1.37,2.1c0.31,0.76,0.45,1.56,0.43,2.39
		c-0.02,0.83-0.19,1.62-0.51,2.37c-0.27,0.64-0.7,1.3-1.27,1.98c-0.58,0.68-1.31,1.25-2.2,1.69c-0.89,0.44-1.95,0.67-3.19,0.7
		c-1.24,0.02-2.65-0.31-4.25-0.99c-1.84-0.79-3.3-1.8-4.36-3.04c-1.06-1.24-1.8-2.59-2.21-4.06c-0.41-1.47-0.52-3.01-0.32-4.63
		c0.19-1.62,0.62-3.2,1.28-4.75c0.77-1.8,1.82-3.43,3.14-4.88c1.33-1.45,2.83-2.59,4.52-3.42c1.69-0.83,3.5-1.3,5.44-1.41
		c1.94-0.11,3.92,0.26,5.95,1.13c1.73,0.74,3.19,1.78,4.37,3.11c1.18,1.33,2.09,2.86,2.73,4.59l0.2,0.09
		c1.68-0.9,3.41-1.34,5.2-1.33c1.79,0.01,3.49,0.36,5.11,1.06c2,0.86,3.65,2.12,4.94,3.77l3.58-8.37l-44.49-18.89l0.81-5.41
		l58.61,24.75l-2.15,5.02l-7.18-3.07l-19.67,45.93l-5.6-2.4l13.04-30.45c-0.25-1.24-0.78-2.34-1.58-3.3
		c-0.8-0.96-1.75-1.68-2.84-2.15c-1-0.43-2.12-0.64-3.37-0.63c-1.24,0.01-2.51,0.29-3.8,0.84c0.16,0.45,0.27,0.94,0.34,1.48
		c0.06,0.54,0.1,1.08,0.11,1.63l-5.16,0.82L524.2,103z"/>
	<path d="M600.95,142.25c-1.23-1.53-2.22-3.27-2.97-5.23c-0.75-1.96-1.15-3.88-1.21-5.78c-0.77,0.47-1.65,0.87-2.63,1.22
		c-0.98,0.35-2,0.56-3.05,0.64c-1.05,0.07-2.1-0.02-3.16-0.28c-1.06-0.26-2.05-0.76-2.99-1.49c-1.17-0.92-2.02-1.94-2.56-3.06
		c-0.53-1.13-0.83-2.26-0.88-3.4c-0.05-1.14,0.11-2.25,0.48-3.33c0.37-1.08,0.88-2.03,1.52-2.85l4.25,3.32
		c-0.64,0.82-0.94,1.7-0.88,2.64c0.05,0.94,0.51,1.74,1.37,2.41c0.74,0.58,1.54,0.88,2.39,0.9c0.85,0.02,1.69-0.15,2.53-0.52
		c0.84-0.37,1.65-0.87,2.42-1.53c0.78-0.65,1.46-1.36,2.06-2.12c0.46-0.59,0.86-1.2,1.21-1.84c0.34-0.64,0.61-1.27,0.81-1.87
		l-15.08-11.8l3.37-4.3l55.26,44.28l-3.73,3.96l-18.78-15.67c-0.51,2.18-1.45,4.14-2.8,5.88c-0.73,0.94-1.56,1.76-2.49,2.46
		c-0.93,0.71-1.92,1.24-2.97,1.59c-1.05,0.36-2.15,0.51-3.29,0.47c-1.14-0.05-2.3-0.33-3.45-0.86l-0.32,0.41
		c2.57,2.23,4.58,4.57,6.04,7.04c1.46,2.46,2.44,4.87,2.93,7.23c0.5,2.36,0.56,4.57,0.19,6.64s-1.12,3.81-2.23,5.24
		c-0.7,0.9-1.56,1.66-2.56,2.27c-1,0.62-2.09,1.02-3.27,1.22c-1.18,0.2-2.41,0.13-3.69-0.2c-1.28-0.33-2.57-1-3.86-2
		c-1.15-0.9-1.97-1.8-2.45-2.69c-0.48-0.9-0.74-1.75-0.79-2.58c-0.05-0.82,0.06-1.56,0.32-2.22c0.26-0.66,0.57-1.21,0.92-1.66
		c0.43-0.55,0.94-0.99,1.53-1.33c0.59-0.34,1.22-0.55,1.88-0.63c0.66-0.08,1.34-0.03,2.03,0.15c0.69,0.18,1.36,0.52,2.01,1.03
		c0.68,0.53,1.18,1.13,1.49,1.78c0.31,0.65,0.47,1.29,0.5,1.93c0.02,0.63-0.06,1.23-0.26,1.81c-0.2,0.57-0.45,1.05-0.75,1.44
		l0.25,0.29c0.41-0.25,0.77-0.51,1.08-0.81c0.31-0.29,0.59-0.61,0.85-0.94c0.79-1.02,1.3-2.08,1.51-3.19
		c0.21-1.11,0.21-2.24,0.01-3.39c-0.2-1.15-0.57-2.29-1.11-3.41c-0.53-1.13-1.15-2.2-1.84-3.23c-0.69-1.03-1.42-1.98-2.19-2.85
		c-0.77-0.87-1.5-1.62-2.2-2.26l-18.88,24.13l-2.58-2.02c0.59-3.53,0.77-6.76,0.54-9.68c-0.23-2.92-0.78-5.64-1.63-8.17
		c-0.86-2.53-1.99-4.92-3.39-7.19c-1.41-2.26-3-4.52-4.77-6.75l4.42-5.65c1.41,0.13,3.16,0.34,5.26,0.64
		c2.09,0.3,4.3,0.72,6.63,1.24c2.33,0.53,4.65,1.21,6.98,2.04c2.32,0.83,4.42,1.83,6.27,3L600.95,142.25z M577.14,142.21
		c1.32,1.69,2.47,3.3,3.46,4.83c0.99,1.53,1.83,3.05,2.53,4.55c0.69,1.51,1.25,3.06,1.67,4.66c0.42,1.6,0.72,3.33,0.91,5.17
		l0.15,0.12l11.06-14.14c-0.88-0.53-1.86-1.03-2.96-1.52c-1.1-0.48-2.26-0.93-3.47-1.35c-1.22-0.42-2.44-0.8-3.68-1.15
		c-1.24-0.35-2.42-0.66-3.56-0.92c-1.14-0.26-2.18-0.47-3.14-0.64c-0.96-0.17-1.76-0.27-2.42-0.31L577.14,142.21z M603.86,123.38
		c-0.65,0.87-1.09,2.06-1.31,3.55c-0.22,1.49-0.24,3.05-0.04,4.67c0.2,1.62,0.6,3.15,1.2,4.59s1.4,2.56,2.39,3.34
		c0.82,0.64,1.6,1.07,2.35,1.28c0.75,0.21,1.45,0.25,2.09,0.13c0.65-0.12,1.25-0.39,1.82-0.79c0.57-0.4,1.08-0.9,1.54-1.49
		c0.61-0.78,1.12-1.66,1.52-2.63c0.4-0.98,0.69-1.94,0.88-2.9L603.86,123.38z"/>
	<path d="M591.83,190.83l-5.62,0.96c-0.22-1.34-0.46-2.65-0.71-3.94c-0.25-1.29-0.56-2.59-0.94-3.9c-0.38-1.31-0.85-2.61-1.41-3.93
		c-0.56-1.31-1.25-2.65-2.07-4.01c-1.25,0.89-2.52,1.49-3.8,1.81c-1.28,0.32-2.53,0.42-3.75,0.31c-1.21-0.11-2.36-0.41-3.46-0.91
		c-1.09-0.5-2.08-1.12-2.96-1.88c-0.88-0.76-1.63-1.63-2.23-2.6c-0.6-0.97-1-1.99-1.21-3.05c-0.2-1.06-0.18-2.11,0.08-3.17
		c0.25-1.06,0.78-2.05,1.59-2.99c0.61-0.72,1.38-1.34,2.31-1.86c0.93-0.53,1.98-0.82,3.16-0.89c1.18-0.06,2.48,0.16,3.9,0.68
		c1.42,0.52,2.94,1.47,4.55,2.86c1.43,1.23,2.73,2.62,3.89,4.17c1.16,1.56,2.21,3.18,3.13,4.86c0.92,1.69,1.72,3.39,2.39,5.12
		c0.68,1.72,1.25,3.36,1.71,4.92c0.46,1.56,0.81,2.98,1.04,4.27C591.64,188.95,591.78,190.01,591.83,190.83z M577.51,170.81
		c-0.21-0.51-0.57-1.08-1.05-1.71c-0.49-0.63-0.99-1.17-1.52-1.62c-0.62-0.53-1.22-0.9-1.8-1.1c-0.58-0.2-1.11-0.29-1.6-0.27
		c-0.49,0.02-0.93,0.12-1.32,0.31c-0.39,0.19-0.69,0.4-0.9,0.65c-0.24,0.28-0.39,0.61-0.44,0.97c-0.05,0.36-0.02,0.75,0.09,1.15
		c0.11,0.4,0.29,0.8,0.55,1.18c0.26,0.38,0.58,0.74,0.95,1.06c0.96,0.82,2.02,1.2,3.18,1.14
		C574.82,172.5,576.1,171.92,577.51,170.81z"/>
	<path d="M640.6,187.42c1.55-2.72,2.29-5.13,2.23-7.25c-0.06-2.11-0.7-3.87-1.91-5.28c-0.88-1.01-1.86-1.74-2.94-2.17
		c-1.08-0.44-2.2-0.64-3.34-0.62c-1.14,0.02-2.27,0.27-3.37,0.73c-1.11,0.47-2.12,1.1-3.03,1.89c-0.71,0.62-1.34,1.3-1.87,2.04
		c-0.54,0.74-0.95,1.52-1.23,2.32l0.32,0.26c0.47-0.41,1.05-0.75,1.74-1.02c0.7-0.28,1.44-0.42,2.22-0.42
		c0.78-0.01,1.57,0.16,2.37,0.5c0.8,0.34,1.55,0.91,2.25,1.72c0.65,0.75,1.11,1.54,1.37,2.38c0.26,0.84,0.37,1.66,0.31,2.49
		c-0.06,0.82-0.28,1.6-0.65,2.34c-0.38,0.74-0.88,1.37-1.49,1.91c-0.52,0.45-1.19,0.86-2.01,1.23c-0.82,0.36-1.72,0.55-2.71,0.56
		s-2.05-0.25-3.17-0.77c-1.12-0.52-2.25-1.43-3.39-2.75c-1.31-1.52-2.18-3.06-2.59-4.64c-0.41-1.58-0.48-3.11-0.21-4.61
		c0.27-1.5,0.85-2.93,1.73-4.3c0.88-1.37,1.96-2.61,3.23-3.71c1.48-1.28,3.13-2.29,4.96-3.02c1.83-0.73,3.68-1.1,5.56-1.1
		c1.88-0.01,3.72,0.36,5.51,1.11c1.79,0.74,3.41,1.95,4.85,3.61c1.24,1.42,2.09,2.99,2.58,4.7c0.48,1.71,0.63,3.49,0.45,5.32
		l0.15,0.17c1.9-0.08,3.66,0.28,5.26,1.07c1.6,0.79,2.98,1.85,4.14,3.18c1.43,1.65,2.36,3.5,2.79,5.55l6.88-5.96L639,151.91
		l4.13-3.58l37.66,43.46l-4.13,3.58l-5.11-5.9l-37.76,32.72l-3.99-4.61l25.03-21.69c0.31-1.22,0.32-2.44,0.03-3.66
		c-0.3-1.22-0.84-2.27-1.62-3.17c-0.72-0.82-1.63-1.5-2.75-2.04c-1.12-0.54-2.38-0.84-3.78-0.9c-0.05,0.47-0.16,0.96-0.34,1.48
		c-0.18,0.51-0.38,1.02-0.61,1.51l-5-1.52L640.6,187.42z"/>
	<path d="M732.54,379.48l-3.05-9.94l-8.31,7.9l-3.21-3.8l9.25-6.72l-10.37-4.9l2.42-4.34l9.67,6.16l1.09-10.41l4.78,1.22
		l-2.73,10.05l11.17-1.94l0.5,5.11l-11.33,0.23l4.6,9.38L732.54,379.48z"/>
	<path d="M732.7,414.16l-2-10.2l-9.09,6.99l-2.79-4.11l9.9-5.72l-9.8-5.95l2.86-4.07l8.98,7.14l2.16-10.24l4.63,1.71l-3.76,9.71
		l11.31-0.76l-0.04,5.13l-11.29-0.95l3.6,9.81L732.7,414.16z"/>
	<path d="M729.25,448.7l-0.93-10.36l-9.77,6.01l-2.35-4.38l10.44-4.66l-9.13-6.94l3.27-3.75l8.19,8.03l3.22-9.96l4.43,2.18
		l-4.75,9.27l11.33,0.42l-0.57,5.1l-11.14-2.12l2.56,10.13L729.25,448.7z"/>
	<path d="M722.25,482.65l0.15-10.4l-10.34,4.97l-1.88-4.6l10.86-3.56l-8.37-7.85l3.64-3.39l7.31,8.84l4.23-9.58l4.18,2.63
		l-5.68,8.73l11.22,1.59l-1.1,5.01l-10.86-3.26l1.5,10.34L722.25,482.65z"/>
</g>
<g>
	<path d="M204.26,621.2c0.61,2.21,0.72,4.51,0.32,6.89c-0.4,2.38-1.11,4.69-2.12,6.93c-1.01,2.24-2.23,4.34-3.64,6.29
		c-1.42,1.95-2.83,3.62-4.23,5c-1.79,1.77-3.77,3.32-5.94,4.65c-2.17,1.33-4.46,2.39-6.87,3.17c-2.41,0.78-4.88,1.27-7.42,1.49
		c-2.54,0.21-5.06,0.07-7.57-0.41c-2.51-0.49-4.95-1.35-7.32-2.59c-2.37-1.24-4.6-2.91-6.67-5.02c-2.39-2.42-4.24-5.06-5.56-7.92
		c-1.32-2.86-2.21-5.84-2.69-8.96c-0.47-3.12-0.59-6.32-0.35-9.61c0.24-3.29,0.73-6.57,1.49-9.82s1.69-6.44,2.82-9.56
		c1.13-3.12,2.33-6.07,3.61-8.87c1.28-2.79,2.58-5.38,3.91-7.76c1.33-2.38,2.56-4.45,3.7-6.2l7.35,0.98l0.21,0.22
		c-2.4,4.14-4.59,8.25-6.57,12.33c-1.97,4.07-3.64,8.05-5,11.92c-1.36,3.87-2.39,7.61-3.08,11.21c-0.7,3.6-0.98,7-0.86,10.2
		c0.12,3.2,0.7,6.15,1.73,8.87c1.03,2.71,2.58,5.12,4.66,7.22c2.29,2.32,4.84,3.93,7.63,4.83c2.8,0.9,5.62,1.2,8.47,0.92
		c2.85-0.28,5.61-1.06,8.29-2.34c2.68-1.28,5.04-2.94,7.1-4.97c1.35-1.34,2.52-2.8,3.51-4.39c0.98-1.59,1.75-3.28,2.29-5.05
		c-1.98,0.71-4.04,1.02-6.17,0.93c-2.14-0.09-4.25-0.48-6.34-1.19c-2.09-0.71-4.1-1.7-6.04-2.96c-1.94-1.26-3.7-2.69-5.27-4.29
		c-1.69-1.72-3.12-3.57-4.27-5.56c-1.15-1.99-1.9-4.02-2.25-6.09c-0.35-2.07-0.24-4.11,0.33-6.13c0.56-2.01,1.72-3.88,3.46-5.6
		c1.36-1.34,2.82-2.35,4.4-3.02c1.58-0.67,3.14-1.04,4.69-1.09c1.55-0.05,3.05,0.21,4.49,0.77c1.44,0.56,2.71,1.4,3.81,2.51
		c1.1,1.11,1.93,2.39,2.5,3.84c0.57,1.45,0.87,2.91,0.91,4.41c0.04,1.49-0.2,2.95-0.73,4.38c-0.53,1.43-1.34,2.68-2.42,3.75
		c-0.94,0.93-2.01,1.65-3.19,2.14c-1.18,0.5-2.31,0.8-3.4,0.92l-0.19,0.83c1.79,1.48,3.68,2.48,5.66,3.01
		c1.98,0.53,4,0.75,6.07,0.67c2.07-0.08,4.14-0.37,6.21-0.86c2.07-0.49,4.09-1,6.07-1.51L204.26,621.2z M165.95,561.63l5.33-5.27
		l60.91,61.69l-5.33,5.27L165.95,561.63z"/>
	<path d="M225.83,628c0.61-0.86,1-1.8,1.19-2.81c0.19-1.01,0.19-2.02-0.01-3.04c-0.2-1.01-0.61-1.99-1.22-2.92
		c-0.61-0.93-1.42-1.75-2.42-2.45l-1.84-1.29l4.31-6.13l1.84,1.29c0.67,0.47,1.4,1.07,2.18,1.81c0.79,0.74,1.54,1.61,2.26,2.59
		c0.72,0.98,1.37,2.06,1.93,3.23c0.57,1.17,0.98,2.4,1.23,3.7l0.23-0.34c0.74-1.06,1.6-1.76,2.58-2.11
		c0.97-0.35,1.85-0.26,2.63,0.29l9.47,6.66l-4.31,6.13l-1.71-1.2c-1-0.7-2.04-1.19-3.13-1.45c-1.08-0.26-2.15-0.33-3.2-0.19
		c-1.05,0.13-2.02,0.46-2.93,0.97c-0.9,0.51-1.65,1.2-2.26,2.06l-34.97,49.72l-6.84-4.81L225.83,628z"/>
	<path d="M238.05,629.65l3.35-6.71l47.54,23.74c0.58-2.07,0.8-3.87,0.68-5.42c-0.12-1.54-0.5-2.88-1.13-4.01
		c-0.63-1.13-1.47-2.1-2.51-2.91c-1.04-0.81-2.17-1.51-3.39-2.12c-1.4-0.7-2.89-1.32-4.46-1.86c-1.57-0.54-3.2-1.07-4.88-1.58
		c-1.68-0.52-3.39-1.08-5.11-1.7c-1.73-0.61-3.44-1.35-5.14-2.2c-3.53-1.76-6.26-3.74-8.18-5.94c-1.93-2.2-3.22-4.51-3.89-6.93
		c-0.67-2.43-0.8-4.91-0.38-7.46c0.41-2.55,1.19-5.08,2.33-7.59l7.48,3.74c-1.2,2.63-1.77,4.88-1.72,6.75
		c0.05,1.87,0.46,3.46,1.21,4.76c0.75,1.31,1.74,2.38,2.96,3.21c1.21,0.84,2.39,1.53,3.51,2.1c1.79,0.9,3.54,1.64,5.23,2.24
		c1.7,0.6,3.38,1.15,5.04,1.66c1.67,0.51,3.31,1.04,4.93,1.61c1.62,0.56,3.23,1.24,4.85,2.05c3.2,1.59,5.67,3.38,7.42,5.35
		c1.75,1.97,2.95,4.06,3.61,6.25c0.66,2.19,0.86,4.45,0.61,6.77c-0.25,2.33-0.78,4.64-1.58,6.94l6.34,3.17l-3.35,6.71l-42.94-21.43
		l-18.02,36.09c-1.18,2.37-2.04,4.59-2.55,6.65c-0.52,2.06-0.8,3.97-0.86,5.73c-0.06,1.76,0.06,3.33,0.36,4.71
		c0.3,1.38,0.67,2.58,1.11,3.6c0.44,1.02,0.91,1.83,1.4,2.44c0.49,0.61,0.91,0.99,1.24,1.16c1.37,0.68,2.92,1.13,4.67,1.33
		c1.74,0.2,3.56,0.16,5.47-0.12c1.91-0.28,3.86-0.8,5.85-1.56c1.99-0.75,3.89-1.74,5.7-2.97c1.81-1.23,3.49-2.68,5.06-4.37
		c1.56-1.69,2.89-3.61,3.97-5.77c0.76-1.52,1.37-3.11,1.83-4.76c0.46-1.65,0.74-3.36,0.83-5.14l-0.55-0.16
		c-0.33,0.67-0.83,1.32-1.49,1.96c-0.66,0.64-1.44,1.15-2.34,1.54c-0.9,0.39-1.89,0.59-2.98,0.59c-1.09,0.01-2.22-0.28-3.41-0.87
		c-1.09-0.55-2-1.24-2.73-2.07s-1.24-1.74-1.55-2.71s-0.43-1.98-0.34-3.02c0.08-1.04,0.36-2.03,0.83-2.98
		c0.38-0.76,0.94-1.54,1.69-2.35c0.74-0.81,1.69-1.45,2.84-1.92c1.15-0.47,2.49-0.68,4.04-0.61c1.54,0.07,3.3,0.59,5.28,1.58
		c2.52,1.26,4.42,2.82,5.7,4.67c1.28,1.85,2.08,3.85,2.4,5.98c0.32,2.14,0.24,4.33-0.26,6.57c-0.49,2.24-1.25,4.38-2.26,6.42
		c-1.22,2.43-2.74,4.74-4.57,6.93c-1.83,2.18-3.88,4.15-6.13,5.89c-2.26,1.74-4.69,3.21-7.31,4.42c-2.61,1.2-5.32,2.04-8.1,2.51
		c-2.78,0.47-5.6,0.53-8.46,0.16c-2.86-0.36-5.67-1.24-8.44-2.62c-0.43-0.21-1.05-0.72-1.88-1.54c-0.83-0.81-1.66-1.92-2.48-3.32
		c-0.82-1.4-1.57-3.07-2.25-5.03c-0.68-1.95-1.07-4.18-1.17-6.68c-0.1-2.5,0.16-5.26,0.79-8.27c0.63-3.01,1.82-6.26,3.56-9.76
		L249,635.11L238.05,629.65z"/>
	<path d="M300.12,666.49c0.33-1,0.43-2.01,0.31-3.03c-0.12-1.02-0.42-1.99-0.91-2.9c-0.49-0.91-1.17-1.72-2.03-2.43
		c-0.86-0.71-1.87-1.25-3.04-1.63l-2.13-0.69l2.32-7.13l2.13,0.69c0.78,0.25,1.65,0.62,2.62,1.09c0.97,0.48,1.94,1.08,2.92,1.81
		c0.98,0.73,1.91,1.57,2.8,2.52c0.89,0.95,1.65,2.01,2.27,3.18l0.12-0.39c0.4-1.23,1.01-2.16,1.84-2.78c0.83-0.62,1.7-0.79,2.6-0.5
		l11.01,3.58l-2.31,7.13l-1.99-0.65c-1.17-0.38-2.3-0.53-3.41-0.47c-1.11,0.07-2.15,0.32-3.11,0.76c-0.96,0.44-1.8,1.03-2.51,1.78
		c-0.71,0.75-1.23,1.63-1.55,2.63l-18.77,57.82l-7.96-2.58L300.12,666.49z"/>
	<path d="M359.83,672.48l-47.35-8.11l1.26-7.39l66.15,11.33l-1.27,7.39l-10.56-1.81l-11.91,69.57l-4.93-0.84
		c-0.64-2.9-1.65-5.79-3.04-8.67c-1.39-2.88-3.03-5.66-4.93-8.35c-1.9-2.69-3.99-5.24-6.27-7.65c-2.28-2.41-4.6-4.62-6.96-6.62
		c-2.36-2.01-4.7-3.77-7.01-5.29c-2.31-1.52-4.46-2.7-6.45-3.56l1.85-10.81c2.61-1.14,5.49-2.38,8.65-3.72
		c3.16-1.34,6.49-2.58,9.98-3.72c3.49-1.14,7.05-2.09,10.68-2.85c3.63-0.76,7.22-1.13,10.77-1.11L359.83,672.48z M318.95,724.78
		c0.16-0.9,0.47-1.71,0.93-2.43c0.47-0.71,1.03-1.31,1.7-1.78c0.67-0.47,1.41-0.81,2.24-1.01c0.83-0.2,1.69-0.23,2.6-0.07
		s1.71,0.47,2.43,0.93c0.71,0.47,1.31,1.03,1.78,1.7c0.47,0.67,0.81,1.42,1.01,2.24c0.2,0.83,0.23,1.69,0.07,2.6
		c-0.16,0.9-0.47,1.71-0.93,2.43c-0.47,0.71-1.04,1.31-1.7,1.78c-0.67,0.47-1.42,0.81-2.24,1.01c-0.83,0.2-1.69,0.23-2.6,0.07
		s-1.71-0.47-2.43-0.93c-0.72-0.47-1.31-1.03-1.78-1.7c-0.47-0.67-0.81-1.42-1.01-2.24C318.82,726.55,318.8,725.68,318.95,724.78z
		 M351.17,723.05l5.9-34.48c-1.4-0.07-3.03,0.05-4.87,0.36c-1.85,0.3-3.78,0.73-5.81,1.28c-2.03,0.55-4.07,1.17-6.14,1.87
		c-2.07,0.7-4.03,1.39-5.89,2.07c-1.86,0.68-3.55,1.34-5.07,1.98c-1.52,0.64-2.73,1.15-3.63,1.55l-0.19,1.11
		c4.69,2.63,9.21,5.97,13.57,10.01c4.36,4.04,8.3,8.78,11.82,14.21L351.17,723.05z"/>
	<path d="M381.18,681.57c0.02-1.05-0.17-2.05-0.57-3c-0.4-0.94-0.97-1.78-1.7-2.52c-0.73-0.73-1.61-1.31-2.64-1.74
		c-1.03-0.43-2.15-0.66-3.38-0.69l-2.24-0.05l0.18-7.5l2.24,0.05c0.81,0.02,1.76,0.12,2.82,0.3c1.07,0.18,2.18,0.48,3.32,0.89
		c1.15,0.42,2.28,0.95,3.41,1.61c1.12,0.65,2.15,1.45,3.08,2.39l0.01-0.41c0.03-1.29,0.35-2.36,0.97-3.19
		c0.61-0.84,1.4-1.24,2.35-1.22l11.57,0.27l-0.17,7.49l-2.09-0.05c-1.22-0.03-2.36,0.15-3.41,0.53c-1.05,0.38-1.97,0.92-2.77,1.62
		c-0.8,0.7-1.43,1.51-1.89,2.43c-0.46,0.93-0.71,1.91-0.73,2.97l-1.42,60.77l-8.36-0.2L381.18,681.57z"/>
	<path d="M424.02,729.37l-6.05,25.68l-5.94,0.5l3.86-25.5L424.02,729.37z"/>
	<path d="M445.36,670.88l-2.36-7.12l65.1-21.61l2.37,7.12l-45.54,15.12l12.71,38.28c0.84,2.52,1.8,4.69,2.89,6.51
		c1.09,1.82,2.23,3.38,3.43,4.66c1.2,1.29,2.39,2.32,3.58,3.08c1.19,0.77,2.3,1.36,3.33,1.77c1.03,0.41,1.94,0.65,2.72,0.74
		c0.78,0.08,1.35,0.06,1.7-0.06c1.45-0.48,2.87-1.26,4.24-2.35c1.38-1.08,2.64-2.4,3.8-3.95c1.15-1.55,2.17-3.29,3.05-5.23
		c0.88-1.94,1.53-3.98,1.94-6.13c0.41-2.15,0.58-4.37,0.5-6.67c-0.08-2.3-0.51-4.6-1.27-6.89c-0.54-1.61-1.22-3.17-2.06-4.66
		c-0.84-1.49-1.85-2.91-3.04-4.23l-0.5,0.27c0.24,0.71,0.34,1.52,0.33,2.44s-0.21,1.84-0.57,2.74c-0.36,0.91-0.92,1.75-1.69,2.52
		c-0.76,0.77-1.78,1.37-3.03,1.79c-1.16,0.39-2.29,0.54-3.4,0.46c-1.1-0.08-2.11-0.36-3.01-0.83c-0.91-0.47-1.7-1.1-2.38-1.9
		c-0.68-0.8-1.18-1.7-1.51-2.7c-0.27-0.81-0.42-1.76-0.47-2.86c-0.04-1.1,0.18-2.22,0.66-3.36c0.48-1.14,1.29-2.24,2.43-3.28
		c1.14-1.04,2.76-1.91,4.86-2.61c2.68-0.89,5.12-1.13,7.34-0.72c2.21,0.41,4.19,1.26,5.92,2.55c1.74,1.29,3.22,2.9,4.45,4.83
		c1.24,1.94,2.21,3.99,2.93,6.15c0.86,2.58,1.41,5.29,1.65,8.13c0.24,2.84,0.18,5.67-0.19,8.5c-0.37,2.83-1.06,5.59-2.06,8.29
		c-1,2.7-2.32,5.2-3.96,7.49c-1.64,2.3-3.6,4.33-5.88,6.09c-2.28,1.76-4.89,3.13-7.83,4.1c-0.45,0.15-1.26,0.23-2.42,0.24
		c-1.16,0.01-2.53-0.19-4.1-0.6c-1.57-0.41-3.28-1.07-5.14-1.97c-1.86-0.9-3.71-2.21-5.54-3.91c-1.84-1.7-3.6-3.84-5.28-6.42
		c-1.68-2.58-3.13-5.72-4.37-9.43l-12.71-38.28L445.36,670.88z"/>
	<path d="M515.39,653.16c-0.48-0.94-1.12-1.73-1.92-2.37c-0.8-0.64-1.7-1.11-2.69-1.41c-0.99-0.3-2.04-0.39-3.15-0.29
		c-1.11,0.1-2.21,0.43-3.3,0.99l-2,1.02l-3.39-6.69l2-1.02c0.73-0.37,1.61-0.73,2.63-1.07c1.03-0.35,2.14-0.61,3.35-0.78
		c1.21-0.17,2.46-0.24,3.76-0.19c1.3,0.05,2.58,0.26,3.85,0.65l-0.19-0.37c-0.58-1.15-0.8-2.24-0.66-3.27
		c0.15-1.03,0.64-1.76,1.49-2.19l10.32-5.23l3.39,6.69l-1.87,0.95c-1.09,0.55-2.01,1.24-2.75,2.08c-0.74,0.83-1.3,1.74-1.67,2.73
		c-0.37,0.99-0.55,2-0.52,3.04c0.03,1.04,0.28,2.02,0.76,2.96l27.48,54.22l-7.46,3.78L515.39,653.16z"/>
	<path d="M560.51,615.88l-37.94,29.46l-6.2-7.52l75.33-58.42l6.16,7.48l-30.73,23.86l4.85,6.24c3.45-2.55,7.07-4.59,10.87-6.12
		c3.8-1.53,7.54-2.4,11.21-2.61c3.67-0.2,7.15,0.32,10.43,1.59c3.28,1.26,6.11,3.42,8.49,6.48c1.73,2.23,2.88,4.49,3.46,6.78
		c0.57,2.29,0.69,4.49,0.37,6.59c-0.33,2.1-1.05,4.07-2.18,5.89c-1.12,1.82-2.52,3.38-4.19,4.67c-1.64,1.27-3.18,2.07-4.63,2.4
		c-1.45,0.33-2.77,0.37-3.96,0.14c-1.19-0.24-2.24-0.68-3.12-1.32c-0.89-0.65-1.58-1.29-2.08-1.93c-0.62-0.81-1.07-1.7-1.33-2.68
		c-0.27-0.98-0.34-1.96-0.23-2.96s0.43-1.96,0.95-2.9c0.52-0.94,1.26-1.79,2.23-2.54c1.02-0.79,2.05-1.29,3.1-1.5
		c1.04-0.21,2.03-0.21,2.96-0.01c0.93,0.2,1.78,0.55,2.54,1.03c0.76,0.48,1.37,1.02,1.83,1.61l0.51-0.26
		c0.44-1.03,0.48-2.17,0.12-3.42c-0.36-1.24-1.03-2.5-2.02-3.76c-1.25-1.61-2.84-2.93-4.75-3.96c-1.92-1.03-4.15-1.58-6.7-1.64
		c-2.55-0.07-5.39,0.44-8.53,1.53c-3.14,1.08-6.53,2.93-10.18,5.55l33.28,42.86l-3.95,3.07c-2.57-1.49-5.39-2.69-8.45-3.61
		c-3.06-0.92-6.22-1.58-9.49-1.99c-3.27-0.41-6.56-0.59-9.87-0.53c-3.32,0.06-6.51,0.28-9.59,0.67c-3.08,0.39-5.96,0.92-8.63,1.6
		c-2.68,0.68-5.01,1.46-6.99,2.36l-6.72-8.66c0.92-2.69,1.95-5.66,3.1-8.9c1.15-3.24,2.48-6.53,3.99-9.88
		c1.51-3.35,3.21-6.62,5.1-9.81c1.89-3.19,4.04-6.09,6.45-8.69L560.51,615.88z M591.98,656.4l-21.45-27.63
		c-1.14,1.14-2.24,2.54-3.31,4.18c-1.07,1.65-2.09,3.4-3.06,5.25c-0.97,1.85-1.88,3.76-2.74,5.71c-0.85,1.95-1.62,3.83-2.32,5.61
		c-0.7,1.79-1.3,3.43-1.82,4.93c-0.51,1.5-0.93,2.71-1.24,3.64l0.69,0.89c5.11-1.68,10.62-2.77,16.55-3.26
		c5.93-0.49,12.08-0.2,18.46,0.87L591.98,656.4z"/>
	<path d="M601.67,588.17c-0.79-0.69-1.68-1.19-2.67-1.48c-0.98-0.3-1.99-0.4-3.02-0.31c-1.03,0.09-2.04,0.4-3.03,0.91
		c-0.99,0.51-1.89,1.23-2.69,2.15l-1.48,1.69l-5.64-4.93l1.48-1.69c0.54-0.61,1.22-1.27,2.04-1.98c0.82-0.7,1.76-1.36,2.81-1.98
		c1.05-0.61,2.19-1.14,3.42-1.59c1.22-0.44,2.49-0.72,3.81-0.83l-0.31-0.27c-0.97-0.85-1.58-1.78-1.83-2.79s-0.06-1.87,0.57-2.59
		l7.62-8.71l5.64,4.93l-1.38,1.57c-0.81,0.92-1.4,1.91-1.77,2.96c-0.37,1.05-0.55,2.1-0.53,3.16c0.02,1.06,0.24,2.06,0.65,3.01
		c0.42,0.95,1.02,1.77,1.81,2.46l45.76,40.02l-5.51,6.3L601.67,588.17z"/>
</g>
<g>
	<path d="M236.1,321.95c-0.56-0.05-1.2-0.09-1.92-0.12c-0.72-0.03-1.46-0.04-2.22-0.02c-0.76,0.01-1.53,0.05-2.31,0.11
		c-0.78,0.06-1.51,0.15-2.18,0.26c-0.35,0.84-0.56,1.74-0.62,2.68c-0.06,0.94-0.02,1.89,0.11,2.84c0.14,0.95,0.34,1.88,0.62,2.79
		c0.28,0.91,0.57,1.75,0.87,2.51c0.31,0.77,0.61,1.44,0.92,2.02c0.3,0.58,0.54,1.01,0.72,1.29l-2.72,1.31
		c-0.23-0.21-0.48-0.52-0.73-0.93c-0.19-0.2-0.39-0.39-0.62-0.56c-0.23-0.17-0.49-0.32-0.78-0.47c-0.44-0.22-0.9-0.38-1.41-0.49
		c-0.5-0.11-0.99-0.14-1.48-0.08c-0.48,0.06-0.93,0.22-1.35,0.49c-0.42,0.27-0.77,0.68-1.04,1.23c-0.08,0.17-0.18,0.39-0.28,0.66
		c-0.1,0.28-0.19,0.57-0.27,0.89c-0.08,0.32-0.13,0.64-0.17,0.97c-0.03,0.33-0.01,0.63,0.06,0.9l-3.23,0.48
		c-0.67-0.41-1.27-0.94-1.8-1.59c-0.53-0.65-0.97-1.39-1.33-2.21c-0.36-0.82-0.63-1.7-0.81-2.64c-0.18-0.94-0.27-1.88-0.26-2.84
		c0.01-0.96,0.12-1.92,0.33-2.87c0.21-0.96,0.53-1.86,0.95-2.72c0.55-1.11,1.23-2.06,2.05-2.85c0.82-0.78,1.7-1.44,2.66-1.98
		c0.96-0.54,1.96-0.96,3-1.28c1.04-0.31,2.06-0.56,3.06-0.73c1-0.17,1.95-0.28,2.85-0.33c0.9-0.05,1.69-0.07,2.36-0.08l0.02-0.09
		l-9.03-4.46l5.56-10.07l2.3,1.92l-3.48,6.4l25.81,12.75l-1.56,3.15L236.1,321.95z M216.44,327.37c-0.44,0.88-0.74,1.78-0.9,2.7
		c-0.17,0.91-0.22,1.8-0.16,2.66c0.06,0.86,0.22,1.67,0.48,2.44c0.26,0.77,0.58,1.46,0.98,2.08c0.07-0.5,0.19-1.03,0.33-1.57
		c0.15-0.54,0.33-1.04,0.56-1.5c0.38-0.77,0.83-1.34,1.36-1.73s1.09-0.64,1.7-0.76c0.61-0.12,1.24-0.12,1.89-0.01
		c0.65,0.12,1.29,0.3,1.92,0.54c-0.23-0.73-0.43-1.5-0.61-2.3c-0.18-0.8-0.31-1.6-0.38-2.42s-0.09-1.63-0.05-2.45
		c0.04-0.82,0.16-1.61,0.36-2.37c-0.92,0.18-1.75,0.39-2.5,0.61c-0.75,0.22-1.42,0.51-2.04,0.86c-0.61,0.35-1.16,0.78-1.65,1.3
		C217.25,325.96,216.82,326.6,216.44,327.37z"/>
	<path d="M233.21,302.96l0.08-0.1c1.79,0.82,3.59,1.6,5.41,2.36c1.82,0.76,3.61,1.42,5.38,1.98c1.77,0.56,3.49,0.98,5.17,1.28
		c1.68,0.29,3.27,0.37,4.77,0.23c1.5-0.13,2.89-0.52,4.17-1.16c1.28-0.64,2.41-1.59,3.39-2.85c0.89-1.15,1.45-2.32,1.68-3.49
		c0.23-1.17,0.23-2.3-0.03-3.39c-0.25-1.09-0.72-2.11-1.39-3.07c-0.67-0.96-1.46-1.79-2.38-2.49c-0.68-0.52-1.4-0.96-2.16-1.31
		c-0.76-0.36-1.56-0.62-2.39-0.78c0.21,0.74,0.35,1.5,0.42,2.28c0.07,0.79,0.06,1.57-0.03,2.34c-0.09,0.78-0.28,1.53-0.55,2.27
		c-0.28,0.73-0.65,1.41-1.13,2.03c-0.6,0.78-1.24,1.34-1.92,1.67c-0.68,0.33-1.36,0.5-2.05,0.5c-0.69,0-1.35-0.12-1.99-0.38
		c-0.64-0.26-1.23-0.59-1.76-1l-8.36-6.43l-9.57,12.45l-2.5-1.92l22.28-28.97l2.5,1.92l-10.57,13.74l6.83,5.25
		c0.51,0.39,0.97,0.74,1.38,1.05c0.41,0.31,0.78,0.55,1.1,0.74c0.32,0.18,0.59,0.29,0.8,0.33c0.21,0.04,0.38-0.02,0.5-0.18
		c0.46-0.6,0.8-1.26,1.03-1.98c0.22-0.72,0.33-1.52,0.32-2.4c-0.01-0.88-0.13-1.85-0.37-2.91c-0.24-1.06-0.6-2.23-1.07-3.51
		l0.18-0.24c1.02-0.2,2.05-0.28,3.08-0.23c1.03,0.05,2.03,0.21,3,0.47c0.97,0.26,1.91,0.62,2.81,1.08c0.9,0.46,1.74,0.99,2.52,1.59
		c1.25,0.96,2.31,2.08,3.2,3.36c0.89,1.28,1.49,2.66,1.8,4.14c0.31,1.48,0.28,3.04-0.09,4.67c-0.37,1.63-1.2,3.27-2.47,4.93
		c-1.27,1.65-2.68,2.9-4.22,3.74c-1.54,0.84-3.16,1.38-4.87,1.61c-1.71,0.23-3.48,0.2-5.33-0.08c-1.84-0.28-3.7-0.73-5.57-1.34
		c-1.87-0.61-3.74-1.33-5.6-2.15c-1.86-0.82-3.67-1.66-5.42-2.52L233.21,302.96z M265.49,312.46c-0.31-0.23-0.54-0.51-0.72-0.82
		c-0.17-0.31-0.28-0.64-0.33-0.98c-0.05-0.34-0.02-0.68,0.06-1.03c0.09-0.35,0.25-0.67,0.48-0.98c0.24-0.31,0.51-0.54,0.82-0.72
		c0.31-0.17,0.64-0.28,0.98-0.33c0.34-0.05,0.68-0.02,1.03,0.06c0.35,0.09,0.67,0.25,0.98,0.48c0.31,0.24,0.54,0.51,0.72,0.82
		c0.17,0.31,0.28,0.64,0.33,0.98c0.04,0.34,0.02,0.68-0.06,1.03c-0.09,0.35-0.25,0.67-0.48,0.98c-0.23,0.31-0.51,0.54-0.82,0.72
		c-0.31,0.17-0.64,0.28-0.98,0.33c-0.34,0.05-0.68,0.02-1.03-0.06C266.12,312.86,265.79,312.7,265.49,312.46z"/>
	<path d="M275.65,249.78l1.72,2.87l-3.91,3.78c-0.87,0.74-1.45,1.72-1.73,2.94c-0.28,1.22-0.28,2.57-0.01,4.04
		c0.27,1.47,0.8,3.01,1.58,4.62c0.78,1.61,1.81,3.16,3.07,4.66c0.67,0.8,1.38,1.55,2.13,2.25c0.75,0.7,1.51,1.34,2.29,1.9
		c0.77,0.56,1.55,1.05,2.33,1.45c0.78,0.41,1.54,0.71,2.27,0.92l0.15-0.19c-0.22-0.26-0.4-0.58-0.55-0.97
		c-0.15-0.38-0.22-0.79-0.21-1.21c0.01-0.42,0.1-0.86,0.29-1.3c0.19-0.44,0.51-0.85,0.96-1.22c0.41-0.35,0.86-0.6,1.32-0.74
		c0.47-0.14,0.93-0.19,1.37-0.15c0.45,0.04,0.87,0.17,1.27,0.37c0.4,0.21,0.74,0.48,1.04,0.83c0.25,0.29,0.47,0.67,0.66,1.11
		c0.19,0.45,0.28,0.94,0.28,1.49c-0.01,0.55-0.15,1.12-0.44,1.73c-0.29,0.61-0.78,1.2-1.48,1.79c-0.8,0.67-1.64,1.13-2.53,1.38
		c-0.89,0.25-1.81,0.32-2.76,0.22c-0.94-0.1-1.9-0.36-2.88-0.77c-0.97-0.41-1.93-0.94-2.87-1.58c-0.94-0.64-1.87-1.38-2.77-2.22
		c-0.9-0.84-1.76-1.74-2.57-2.7c-1.24-1.47-2.28-2.92-3.1-4.35c-0.83-1.42-1.48-2.79-1.95-4.1c-0.48-1.31-0.79-2.54-0.94-3.69
		c-0.15-1.15-0.18-2.2-0.09-3.13c0.09-0.94,0.29-1.74,0.59-2.43c0.3-0.68,0.67-1.21,1.11-1.58L275.65,249.78z"/>
	<path d="M307.45,231.01l1.53,2.87l-31.63,18.69l-1.66-2.67L307.45,231.01z M282.74,252c1.49,1.4,2.98,2.68,4.49,3.86
		c1.5,1.18,2.99,2.22,4.48,3.14c1.48,0.91,2.94,1.67,4.36,2.28c1.42,0.6,2.8,1.02,4.14,1.25c1.34,0.23,2.61,0.25,3.84,0.07
		c1.22-0.19,2.36-0.61,3.42-1.26c1.06-0.65,1.88-1.49,2.46-2.5c0.58-1.01,0.96-2.08,1.14-3.23c0.17-1.14,0.15-2.28-0.07-3.42
		c-0.22-1.14-0.62-2.17-1.19-3.1c-0.41-0.67-0.94-1.28-1.58-1.85c-0.64-0.57-1.35-1.02-2.13-1.34c-0.78-0.32-1.62-0.49-2.51-0.49
		c-0.89,0-1.8,0.23-2.72,0.7l-0.01,0.36c0.43,0.15,0.86,0.39,1.3,0.71c0.43,0.32,0.8,0.72,1.09,1.19c0.34,0.55,0.54,1.14,0.62,1.77
		c0.07,0.63,0.03,1.25-0.13,1.86c-0.16,0.61-0.43,1.17-0.81,1.71c-0.37,0.53-0.84,0.98-1.4,1.32c-0.56,0.34-1.16,0.56-1.8,0.65
		c-0.64,0.09-1.28,0.05-1.91-0.13c-0.63-0.17-1.23-0.47-1.81-0.91c-0.58-0.43-1.08-0.99-1.5-1.67c-0.54-0.87-0.83-1.75-0.87-2.62
		c-0.03-0.87,0.13-1.71,0.48-2.52c0.35-0.81,0.87-1.58,1.57-2.29c0.69-0.71,1.49-1.35,2.4-1.92c1.51-0.93,2.98-1.48,4.41-1.65
		c1.43-0.17,2.78-0.05,4.03,0.34c1.25,0.39,2.38,1.01,3.4,1.86c1.01,0.85,1.86,1.83,2.55,2.93c0.81,1.31,1.4,2.75,1.76,4.32
		c0.36,1.57,0.43,3.13,0.22,4.68c-0.21,1.55-0.75,3.03-1.59,4.44c-0.85,1.41-2.08,2.61-3.7,3.61c-1.19,0.74-2.43,1.24-3.71,1.5
		c-1.28,0.27-2.59,0.35-3.92,0.25c-1.33-0.1-2.66-0.34-4-0.74c-1.34-0.4-2.65-0.9-3.93-1.5c-1.28-0.6-2.51-1.28-3.7-2.02
		c-1.18-0.74-2.3-1.5-3.34-2.28c-1.04-0.77-1.99-1.54-2.84-2.3c-0.85-0.76-1.58-1.45-2.19-2.09l1.09-2.92L282.74,252z"/>
	<path d="M314.25,235.1c-0.18-0.4-0.44-0.75-0.76-1.03c-0.33-0.28-0.69-0.5-1.1-0.64c-0.41-0.14-0.85-0.2-1.32-0.18
		c-0.47,0.03-0.93,0.15-1.4,0.36l-0.86,0.39l-1.31-2.87l0.86-0.39c0.31-0.14,0.69-0.28,1.12-0.41c0.44-0.13,0.91-0.22,1.42-0.27
		c0.51-0.05,1.04-0.06,1.58-0.02c0.55,0.04,1.08,0.15,1.6,0.34l-0.07-0.16c-0.23-0.49-0.3-0.95-0.22-1.38
		c0.08-0.43,0.3-0.73,0.66-0.89l4.42-2.02l1.31,2.87l-0.8,0.37c-0.47,0.21-0.86,0.49-1.19,0.82c-0.33,0.34-0.57,0.71-0.75,1.12
		s-0.26,0.83-0.27,1.27c-0.01,0.43,0.08,0.85,0.27,1.26l10.61,23.22l-3.19,1.46L314.25,235.1z"/>
	<path d="M339.77,245.34c-0.74,0.23-1.42,0.33-2.04,0.29c-0.63-0.04-1.19-0.18-1.68-0.41c-0.49-0.23-0.91-0.55-1.24-0.94
		c-0.33-0.4-0.58-0.83-0.73-1.31c-0.17-0.53-0.22-1.09-0.16-1.68s0.24-1.16,0.55-1.7c0.3-0.55,0.73-1.05,1.29-1.5
		c0.55-0.45,1.24-0.81,2.05-1.07c0.34-0.11,0.66-0.18,0.96-0.23c0.3-0.04,0.67-0.06,1.11-0.05c-0.47-1.39-1.03-2.56-1.68-3.5
		c-0.65-0.94-1.35-1.71-2.09-2.3c-0.74-0.6-1.52-1.05-2.32-1.35c-0.8-0.31-1.59-0.52-2.38-0.65c-0.78-0.13-1.53-0.19-2.25-0.18
		c-0.72,0-1.37,0.01-1.95,0.03l-0.85-2.67l-6.27,2.79l-1.34-2.87l34.78-11.11l0.76,3.19l-5.82,0.98l8.98,28.26l-2,0.64
		c-0.66-0.81-1.44-1.57-2.34-2.28c-0.9-0.71-1.86-1.36-2.88-1.95c-1.02-0.59-2.07-1.11-3.15-1.57c-1.08-0.46-2.14-0.84-3.18-1.14
		c-0.2,0.99-0.66,1.87-1.4,2.63C341.76,244.44,340.85,245,339.77,245.34z M351.65,240.69l-6.53-20.54l-15.8,5.02
		c2.05,0.17,3.85,0.6,5.41,1.27c1.56,0.67,2.91,1.55,4.06,2.63c1.15,1.08,2.13,2.34,2.93,3.77c0.8,1.43,1.47,3,2.01,4.7
		c1.31,0.35,2.62,0.79,3.92,1.32c1.31,0.53,2.6,1.15,3.88,1.87L351.65,240.69z"/>
	<path d="M359.01,220.43c-0.08-0.44-0.25-0.83-0.5-1.18c-0.25-0.35-0.56-0.65-0.92-0.88c-0.36-0.24-0.78-0.4-1.24-0.48
		c-0.46-0.09-0.94-0.08-1.45,0.01l-0.93,0.17l-0.58-3.09l0.93-0.18c0.34-0.06,0.73-0.11,1.19-0.13c0.45-0.02,0.93,0.01,1.44,0.08
		c0.51,0.07,1.02,0.19,1.54,0.36c0.52,0.17,1.01,0.41,1.48,0.71l-0.03-0.17c-0.1-0.53-0.06-1,0.12-1.4c0.18-0.4,0.46-0.63,0.86-0.71
		l4.78-0.9l0.59,3.09l-0.86,0.16c-0.51,0.1-0.96,0.27-1.35,0.52c-0.4,0.25-0.73,0.55-1,0.91c-0.27,0.36-0.46,0.74-0.56,1.16
		c-0.11,0.42-0.12,0.85-0.04,1.28l4.74,25.09l-3.45,0.65L359.01,220.43z"/>
	<path d="M387.12,213.59l-20.88,2.22l-0.64-3.14l29.25-2.87l0.26,3.14l-4.48,0.37l2.41,29.55l-2.09,0.17
		c-0.56-1.12-1.28-2.19-2.14-3.21c-0.86-1.02-1.82-1.99-2.88-2.88c-1.05-0.89-2.17-1.71-3.35-2.46c-1.18-0.74-2.35-1.4-3.52-1.97
		c-1.17-0.57-2.31-1.04-3.41-1.42c-1.1-0.38-2.1-0.64-3-0.78l-0.37-4.59c0.94-0.74,1.99-1.54,3.13-2.41
		c1.15-0.88,2.37-1.73,3.67-2.56c1.3-0.83,2.65-1.59,4.05-2.27c1.4-0.69,2.82-1.21,4.27-1.58L387.12,213.59z M388.87,235.07
		l-1.2-14.65c-0.58,0.12-1.23,0.34-1.95,0.65c-0.72,0.32-1.46,0.69-2.23,1.13c-0.77,0.44-1.53,0.9-2.3,1.4
		c-0.77,0.5-1.5,0.99-2.18,1.46c-0.68,0.47-1.31,0.92-1.86,1.33c-0.55,0.42-0.99,0.75-1.32,1.01l0.04,0.47
		c2.18,0.58,4.37,1.47,6.57,2.66c2.2,1.19,4.29,2.71,6.29,4.55L388.87,235.07z M375.94,239.13c-0.03-0.39,0.01-0.75,0.13-1.09
		c0.11-0.34,0.28-0.64,0.51-0.9c0.22-0.26,0.49-0.48,0.81-0.65c0.32-0.17,0.67-0.27,1.05-0.3c0.38-0.03,0.75,0.01,1.09,0.13
		c0.34,0.12,0.64,0.28,0.9,0.51c0.26,0.22,0.48,0.49,0.65,0.81c0.17,0.31,0.27,0.66,0.3,1.05c0.03,0.39-0.01,0.75-0.13,1.09
		c-0.12,0.34-0.28,0.64-0.51,0.9c-0.22,0.26-0.49,0.48-0.81,0.65c-0.32,0.17-0.67,0.27-1.05,0.3c-0.38,0.03-0.75-0.01-1.08-0.13
		c-0.34-0.12-0.64-0.29-0.9-0.51c-0.26-0.22-0.48-0.49-0.65-0.81S375.98,239.51,375.94,239.13z"/>
	<path d="M418.45,239.16c0.87,0.14,1.78,0.16,2.7,0.05c0.93-0.11,1.88-0.23,2.86-0.38c0.98-0.15,1.98-0.27,3.01-0.36
		c1.03-0.09,2.08-0.05,3.17,0.12c0.52,0.08,1,0.2,1.43,0.34c0.43,0.14,0.85,0.33,1.24,0.57c0.4,0.24,0.78,0.52,1.17,0.86
		c0.38,0.34,0.77,0.74,1.17,1.21l0.11,0.02l1.62-10.2c-0.33-1.14-0.66-2.36-1.01-3.66c-0.35-1.31-0.75-2.57-1.21-3.78
		c-0.91-0.09-1.83-0.02-2.74,0.2c-0.92,0.22-1.81,0.54-2.68,0.95c-0.87,0.41-1.69,0.88-2.48,1.42c-0.79,0.53-1.5,1.06-2.14,1.58
		c-0.64,0.52-1.19,1.01-1.65,1.47c-0.46,0.46-0.8,0.82-1.02,1.07l-2.06-2.21c0.13-0.3,0.36-0.62,0.68-0.98
		c0.14-0.24,0.25-0.49,0.35-0.76c0.09-0.27,0.17-0.56,0.22-0.89c0.08-0.48,0.09-0.98,0.05-1.49c-0.04-0.51-0.16-0.99-0.36-1.43
		c-0.2-0.44-0.49-0.83-0.87-1.15c-0.38-0.32-0.88-0.53-1.48-0.62c-0.18-0.03-0.42-0.05-0.72-0.07c-0.29-0.02-0.6-0.02-0.93,0
		c-0.33,0.02-0.65,0.06-0.97,0.13c-0.32,0.06-0.6,0.17-0.84,0.32l-1.42-2.94c0.19-0.76,0.52-1.5,0.99-2.2
		c0.47-0.7,1.03-1.34,1.71-1.93c0.67-0.59,1.43-1.11,2.27-1.56c0.84-0.45,1.72-0.81,2.65-1.09c0.93-0.27,1.88-0.45,2.86-0.53
		s1.96-0.05,2.93,0.11c1.18,0.19,2.25,0.53,3.21,1.03c0.95,0.5,1.8,1.09,2.55,1.79c0.74,0.7,1.4,1.46,1.96,2.28
		c0.56,0.83,1.05,1.66,1.47,2.51c0.42,0.85,0.77,1.68,1.06,2.5c0.29,0.82,0.54,1.56,0.76,2.21l0.13,0.02l1.48-9.31l7.91,1.26
		l-0.49,3.11l-4.44-0.71l-4.87,30.63l-2.14-0.34c-0.11-0.59-0.33-1.23-0.66-1.92c-0.33-0.68-0.76-1.32-1.29-1.91
		c-0.53-0.59-1.15-1.11-1.87-1.55c-0.72-0.45-1.52-0.74-2.41-0.88c-0.79-0.12-1.71-0.15-2.75-0.08c-1.05,0.07-2.13,0.17-3.26,0.28
		c-1.12,0.12-2.24,0.21-3.35,0.27c-1.11,0.06-2.13,0.02-3.06-0.13c-1.16-0.18-2.16-0.55-3.02-1.09c-0.85-0.54-1.55-1.18-2.09-1.94
		c-0.54-0.75-0.91-1.56-1.12-2.44c-0.21-0.88-0.24-1.76-0.1-2.63c0.11-0.66,0.32-1.33,0.63-2c0.32-0.67,0.76-1.32,1.32-1.94
		l0.13,0.02l2.21,2.43l-0.02,0.13c-0.26,0.35-0.46,0.69-0.6,1.01c-0.15,0.32-0.24,0.63-0.29,0.93c-0.09,0.56-0.03,1.08,0.19,1.56
		c0.21,0.47,0.53,0.89,0.95,1.26c0.42,0.36,0.92,0.67,1.49,0.91C417.21,238.88,417.81,239.06,418.45,239.16z M426.48,214.95
		c-0.97-0.16-1.92-0.17-2.84-0.06c-0.92,0.11-1.78,0.33-2.58,0.64c-0.8,0.31-1.53,0.71-2.19,1.18c-0.66,0.47-1.22,0.99-1.69,1.55
		c0.5-0.08,1.04-0.13,1.6-0.15c0.56-0.02,1.09,0.01,1.6,0.09c0.85,0.13,1.53,0.39,2.06,0.78c0.52,0.39,0.93,0.85,1.23,1.4
		c0.3,0.55,0.49,1.15,0.57,1.8c0.08,0.66,0.1,1.32,0.05,1.99c0.63-0.43,1.3-0.85,2.01-1.26c0.71-0.41,1.44-0.77,2.2-1.08
		c0.76-0.31,1.53-0.57,2.33-0.78c0.79-0.21,1.58-0.33,2.37-0.36c-0.45-0.82-0.89-1.56-1.32-2.21c-0.43-0.65-0.91-1.21-1.42-1.69
		c-0.52-0.48-1.09-0.87-1.73-1.19C428.07,215.3,427.33,215.08,426.48,214.95z"/>
	<path d="M446.89,218.71l0.57-3.03L485,229.19l-1.09,2.95L446.89,218.71z M474.93,235.35c0.63,0.73,1.07,1.59,1.34,2.57
		c0.27,0.98,0.41,1.98,0.42,3.01c0.01,1.03-0.08,2.05-0.27,3.04c-0.19,0.99-0.44,1.88-0.72,2.65c-0.37,0.99-0.85,1.93-1.44,2.83
		c-0.59,0.89-1.28,1.7-2.05,2.43c-0.78,0.72-1.63,1.35-2.56,1.88c-0.93,0.53-1.91,0.93-2.95,1.19c-1.04,0.26-2.12,0.36-3.25,0.31
		c-1.12-0.05-2.27-0.29-3.43-0.72c-1.34-0.5-2.51-1.17-3.52-2.03c-1.01-0.85-1.88-1.83-2.61-2.93c-0.73-1.1-1.35-2.3-1.84-3.6
		c-0.49-1.3-0.89-2.63-1.18-4c-0.29-1.37-0.5-2.75-0.62-4.14c-0.12-1.39-0.19-2.73-0.2-4.01c-0.01-1.29,0.03-2.51,0.11-3.65
		c0.08-1.14,0.18-2.15,0.31-3.02l2.97-0.93l0.12,0.04c-0.18,2.01-0.28,3.96-0.31,5.86c-0.03,1.9,0.04,3.71,0.22,5.43
		c0.17,1.72,0.44,3.32,0.82,4.82c0.37,1.49,0.87,2.84,1.48,4.04c0.62,1.19,1.36,2.22,2.23,3.07c0.87,0.85,1.89,1.49,3.06,1.92
		c1.28,0.48,2.54,0.64,3.76,0.48s2.35-0.54,3.39-1.15c1.04-0.61,1.95-1.4,2.74-2.37c0.79-0.96,1.4-2.01,1.82-3.15
		c0.28-0.75,0.46-1.51,0.55-2.3c0.09-0.78,0.08-1.56-0.03-2.33c-0.63,0.62-1.35,1.1-2.18,1.45c-0.83,0.35-1.7,0.57-2.63,0.67
		c-0.92,0.1-1.86,0.08-2.82-0.05c-0.96-0.14-1.88-0.37-2.77-0.7c-0.95-0.35-1.82-0.81-2.61-1.36c-0.79-0.55-1.44-1.19-1.94-1.92
		c-0.5-0.73-0.82-1.52-0.96-2.39c-0.14-0.87-0.04-1.78,0.32-2.75c0.28-0.75,0.66-1.39,1.14-1.93c0.48-0.54,1.01-0.95,1.59-1.25
		c0.58-0.3,1.2-0.46,1.84-0.51c0.65-0.04,1.28,0.05,1.9,0.28c0.61,0.23,1.16,0.57,1.63,1.02c0.47,0.45,0.85,0.96,1.13,1.52
		c0.28,0.56,0.45,1.16,0.5,1.8c0.05,0.64-0.03,1.26-0.26,1.86c-0.19,0.52-0.47,0.98-0.83,1.38c-0.36,0.4-0.74,0.72-1.13,0.95
		l0.08,0.35c0.95,0.25,1.84,0.29,2.69,0.14c0.85-0.15,1.66-0.43,2.43-0.82c0.77-0.4,1.51-0.88,2.21-1.43
		c0.7-0.56,1.38-1.11,2.04-1.65L474.93,235.35z"/>
	<path d="M460.65,251.93l3.21,1.42l-1.84,4.15c0.92,0.81,1.76,1.68,2.53,2.6c0.77,0.92,1.45,1.81,2.05,2.69
		c0.6,0.87,1.09,1.69,1.49,2.45c0.4,0.76,0.68,1.39,0.85,1.89l-2.94,1.46c-0.35-0.7-0.7-1.38-1.05-2.06
		c-0.35-0.67-0.74-1.33-1.17-1.99c-0.43-0.66-0.9-1.3-1.43-1.93c-0.53-0.63-1.13-1.25-1.81-1.87c-0.54,0.7-1.14,1.24-1.8,1.63
		c-0.66,0.39-1.33,0.66-2.01,0.8c-0.69,0.14-1.37,0.16-2.06,0.07c-0.68-0.09-1.34-0.27-1.95-0.55c-0.61-0.27-1.17-0.63-1.66-1.06
		c-0.49-0.44-0.89-0.93-1.17-1.48c-0.29-0.55-0.45-1.14-0.49-1.76c-0.04-0.63,0.09-1.26,0.38-1.92c0.22-0.5,0.54-0.97,0.96-1.41
		c0.42-0.45,0.96-0.78,1.6-1.02c0.64-0.23,1.4-0.32,2.27-0.27s1.87,0.32,2.99,0.82c0.26,0.11,0.52,0.24,0.77,0.37
		c0.25,0.14,0.5,0.28,0.75,0.41L460.65,251.93z M457.72,258.45c-0.2-0.25-0.49-0.5-0.87-0.77c-0.37-0.27-0.74-0.48-1.11-0.64
		c-0.43-0.19-0.82-0.29-1.17-0.31c-0.35-0.02-0.66,0.02-0.93,0.12c-0.27,0.09-0.49,0.22-0.68,0.39c-0.18,0.17-0.31,0.34-0.39,0.51
		c-0.09,0.2-0.11,0.4-0.08,0.61c0.03,0.21,0.11,0.42,0.24,0.62c0.13,0.21,0.3,0.39,0.5,0.56c0.21,0.17,0.44,0.31,0.7,0.43
		c0.67,0.29,1.31,0.33,1.95,0.1C456.51,259.84,457.12,259.3,457.72,258.45z"/>
	<path d="M479.45,258.16c0.19-0.33,0.44-0.61,0.72-0.82c0.29-0.21,0.6-0.36,0.93-0.45c0.33-0.09,0.68-0.11,1.03-0.07
		c0.36,0.04,0.7,0.16,1.03,0.36c0.33,0.19,0.61,0.44,0.82,0.73c0.21,0.29,0.36,0.6,0.45,0.93c0.09,0.33,0.11,0.68,0.07,1.03
		c-0.04,0.36-0.16,0.7-0.36,1.03c-0.19,0.33-0.44,0.61-0.73,0.82c-0.29,0.21-0.6,0.36-0.93,0.45c-0.33,0.09-0.68,0.11-1.03,0.07
		c-0.36-0.04-0.7-0.16-1.03-0.36c-0.33-0.19-0.61-0.44-0.82-0.73c-0.21-0.29-0.36-0.6-0.45-0.93c-0.09-0.33-0.11-0.68-0.07-1.03
		C479.13,258.84,479.25,258.49,479.45,258.16z M503.24,243.62l-19.4-11.47l1.15-2.87l26.75,15.66l-1.59,2.72l-3.88-2.27L491.33,271
		l-1.81-1.06c0.18-1.24,0.2-2.52,0.08-3.86c-0.12-1.34-0.36-2.67-0.71-4.01c-0.35-1.34-0.8-2.65-1.34-3.93
		c-0.54-1.28-1.13-2.5-1.76-3.64c-0.63-1.14-1.29-2.18-1.98-3.11c-0.68-0.94-1.35-1.72-2.01-2.35l2.32-3.98
		c1.19-0.06,2.51-0.12,3.95-0.19c1.44-0.06,2.93-0.06,4.47,0.01c1.54,0.06,3.08,0.22,4.62,0.45c1.54,0.24,3.01,0.62,4.4,1.15
		L503.24,243.62z M492.37,262.23l7.41-12.69c-0.54-0.23-1.2-0.43-1.97-0.58c-0.77-0.15-1.6-0.27-2.47-0.35
		c-0.88-0.08-1.77-0.14-2.69-0.17c-0.92-0.03-1.79-0.05-2.62-0.05c-0.83-0.01-1.59,0-2.29,0.03c-0.69,0.03-1.24,0.05-1.66,0.08
		l-0.24,0.41c1.46,1.73,2.74,3.71,3.86,5.94c1.12,2.23,1.97,4.68,2.55,7.33L492.37,262.23z"/>
	<path d="M528.18,285.27l0.09,0.09l11.63-12.38l-17.28-16.24l2.16-2.3l23.6,23.11l-2.49,2.11l-3.43-4.27l-20.29,21.59l-1.53-1.44
		c0.4-0.9,0.83-1.92,1.31-3.06c0.48-1.14,0.96-2.34,1.43-3.62c0.48-1.28,0.92-2.59,1.32-3.93c0.41-1.34,0.73-2.67,0.97-4
		c0.24-1.33,0.36-2.61,0.37-3.86c0.01-1.25-0.15-2.4-0.48-3.45l-0.35,0.09c-0.05,0.47-0.17,0.96-0.37,1.48
		c-0.2,0.51-0.5,0.99-0.9,1.42c-0.45,0.48-0.98,0.84-1.59,1.08c-0.61,0.24-1.24,0.36-1.88,0.36s-1.28-0.11-1.91-0.34
		c-0.63-0.23-1.19-0.57-1.68-1.03c-0.51-0.48-0.89-1.03-1.14-1.66c-0.25-0.63-0.37-1.28-0.37-1.95c0-0.67,0.14-1.35,0.42-2.02
		c0.27-0.68,0.68-1.3,1.21-1.87c0.71-0.76,1.5-1.27,2.37-1.54c0.87-0.26,1.73-0.34,2.6-0.25c0.87,0.1,1.7,0.35,2.49,0.74
		c0.79,0.39,1.48,0.87,2.07,1.41c0.99,0.93,1.73,2.02,2.22,3.28c0.49,1.26,0.79,2.59,0.88,3.99s0.01,2.83-0.26,4.28
		C529.12,282.53,528.72,283.93,528.18,285.27z"/>
	<path d="M546.45,285.1c0.34-0.28,0.6-0.62,0.78-1.01c0.19-0.39,0.29-0.8,0.32-1.24c0.03-0.43-0.04-0.87-0.19-1.31
		c-0.15-0.44-0.39-0.86-0.72-1.25l-0.61-0.72l2.41-2.03l0.61,0.72c0.22,0.26,0.45,0.58,0.69,0.97c0.24,0.39,0.45,0.82,0.64,1.29
		c0.19,0.48,0.33,0.98,0.44,1.52c0.11,0.54,0.14,1.08,0.11,1.64l0.13-0.11c0.41-0.35,0.84-0.55,1.27-0.59
		c0.43-0.04,0.78,0.09,1.04,0.4l3.14,3.71l-2.41,2.03l-0.57-0.67c-0.33-0.39-0.7-0.7-1.12-0.92c-0.41-0.22-0.84-0.36-1.28-0.42
		c-0.44-0.06-0.87-0.03-1.29,0.08c-0.42,0.11-0.8,0.31-1.14,0.6l-19.51,16.48l-2.27-2.68L546.45,285.1z"/>
	<path d="M553.56,288.47l2.87-1.34l11.83,16.15l-2.56,1.83l-2.74-3.83c-1.14-0.78-2.37-1.27-3.7-1.45
		c-1.32-0.19-2.69-0.14-4.08,0.12c-1.4,0.27-2.79,0.73-4.18,1.38c-1.39,0.65-2.7,1.42-3.95,2.3c-0.85,0.61-1.65,1.26-2.41,1.95
		c-0.76,0.69-1.45,1.4-2.07,2.12c-0.62,0.73-1.17,1.46-1.64,2.21c-0.47,0.75-0.83,1.48-1.09,2.19l0.17,0.17
		c0.28-0.2,0.61-0.35,1.01-0.47c0.39-0.11,0.8-0.15,1.22-0.11c0.42,0.04,0.85,0.17,1.27,0.4c0.42,0.22,0.8,0.57,1.15,1.05
		c0.31,0.44,0.52,0.9,0.63,1.38c0.11,0.48,0.12,0.94,0.04,1.38c-0.08,0.44-0.24,0.85-0.47,1.23c-0.24,0.38-0.54,0.7-0.91,0.97
		c-0.31,0.22-0.7,0.41-1.16,0.57c-0.46,0.15-0.96,0.21-1.51,0.16c-0.54-0.05-1.11-0.24-1.68-0.57c-0.58-0.33-1.14-0.87-1.67-1.61
		c-0.61-0.85-1-1.73-1.17-2.64c-0.18-0.91-0.18-1.83,0-2.77c0.18-0.93,0.51-1.87,1-2.81c0.49-0.94,1.09-1.85,1.81-2.74
		c0.72-0.89,1.53-1.75,2.44-2.58c0.91-0.83,1.87-1.61,2.89-2.34c1.19-0.85,2.42-1.61,3.7-2.29c1.28-0.68,2.54-1.23,3.8-1.67
		c1.25-0.44,2.45-0.74,3.6-0.91c1.15-0.17,2.2-0.17,3.14-0.01L553.56,288.47z"/>
	<path d="M552.92,327.74c-0.36-0.68-0.57-1.34-0.64-1.96c-0.07-0.63-0.03-1.2,0.12-1.73c0.15-0.53,0.38-0.99,0.72-1.39
		c0.33-0.4,0.72-0.71,1.16-0.94c0.49-0.26,1.04-0.41,1.63-0.45c0.59-0.04,1.18,0.04,1.77,0.25c0.59,0.2,1.16,0.54,1.7,1.01
		c0.54,0.47,1.01,1.08,1.4,1.84c0.17,0.32,0.29,0.62,0.39,0.91c0.09,0.29,0.17,0.65,0.24,1.08c1.29-0.71,2.35-1.46,3.16-2.26
		c0.81-0.8,1.45-1.62,1.91-2.45c0.46-0.83,0.77-1.67,0.94-2.51c0.17-0.84,0.24-1.66,0.23-2.45c-0.01-0.79-0.08-1.54-0.2-2.25
		c-0.13-0.71-0.25-1.34-0.37-1.91l2.49-1.3l-3.74-6.1l2.3-1.92l17.02,31.14l-2.79,1.45l-2.08-3.99l-26.3,13.69l-0.97-1.86
		c0.68-0.79,1.3-1.69,1.84-2.7c0.55-1.01,1.02-2.06,1.43-3.17c0.41-1.11,0.74-2.23,1.01-3.38c0.26-1.14,0.46-2.26,0.57-3.33
		c-1.01-0.02-1.96-0.33-2.84-0.93C554.14,329.54,553.44,328.74,552.92,327.74z M559.53,338.64l19.12-9.95L571,313.99
		c0.18,2.05,0.07,3.9-0.33,5.54c-0.4,1.65-1.03,3.13-1.9,4.45c-0.87,1.32-1.94,2.5-3.21,3.53c-1.27,1.03-2.7,1.96-4.29,2.78
		c-0.12,1.35-0.33,2.71-0.62,4.09c-0.3,1.38-0.69,2.76-1.18,4.14L559.53,338.64z"/>
</g>
<g>
	<path d="M264.07,447.05l-3.09,0.63l-0.9-4.39l-28.21,5.77l-0.7-3.44l28.21-5.77l-0.9-4.41l3.08-0.63l0.9,4.41
		c1.14-0.9,2.27-1.47,3.39-1.7c1.22-0.25,2.39-0.13,3.52,0.36c1.13,0.49,2.17,1.27,3.13,2.34c0.95,1.07,1.79,2.4,2.51,3.99
		c0.72,1.59,1.28,3.35,1.67,5.28c0.44,2.14,0.64,4.21,0.61,6.21c-0.03,2-0.18,3.82-0.45,5.47c-0.27,1.65-0.61,3.08-1.02,4.27
		c-0.4,1.2-0.77,2.08-1.09,2.64l-3.33-1.11c0.4-0.84,0.8-1.83,1.21-2.96c0.41-1.13,0.74-2.4,0.99-3.81
		c0.25-1.41,0.38-2.94,0.39-4.61c0.01-1.66-0.18-3.45-0.57-5.35c-0.3-1.47-0.69-2.81-1.17-4.04c-0.48-1.22-1.04-2.25-1.66-3.1
		c-0.63-0.85-1.31-1.48-2.06-1.89c-0.75-0.41-1.53-0.53-2.36-0.36c-0.48,0.1-0.96,0.29-1.47,0.58c-0.5,0.29-1.01,0.7-1.53,1.21
		L264.07,447.05z"/>
	<path d="M252.54,459.38c-0.7-0.05-1.32-0.19-1.85-0.42c-0.53-0.23-0.98-0.5-1.36-0.82c-0.38-0.32-0.69-0.65-0.93-1.01
		c-0.24-0.35-0.42-0.68-0.53-0.99c-0.18-0.5-0.25-1.02-0.22-1.58c0.03-0.56,0.17-1.09,0.41-1.61c0.24-0.51,0.58-0.97,1.01-1.39
		c0.44-0.42,0.96-0.73,1.58-0.96c0.82-0.29,1.64-0.36,2.46-0.2c0.82,0.16,1.61,0.43,2.39,0.82c0.78,0.38,1.52,0.81,2.25,1.3
		c0.73,0.48,1.41,0.9,2.04,1.27c0.09-0.26,0.21-0.63,0.35-1.11c0.15-0.48,0.27-1.01,0.36-1.6c0.09-0.59,0.13-1.21,0.12-1.86
		c-0.02-0.65-0.13-1.29-0.36-1.91l-0.71-1.98l2.96-1.06l0.7,1.94c0.28,0.79,0.46,1.59,0.51,2.38c0.06,0.79,0.04,1.58-0.05,2.36
		c-0.09,0.78-0.23,1.56-0.44,2.33c-0.2,0.77-0.41,1.54-0.62,2.3c0.58,0.31,1.21,0.65,1.9,1.04c0.68,0.38,1.34,0.8,1.98,1.26
		c0.63,0.46,1.2,0.94,1.7,1.46c0.5,0.52,0.85,1.07,1.07,1.67c0.26,0.72,0.29,1.49,0.09,2.3c-0.2,0.81-0.54,1.63-1.02,2.46
		c-0.48,0.83-1.05,1.66-1.73,2.48c-0.67,0.83-1.35,1.62-2.04,2.38l6.57-2.36l2.7,7.5l-2.96,1.06l-1.51-4.19l-27.09,9.74l-1.19-3.31
		l16.55-5.95c1.2-1.22,2.33-2.42,3.38-3.58c1.05-1.17,1.95-2.26,2.7-3.27c0.74-1.01,1.3-1.91,1.67-2.71
		c0.37-0.79,0.47-1.42,0.31-1.87c-0.1-0.28-0.31-0.56-0.63-0.83s-0.68-0.53-1.08-0.76c-0.4-0.23-0.81-0.45-1.22-0.65
		c-0.41-0.2-0.77-0.36-1.05-0.49c-0.27,0.98-0.56,1.93-0.86,2.85c-0.31,0.92-0.66,1.76-1.06,2.53c-0.4,0.76-0.85,1.43-1.36,1.98
		c-0.51,0.55-1.09,0.95-1.77,1.19c-0.55,0.2-1.11,0.28-1.69,0.24c-0.58-0.04-1.12-0.17-1.64-0.4c-0.51-0.23-0.97-0.55-1.38-0.95
		c-0.4-0.4-0.7-0.86-0.89-1.39c-0.12-0.32-0.2-0.7-0.24-1.14c-0.04-0.44-0.02-0.91,0.07-1.4s0.26-1,0.53-1.51
		c0.26-0.51,0.65-1,1.17-1.46L252.54,459.38z"/>
	<path d="M258.15,498.24c-0.33-0.49-0.55-0.97-0.66-1.44c-0.11-0.48-0.14-0.93-0.08-1.36c0.06-0.43,0.21-0.83,0.44-1.19
		c0.23-0.36,0.53-0.67,0.91-0.93c0.46-0.31,0.96-0.5,1.5-0.55c0.54-0.06,1.07,0,1.6,0.17c0.53,0.17,1.03,0.44,1.52,0.81
		c0.48,0.37,0.91,0.82,1.26,1.36c0.29,0.43,0.52,0.89,0.7,1.39c0.52-0.35,1-0.86,1.44-1.53c0.44-0.67,0.78-1.39,1.03-2.18
		c0.25-0.79,0.37-1.6,0.37-2.42c-0.01-0.82-0.19-1.57-0.54-2.25c-0.47,0.13-0.96,0.21-1.47,0.24c-0.51,0.04-1.01-0.01-1.51-0.13
		c-0.5-0.12-0.97-0.33-1.43-0.62c-0.46-0.29-0.86-0.7-1.21-1.22c-0.33-0.48-0.54-0.95-0.62-1.4c-0.09-0.45-0.08-0.87,0.02-1.28
		c0.1-0.4,0.28-0.77,0.54-1.11c0.26-0.34,0.58-0.64,0.96-0.89c0.62-0.42,1.23-0.64,1.85-0.68c0.62-0.04,1.22,0.06,1.8,0.29
		c0.58,0.24,1.13,0.58,1.64,1.04c0.51,0.45,0.96,0.97,1.35,1.53c0.41-0.33,0.77-0.64,1.06-0.92c0.29-0.28,0.56-0.57,0.79-0.86
		c0.24-0.29,0.45-0.6,0.64-0.94c0.19-0.34,0.41-0.72,0.65-1.16l-4.17-6.18l2.61-1.76l25.5,37.76l-2.61,1.76l-8.7-12.89l-4.07,2.75
		c1.2,1.86,2.06,3.6,2.56,5.22c0.5,1.63,0.71,3.11,0.63,4.46c-0.08,1.35-0.42,2.53-1.01,3.56c-0.59,1.03-1.37,1.87-2.34,2.52
		c-0.58,0.39-1.24,0.72-1.99,0.98c-0.75,0.26-1.52,0.38-2.31,0.35c-0.8-0.03-1.58-0.25-2.36-0.66c-0.78-0.41-1.48-1.08-2.12-2.03
		c-0.52-0.77-0.84-1.47-0.95-2.11c-0.11-0.64-0.1-1.21,0.03-1.71c0.13-0.5,0.35-0.93,0.64-1.29c0.29-0.35,0.59-0.63,0.89-0.83
		c0.37-0.25,0.77-0.42,1.19-0.51c0.43-0.09,0.85-0.1,1.28-0.02c0.42,0.08,0.83,0.24,1.21,0.5c0.39,0.26,0.73,0.6,1.01,1.02
		c0.31,0.46,0.5,0.92,0.55,1.37c0.06,0.45,0.03,0.88-0.08,1.27c-0.11,0.39-0.28,0.75-0.51,1.06c-0.23,0.31-0.47,0.55-0.74,0.73
		l0.1,0.22c0.87-0.24,1.6-0.56,2.19-0.96c0.76-0.51,1.31-1.15,1.66-1.91c0.35-0.76,0.49-1.62,0.43-2.58
		c-0.06-0.96-0.33-2.01-0.79-3.15c-0.47-1.14-1.13-2.34-1.99-3.61l-17.7,11.95l-1.19-1.76c1.31-1.59,2.28-3.01,2.94-4.28
		c0.65-1.27,1.09-2.41,1.31-3.44c0.22-1.03,0.27-1.95,0.15-2.78c-0.12-0.82-0.29-1.59-0.51-2.31c-0.05,0-0.27,0-0.65,0.01
		c-0.38,0.01-0.84-0.06-1.37-0.2c-0.53-0.14-1.1-0.38-1.7-0.73C259.16,499.46,258.63,498.94,258.15,498.24z M270.9,486.79
		c0.39,1.03,0.57,2.13,0.57,3.31c-0.01,1.18-0.2,2.34-0.58,3.48c-0.38,1.15-0.94,2.23-1.69,3.26c-0.74,1.03-1.66,1.91-2.75,2.65
		c0.23,0.9,0.39,1.69,0.49,2.38c0.1,0.69,0.14,1.33,0.12,1.92c-0.02,0.59-0.09,1.15-0.22,1.68c-0.13,0.54-0.3,1.1-0.52,1.7
		l0.06,0.09l10.1-6.82c-0.72-1.1-1.3-2.24-1.72-3.43c-0.42-1.19-0.62-2.37-0.6-3.53c0.02-1.17,0.3-2.29,0.83-3.37
		c0.53-1.07,1.39-2.06,2.58-2.95l-2.93-4.33c-0.15,0.26-0.33,0.53-0.54,0.83c-0.21,0.3-0.46,0.61-0.75,0.94
		c-0.3,0.33-0.64,0.67-1.04,1.04C271.91,486.01,271.44,486.39,270.9,486.79z M283.38,495.79l-3.98-5.89
		c-0.75,0.6-1.27,1.24-1.56,1.94c-0.28,0.7-0.4,1.43-0.35,2.18c0.05,0.75,0.25,1.51,0.58,2.28c0.34,0.77,0.75,1.52,1.24,2.24
		L283.38,495.79z"/>
	<path d="M293.99,513.65c0.32-0.31,0.55-0.67,0.71-1.07c0.16-0.4,0.23-0.82,0.22-1.26c0-0.43-0.1-0.87-0.28-1.3
		c-0.18-0.43-0.45-0.83-0.81-1.2l-0.66-0.67l2.25-2.2l0.66,0.67c0.24,0.24,0.5,0.55,0.76,0.92c0.27,0.37,0.51,0.78,0.74,1.24
		c0.22,0.46,0.41,0.95,0.55,1.48c0.15,0.53,0.22,1.07,0.22,1.62l0.12-0.12c0.39-0.38,0.8-0.6,1.23-0.68
		c0.43-0.07,0.78,0.04,1.06,0.32l3.4,3.48l-2.25,2.2l-0.61-0.63c-0.36-0.37-0.75-0.65-1.18-0.84c-0.43-0.19-0.86-0.3-1.31-0.32
		c-0.44-0.03-0.87,0.03-1.28,0.17c-0.41,0.14-0.78,0.37-1.09,0.68l-18.24,17.87l-2.46-2.51L293.99,513.65z"/>
	<path d="M301.51,554.73c0.06-0.81,0.03-1.76-0.08-2.86c-0.11-1.1-0.33-2.28-0.65-3.56c-0.32-1.28-0.73-2.61-1.25-4
		c-0.52-1.39-1.15-2.79-1.91-4.19c-0.75-1.4-1.62-2.78-2.61-4.14c-0.99-1.35-2.11-2.63-3.36-3.83l2.47-2.55
		c0.19,0.17,0.4,0.37,0.62,0.61s0.46,0.48,0.7,0.74c0.24,0.26,0.48,0.52,0.71,0.8c0.23,0.27,0.44,0.53,0.64,0.76
		c0.21,0.2,0.4,0.39,0.59,0.58c0.19,0.19,0.43,0.4,0.72,0.63c0.53,0.42,1.12,0.83,1.77,1.23c0.65,0.4,1.34,0.77,2.04,1.1
		c0.71,0.33,1.42,0.6,2.13,0.81c0.72,0.21,1.4,0.34,2.06,0.37c0.66,0.03,1.26-0.04,1.82-0.22c0.55-0.18,1.01-0.5,1.38-0.96
		c0.37-0.47,0.58-0.99,0.62-1.55c0.04-0.56-0.04-1.12-0.23-1.67c-0.19-0.55-0.47-1.06-0.82-1.55c-0.35-0.48-0.73-0.88-1.12-1.19
		c-0.04-0.04-0.08-0.07-0.12-0.09c-0.03-0.03-0.08-0.06-0.15-0.09c-0.59,0.39-1.2,0.66-1.85,0.8c-0.64,0.14-1.27,0.19-1.89,0.15
		c-0.61-0.04-1.19-0.17-1.73-0.37c-0.54-0.2-1-0.45-1.38-0.76c-0.37-0.29-0.65-0.61-0.83-0.97c-0.19-0.35-0.29-0.71-0.31-1.07
		c-0.02-0.36,0.03-0.72,0.15-1.07c0.12-0.35,0.3-0.67,0.54-0.98c0.34-0.42,0.74-0.75,1.22-0.98c0.47-0.22,0.98-0.37,1.52-0.42
		c0.54-0.06,1.09-0.03,1.66,0.06c0.57,0.1,1.12,0.26,1.65,0.48c0.06-0.14,0.13-0.34,0.23-0.62c0.1-0.27,0.2-0.57,0.31-0.87
		c0.11-0.31,0.21-0.6,0.3-0.89c0.09-0.28,0.15-0.52,0.18-0.69l-7.66-6.1l1.96-2.46l16.6,13.23c0.42-0.8,0.67-1.52,0.75-2.17
		c0.08-0.65,0.05-1.23-0.11-1.75c-0.16-0.52-0.42-0.99-0.78-1.42c-0.36-0.42-0.76-0.81-1.21-1.17c-0.51-0.41-1-0.74-1.47-0.99
		c-0.47-0.25-0.94-0.49-1.42-0.72c-0.48-0.23-0.98-0.49-1.51-0.79c-0.52-0.3-1.09-0.69-1.72-1.19c-1.3-1.03-2.24-2.09-2.84-3.15
		c-0.6-1.07-0.93-2.14-0.99-3.19c-0.06-1.06,0.1-2.09,0.5-3.1c0.39-1.01,0.93-1.98,1.62-2.91l2.75,2.19
		c-0.56,0.91-0.93,1.72-1.11,2.44c-0.18,0.72-0.22,1.38-0.12,1.97c0.1,0.59,0.33,1.12,0.67,1.59c0.35,0.47,0.77,0.9,1.26,1.29
		c0.48,0.38,1.01,0.74,1.58,1.07c0.58,0.33,1.16,0.65,1.75,0.95c0.59,0.31,1.16,0.62,1.72,0.93c0.56,0.32,1.06,0.65,1.51,1.01
		c1.17,0.93,2.03,1.88,2.58,2.85c0.55,0.96,0.86,1.93,0.93,2.88c0.08,0.96-0.04,1.9-0.34,2.84c-0.31,0.93-0.72,1.84-1.26,2.71
		l2.11,1.68l-1.96,2.46l-10.84-8.64c-0.02,0.09-0.07,0.25-0.16,0.48c-0.09,0.22-0.18,0.47-0.28,0.73c-0.1,0.26-0.21,0.52-0.31,0.76
		c-0.1,0.25-0.18,0.43-0.23,0.56c0.94,0.81,1.75,1.71,2.41,2.72c0.66,1,1.14,2.02,1.44,3.06c0.3,1.04,0.37,2.07,0.24,3.08
		c-0.13,1.02-0.53,1.93-1.18,2.75c-0.63,0.79-1.4,1.37-2.3,1.72c-0.91,0.36-1.87,0.55-2.91,0.57c-1.03,0.03-2.09-0.09-3.18-0.34
		c-1.09-0.25-2.12-0.59-3.1-1.01l-0.08,0.1c0.69,1.15,1.31,2.35,1.86,3.6c0.55,1.25,1,2.52,1.36,3.81c0.36,1.29,0.61,2.58,0.76,3.88
		c0.15,1.29,0.17,2.55,0.08,3.77L301.51,554.73z"/>
	<path d="M361.69,557.11l1.18,3.01c-3.6,2.96-6.09,6.25-7.49,9.87c-0.66,1.7-1.09,3.48-1.28,5.33c-0.19,1.85-0.17,3.82,0.06,5.91
		l-3.05,1.48c-0.6-2.29-0.81-4.63-0.61-7.03c0.19-2.4,0.72-4.72,1.59-6.97c0.72-1.87,1.64-3.61,2.76-5.23
		c1.12-1.62,2.41-3.05,3.87-4.29c-0.66-0.28-1.34-0.64-2.06-1.05c-0.72-0.42-1.43-0.9-2.12-1.45c-0.69-0.55-1.34-1.18-1.94-1.88
		c-0.6-0.7-1.11-1.47-1.54-2.32c-0.42-0.84-0.73-1.77-0.91-2.76c-0.18-1-0.19-2.07-0.02-3.21l-2.1-0.81c-1,0.21-1.94,0.53-2.83,0.97
		c-0.89,0.44-1.7,0.95-2.43,1.53c-0.73,0.58-1.37,1.23-1.9,1.93c-0.54,0.7-0.95,1.43-1.24,2.17c-0.21,0.55-0.35,1.08-0.41,1.6
		c-0.06,0.52-0.04,1,0.07,1.44c0.11,0.44,0.31,0.84,0.6,1.18c0.29,0.35,0.67,0.62,1.15,0.8c0.53,0.21,1.1,0.3,1.7,0.28
		c0.6-0.02,1.2-0.11,1.8-0.27c0.6-0.16,1.19-0.36,1.76-0.6c0.57-0.25,1.09-0.5,1.55-0.75c0.47-0.26,0.86-0.49,1.18-0.7
		c0.32-0.21,0.54-0.37,0.65-0.46l0.28,0.11c0.49,0.74,0.87,1.56,1.13,2.45c0.26,0.89,0.41,1.81,0.45,2.75
		c0.04,0.94-0.02,1.89-0.18,2.85c-0.16,0.96-0.41,1.87-0.75,2.75c-0.56,1.45-1.34,2.74-2.33,3.85c-0.99,1.12-2.14,1.99-3.44,2.62
		c-1.3,0.63-2.72,0.98-4.27,1.04c-1.55,0.07-3.16-0.22-4.84-0.87c-1.73-0.67-3.16-1.58-4.27-2.73c-1.12-1.15-2-2.48-2.65-4
		c-0.65-1.51-1.09-3.17-1.32-4.98c-0.23-1.81-0.33-3.7-0.29-5.67c0.04-1.98,0.19-4,0.44-6.08c0.25-2.08,0.54-4.14,0.88-6.18
		l2.99-0.89l0.12,0.05c-0.29,2.12-0.53,4.2-0.72,6.25c-0.19,2.04-0.3,3.99-0.31,5.85c-0.02,1.86,0.08,3.61,0.28,5.25
		c0.2,1.64,0.55,3.12,1.05,4.44c0.5,1.32,1.17,2.46,2.01,3.41c0.84,0.95,1.89,1.67,3.14,2.15c0.98,0.38,2,0.58,3.04,0.59
		c1.04,0.01,2.03-0.16,2.97-0.53c0.94-0.37,1.79-0.92,2.55-1.66c0.76-0.74,1.35-1.66,1.78-2.77c0.26-0.68,0.46-1.42,0.58-2.24
		c0.12-0.81,0.14-1.65,0.06-2.5c-1.55,0.84-3.02,1.3-4.41,1.39c-1.39,0.08-2.63-0.09-3.74-0.52c-0.92-0.35-1.69-0.88-2.3-1.57
		c-0.61-0.69-1.07-1.49-1.36-2.4c-0.29-0.91-0.41-1.9-0.36-2.97c0.06-1.07,0.3-2.16,0.72-3.27c0.6-1.54,1.47-2.91,2.61-4.1
		c1.14-1.19,2.46-2.14,3.97-2.86l-15.86-6.14l1.14-2.94l37.79,13.41l1.65,4.08l-14.37-4.41c-0.11,0.95-0.02,1.83,0.27,2.63
		c0.29,0.8,0.69,1.53,1.2,2.18c0.51,0.65,1.1,1.23,1.75,1.73c0.66,0.51,1.3,0.94,1.94,1.31c0.64,0.37,1.23,0.67,1.77,0.9
		C361,556.84,361.41,557.01,361.69,557.11z"/>
	<path d="M369.05,555.32c0.09-0.44,0.08-0.86-0.02-1.28c-0.1-0.42-0.27-0.81-0.52-1.16c-0.25-0.36-0.57-0.66-0.97-0.91
		c-0.4-0.25-0.84-0.43-1.35-0.53l-0.92-0.18l0.61-3.09l0.92,0.18c0.34,0.07,0.72,0.18,1.15,0.33c0.43,0.15,0.87,0.35,1.31,0.61
		c0.44,0.25,0.87,0.56,1.29,0.91c0.42,0.35,0.78,0.76,1.1,1.21l0.03-0.17c0.11-0.53,0.31-0.95,0.63-1.25
		c0.31-0.3,0.67-0.41,1.06-0.34l4.77,0.95l-0.61,3.09l-0.86-0.17c-0.5-0.1-0.99-0.11-1.45-0.03c-0.46,0.08-0.88,0.24-1.26,0.47
		c-0.38,0.23-0.7,0.52-0.96,0.87c-0.26,0.35-0.43,0.74-0.52,1.18l-4.96,25.05l-3.45-0.68L369.05,555.32z"/>
	<path d="M388.16,551.75l-0.39,2.93l-4.44-0.36l-3.55,28.57l-3.49-0.43l3.55-28.57l-4.47-0.56l0.39-3.12l4.46,0.55
		c-0.49-1.37-0.67-2.62-0.53-3.76c0.15-1.23,0.64-2.3,1.47-3.22c0.83-0.91,1.9-1.65,3.22-2.21s2.85-0.93,4.59-1.1
		c1.73-0.17,3.58-0.14,5.53,0.1c2.17,0.27,4.19,0.74,6.08,1.4c1.88,0.66,3.56,1.39,5.04,2.18c1.48,0.79,2.72,1.57,3.73,2.33
		c1.01,0.77,1.72,1.39,2.15,1.88l-2.12,2.8c-0.67-0.65-1.47-1.34-2.42-2.09c-0.94-0.75-2.04-1.47-3.29-2.16
		c-1.25-0.69-2.67-1.3-4.24-1.84c-1.57-0.54-3.32-0.93-5.25-1.17c-1.49-0.18-2.89-0.24-4.2-0.18c-1.31,0.07-2.47,0.26-3.47,0.58
		c-1.01,0.32-1.82,0.77-2.45,1.35c-0.63,0.58-0.99,1.28-1.09,2.12c-0.06,0.48-0.03,1.01,0.09,1.58c0.12,0.57,0.33,1.18,0.66,1.84
		L388.16,551.75z"/>
	<path d="M420.06,551.59L420.06,551.59c0.04,1.83-1.44,3.33-3.27,3.31l-31.95-0.29l-0.07-2.76L420.06,551.59z M389.78,557.81
		c0.58,1.96,1.21,3.83,1.91,5.6c0.7,1.78,1.46,3.43,2.27,4.97c0.81,1.54,1.68,2.93,2.61,4.17c0.92,1.24,1.9,2.3,2.93,3.18
		c1.03,0.87,2.13,1.54,3.27,2c1.15,0.46,2.34,0.67,3.58,0.64c1.24-0.03,2.37-0.33,3.39-0.9c1.01-0.57,1.89-1.31,2.61-2.2
		c0.73-0.9,1.29-1.89,1.68-2.99c0.39-1.1,0.57-2.19,0.54-3.27c-0.02-0.79-0.16-1.59-0.42-2.4c-0.26-0.81-0.65-1.56-1.16-2.23
		c-0.51-0.67-1.15-1.24-1.91-1.69c-0.77-0.45-1.67-0.71-2.7-0.77l-0.19,0.3c0.29,0.35,0.55,0.77,0.76,1.27
		c0.21,0.5,0.32,1.02,0.34,1.58c0.02,0.64-0.11,1.25-0.36,1.84c-0.26,0.59-0.61,1.1-1.06,1.54c-0.45,0.44-0.97,0.79-1.56,1.06
		c-0.59,0.27-1.22,0.42-1.87,0.43c-0.66,0.02-1.28-0.1-1.88-0.35c-0.6-0.25-1.12-0.61-1.58-1.08c-0.45-0.47-0.82-1.03-1.1-1.7
		c-0.28-0.66-0.43-1.4-0.45-2.2c-0.02-1.03,0.17-1.93,0.58-2.69c0.41-0.77,0.97-1.41,1.69-1.94c0.72-0.52,1.55-0.92,2.51-1.18
		c0.96-0.26,1.97-0.41,3.04-0.44c1.77-0.04,3.32,0.23,4.64,0.81c1.32,0.58,2.42,1.36,3.3,2.33c0.88,0.97,1.54,2.08,1.99,3.33
		c0.44,1.25,0.68,2.52,0.71,3.82c0.04,1.54-0.19,3.08-0.67,4.61c-0.49,1.53-1.21,2.91-2.18,4.14c-0.97,1.23-2.18,2.24-3.63,3.02
		c-1.45,0.79-3.12,1.2-5.02,1.24c-1.4,0.03-2.72-0.16-3.96-0.58c-1.24-0.42-2.41-1.01-3.5-1.77c-1.1-0.76-2.12-1.65-3.07-2.67
		c-0.95-1.02-1.83-2.11-2.63-3.28c-0.8-1.17-1.52-2.37-2.16-3.61c-0.64-1.24-1.22-2.46-1.73-3.66c-0.51-1.2-0.93-2.34-1.28-3.42
		c-0.35-1.08-0.62-2.05-0.83-2.91l2.42-1.96L389.78,557.81z"/>
	<path d="M436.42,550.32l-19.68,4.48l-0.7-3.07l27.49-6.25l0.7,3.07l-4.39,1l6.58,28.91l-2.05,0.47c-0.72-1.02-1.57-1.98-2.58-2.87
		c-1-0.89-2.09-1.71-3.26-2.44c-1.17-0.74-2.39-1.39-3.66-1.96c-1.27-0.57-2.53-1.05-3.77-1.45c-1.24-0.4-2.43-0.7-3.57-0.92
		c-1.14-0.22-2.17-0.33-3.08-0.34l-1.02-4.49c0.83-0.86,1.75-1.81,2.76-2.84c1.01-1.03,2.1-2.04,3.27-3.05
		c1.17-1.01,2.4-1.95,3.69-2.83c1.29-0.88,2.62-1.6,4-2.16L436.42,550.32z M441.2,571.34l-3.26-14.33c-0.56,0.2-1.17,0.51-1.83,0.92
		c-0.67,0.41-1.35,0.89-2.05,1.43c-0.7,0.54-1.39,1.11-2.08,1.72c-0.69,0.61-1.34,1.19-1.95,1.75s-1.16,1.09-1.65,1.58
		c-0.49,0.49-0.87,0.89-1.16,1.19l0.1,0.46c2.24,0.27,4.54,0.83,6.88,1.7c2.34,0.87,4.63,2.07,6.87,3.61L441.2,571.34z
		 M428.98,577.19c-0.09-0.38-0.09-0.74-0.03-1.09c0.07-0.35,0.19-0.67,0.37-0.96c0.18-0.29,0.42-0.54,0.71-0.76
		c0.29-0.21,0.62-0.36,1-0.45c0.38-0.09,0.74-0.1,1.09-0.03c0.35,0.07,0.67,0.19,0.96,0.37c0.29,0.18,0.54,0.42,0.75,0.71
		c0.21,0.29,0.36,0.62,0.45,1c0.09,0.38,0.1,0.74,0.03,1.09c-0.07,0.35-0.19,0.67-0.37,0.97c-0.18,0.29-0.42,0.54-0.71,0.75
		c-0.29,0.21-0.62,0.36-1,0.45c-0.37,0.09-0.74,0.09-1.09,0.03c-0.35-0.06-0.67-0.19-0.96-0.37c-0.29-0.18-0.54-0.42-0.75-0.71
		C429.21,577.9,429.06,577.57,428.98,577.19z"/>
	<path d="M468.22,533.93l1.37,2.83l-3.43,1.66c-1.03,0.5-1.83,1.31-2.4,2.42c-0.57,1.12-0.9,2.42-1.01,3.92
		c-0.1,1.49,0.03,3.12,0.4,4.87c0.37,1.75,0.97,3.51,1.83,5.27c0.45,0.94,0.96,1.84,1.51,2.71c0.55,0.87,1.14,1.67,1.75,2.4
		c0.61,0.74,1.24,1.4,1.9,1.98c0.66,0.59,1.32,1.07,1.98,1.45l0.19-0.14c-0.15-0.31-0.25-0.67-0.29-1.07
		c-0.05-0.41-0.01-0.82,0.1-1.23s0.31-0.8,0.6-1.18c0.29-0.38,0.7-0.7,1.23-0.95c0.49-0.24,0.98-0.37,1.46-0.39
		c0.49-0.02,0.95,0.04,1.37,0.19c0.42,0.15,0.8,0.38,1.14,0.68c0.33,0.3,0.6,0.65,0.8,1.06c0.17,0.35,0.29,0.76,0.36,1.24
		c0.07,0.48,0.04,0.98-0.1,1.51c-0.14,0.53-0.42,1.05-0.85,1.57c-0.43,0.51-1.05,0.97-1.87,1.37c-0.94,0.45-1.87,0.69-2.8,0.71
		s-1.83-0.13-2.72-0.46c-0.89-0.33-1.76-0.82-2.6-1.45c-0.84-0.64-1.64-1.39-2.4-2.24c-0.76-0.85-1.47-1.8-2.14-2.83
		c-0.67-1.03-1.28-2.11-1.82-3.25c-0.84-1.74-1.49-3.39-1.94-4.98c-0.45-1.58-0.75-3.07-0.89-4.45c-0.14-1.39-0.14-2.65,0-3.81
		c0.14-1.16,0.37-2.17,0.68-3.06c0.32-0.88,0.71-1.62,1.17-2.21c0.46-0.59,0.95-1.01,1.46-1.26L468.22,533.93z"/>
	<path d="M490.48,549.81c-0.63,0.44-1.25,0.74-1.86,0.89c-0.61,0.15-1.19,0.19-1.73,0.11c-0.54-0.07-1.03-0.25-1.47-0.52
		c-0.44-0.28-0.8-0.62-1.09-1.03c-0.32-0.45-0.54-0.97-0.66-1.55c-0.12-0.58-0.12-1.18,0.01-1.79c0.13-0.61,0.39-1.22,0.78-1.82
		c0.39-0.6,0.94-1.15,1.64-1.64c0.29-0.21,0.58-0.37,0.85-0.51c0.27-0.13,0.62-0.26,1.04-0.38c-0.87-1.19-1.76-2.13-2.66-2.83
		c-0.9-0.7-1.8-1.22-2.69-1.57c-0.89-0.34-1.76-0.54-2.62-0.59c-0.86-0.05-1.68-0.02-2.46,0.09c-0.78,0.11-1.52,0.28-2.2,0.5
		c-0.68,0.22-1.3,0.43-1.85,0.62l-1.61-2.29l-5.03,2.31l-1.43-2L492.74,517l1.81,2.57l-3.68,2.59l17.07,24.24l-1.72,1.21
		c-0.87-0.57-1.85-1.06-2.92-1.47c-1.07-0.41-2.18-0.74-3.33-0.99c-1.15-0.25-2.31-0.44-3.48-0.55c-1.17-0.11-2.29-0.15-3.38-0.13
		c0.11,1-0.07,1.98-0.54,2.93C492.1,548.36,491.4,549.16,490.48,549.81z M500.4,541.81L488,524.18l-13.56,9.54
		c2.01-0.45,3.85-0.59,5.54-0.41c1.69,0.18,3.24,0.61,4.66,1.29c1.43,0.68,2.73,1.59,3.93,2.71c1.19,1.12,2.3,2.42,3.33,3.88
		c1.35-0.06,2.73-0.04,4.14,0.07c1.4,0.11,2.83,0.32,4.26,0.62L500.4,541.81z"/>
	<path d="M505.52,507.16l-11.65,13.12c-0.97,1.09-2.63,1.19-3.72,0.22l-0.38-0.34l26.33-29.65l4.14-1.5l-12.38,15.53l10.06,8.93
		c1.11,0.02,2.17-0.2,3.17-0.64c1-0.44,1.83-1.03,2.5-1.78c0.4-0.45,0.72-0.94,0.95-1.48c0.24-0.54,0.36-1.08,0.37-1.65
		c0.01-0.56-0.1-1.12-0.34-1.69c-0.24-0.56-0.64-1.09-1.2-1.6c-0.34-0.3-0.7-0.55-1.08-0.73c-0.38-0.19-0.82-0.32-1.32-0.4
		l-0.14,0.19c0.19,0.22,0.34,0.48,0.48,0.77c0.13,0.29,0.22,0.6,0.25,0.93c0.03,0.33,0,0.67-0.11,1.03
		c-0.11,0.36-0.32,0.72-0.64,1.07c-0.31,0.35-0.66,0.62-1.03,0.79c-0.37,0.17-0.76,0.27-1.15,0.28c-0.39,0.01-0.78-0.05-1.17-0.2
		c-0.38-0.15-0.74-0.37-1.06-0.65c-0.28-0.25-0.52-0.55-0.72-0.9c-0.2-0.35-0.32-0.75-0.35-1.19c-0.03-0.44,0.05-0.91,0.23-1.42
		c0.19-0.51,0.53-1.05,1.04-1.62c0.68-0.77,1.41-1.32,2.19-1.65c0.78-0.33,1.56-0.48,2.35-0.47c0.78,0.02,1.55,0.19,2.31,0.52
		c0.75,0.32,1.44,0.76,2.06,1.31c0.78,0.69,1.38,1.49,1.81,2.38c0.43,0.9,0.67,1.82,0.73,2.76c0.06,0.95-0.08,1.9-0.39,2.85
		c-0.32,0.95-0.83,1.82-1.54,2.63c-0.69,0.78-1.51,1.43-2.46,1.94c-0.95,0.52-1.94,0.86-3,1.03l9.37,8.32l-1.39,1.57
		c-1.18-0.42-2.44-0.69-3.77-0.83c-1.34-0.14-2.7-0.16-4.07-0.08c-1.38,0.09-2.75,0.26-4.12,0.52c-1.37,0.26-2.67,0.59-3.9,0.99
		c-1.23,0.4-2.37,0.84-3.43,1.34c-1.06,0.49-1.96,1-2.71,1.52l-3.44-3.06c0.17-1.18,0.37-2.49,0.6-3.91
		c0.22-1.43,0.52-2.89,0.89-4.39c0.37-1.5,0.82-2.98,1.35-4.44c0.54-1.46,1.2-2.83,2-4.09L505.52,507.16z M521.64,521.47
		l-10.99-9.76c-0.33,0.49-0.65,1.09-0.95,1.82c-0.3,0.73-0.58,1.51-0.83,2.36c-0.25,0.85-0.48,1.71-0.69,2.61
		c-0.21,0.89-0.4,1.75-0.57,2.56c-0.17,0.82-0.31,1.56-0.42,2.25c-0.11,0.68-0.2,1.23-0.25,1.64l0.35,0.31
		c2.01-1.1,4.2-1.98,6.57-2.63c2.37-0.65,4.94-1,7.7-1.06L521.64,521.47z M515.1,533.34c-0.29-0.25-0.51-0.55-0.66-0.87
		c-0.15-0.32-0.24-0.66-0.26-1c-0.02-0.34,0.02-0.68,0.14-1.03c0.11-0.34,0.3-0.65,0.55-0.94c0.26-0.29,0.55-0.51,0.87-0.66
		c0.32-0.15,0.66-0.24,1-0.26c0.34-0.02,0.69,0.02,1.03,0.14c0.34,0.11,0.66,0.29,0.94,0.55s0.51,0.55,0.66,0.87
		c0.15,0.32,0.24,0.66,0.26,1c0.02,0.34-0.03,0.68-0.14,1.02c-0.11,0.34-0.3,0.65-0.55,0.94c-0.26,0.29-0.55,0.51-0.87,0.66
		c-0.32,0.15-0.66,0.24-1,0.26c-0.34,0.02-0.68-0.02-1.02-0.14C515.7,533.78,515.39,533.6,515.1,533.34z"/>
	<path d="M537.91,497.86l-2.96,0.44l-15.85-8.79l-3.12,5.62l-2.76-1.53l14.43-26.03l2.75,1.53l-9.61,17.33l11.41,6.32l0.06-0.11
		c-0.39-1.24-0.73-2.6-1.02-4.07c-0.3-1.47-0.52-2.94-0.67-4.41c-0.15-1.47-0.21-2.88-0.17-4.24c0.03-1.35,0.18-2.54,0.46-3.57
		l3.42-0.95c0.48,0.79,1.02,1.56,1.64,2.3c0.62,0.75,1.28,1.46,2.01,2.13c0.72,0.67,1.48,1.29,2.27,1.87
		c0.79,0.58,1.6,1.09,2.42,1.55c1.06,0.59,2.06,1.07,2.99,1.43c0.93,0.36,1.84,0.64,2.73,0.84c0.89,0.2,1.77,0.33,2.66,0.41
		c0.89,0.08,1.81,0.12,2.77,0.13l1.05,3.23c-0.86,0.14-1.83,0.21-2.9,0.19c-1.07-0.01-2.18-0.12-3.33-0.31
		c-1.15-0.2-2.3-0.48-3.46-0.87c-1.16-0.38-2.26-0.86-3.3-1.43c-1.52-0.84-3.01-1.83-4.46-2.95c-1.45-1.12-2.71-2.34-3.78-3.65
		c-0.15,1.32-0.09,2.76,0.16,4.3c0.25,1.54,0.61,3.1,1.08,4.68c0.47,1.58,0.98,3.09,1.55,4.56c0.57,1.47,1.09,2.78,1.58,3.93
		L537.91,497.86z"/>
	<path d="M540.54,446.73l-4.86-5.06l0.03-0.12c1.61-1.13,3.06-2.04,4.33-2.73c1.27-0.69,2.43-1.21,3.47-1.55
		c1.04-0.34,1.99-0.52,2.85-0.54c0.86-0.02,1.68,0.09,2.46,0.31c1.03,0.29,2.05,0.78,3.06,1.45c1.01,0.67,1.88,1.49,2.6,2.43
		c1-0.23,1.97-0.35,2.92-0.35c0.94,0,1.83,0.12,2.67,0.36c1.09,0.31,2.05,0.81,2.9,1.51c0.85,0.7,1.52,1.57,2.01,2.61
		c0.49,1.04,0.77,2.26,0.83,3.65c0.06,1.39-0.14,2.93-0.63,4.62c-0.76,2.68-2.05,5.09-3.86,7.23c-1.81,2.14-4.06,3.97-6.75,5.49
		c-2.68,1.52-5.77,2.72-9.25,3.58c-3.48,0.86-7.27,1.36-11.37,1.51l-1.16-2.89l0.04-0.12c3.91-0.12,7.51-0.59,10.8-1.42
		c3.29-0.83,6.18-1.95,8.68-3.34c2.5-1.4,4.58-3.04,6.23-4.93c1.65-1.89,2.8-3.95,3.44-6.19c0.31-1.1,0.47-2.1,0.46-3
		c0-0.9-0.14-1.69-0.4-2.38c-0.26-0.68-0.65-1.25-1.14-1.71c-0.5-0.45-1.08-0.78-1.77-0.97c-0.93-0.27-1.95-0.28-3.04-0.04
		c0.11,0.51,0.16,1.02,0.15,1.54c-0.01,0.52-0.09,1.04-0.24,1.58c-0.22,0.78-0.54,1.39-0.94,1.82c-0.4,0.43-0.84,0.73-1.3,0.9
		c-0.47,0.17-0.92,0.25-1.38,0.23c-0.46-0.02-0.85-0.08-1.18-0.17c-0.44-0.13-0.85-0.33-1.24-0.6c-0.39-0.27-0.71-0.62-0.96-1.03
		c-0.25-0.41-0.41-0.88-0.49-1.42c-0.08-0.53-0.02-1.12,0.16-1.77c0.18-0.62,0.44-1.17,0.8-1.65c0.35-0.49,0.77-0.92,1.25-1.3
		c-0.26-0.39-0.61-0.75-1.05-1.1c-0.44-0.35-0.98-0.61-1.62-0.8c-0.66-0.19-1.32-0.25-1.98-0.18c-0.66,0.06-1.29,0.2-1.89,0.41
		c-0.6,0.21-1.17,0.47-1.71,0.78c-0.53,0.32-1.01,0.62-1.42,0.92l5.5,6.02l-0.11,0.37c-0.74,0.16-1.5,0.33-2.28,0.5
		c-0.78,0.17-1.55,0.37-2.31,0.59c-0.76,0.22-1.49,0.47-2.19,0.76c-0.7,0.28-1.33,0.62-1.9,1.01c-0.57,0.39-1.06,0.83-1.47,1.32
		c-0.41,0.49-0.7,1.06-0.89,1.71c-0.2,0.69-0.23,1.35-0.11,2c0.12,0.65,0.36,1.25,0.71,1.8c0.36,0.55,0.81,1.02,1.34,1.42
		c0.54,0.4,1.13,0.69,1.76,0.87c0.58,0.17,1.17,0.23,1.79,0.21c0.62-0.02,1.22-0.15,1.8-0.39l0.02-0.24
		c-0.31-0.09-0.63-0.25-0.95-0.47c-0.31-0.22-0.59-0.5-0.82-0.85c-0.23-0.34-0.39-0.73-0.47-1.17c-0.08-0.44-0.05-0.91,0.09-1.42
		c0.15-0.52,0.39-0.96,0.71-1.32c0.33-0.36,0.7-0.64,1.12-0.85c0.42-0.21,0.87-0.33,1.34-0.36c0.47-0.04,0.92,0.01,1.34,0.13
		c0.43,0.12,0.82,0.32,1.18,0.6c0.36,0.28,0.64,0.64,0.85,1.08c0.21,0.44,0.33,0.96,0.37,1.56c0.04,0.6-0.05,1.27-0.26,2.01
		c-0.26,0.91-0.65,1.73-1.19,2.46c-0.53,0.73-1.19,1.32-1.97,1.77s-1.68,0.72-2.71,0.83c-1.03,0.11-2.16-0.01-3.39-0.37
		c-1.36-0.39-2.48-0.95-3.36-1.69c-0.88-0.74-1.54-1.58-1.99-2.51c-0.45-0.93-0.7-1.92-0.75-2.97c-0.05-1.05,0.07-2.09,0.36-3.1
		c0.26-0.91,0.6-1.72,1.02-2.45c0.42-0.72,0.96-1.37,1.61-1.94c0.65-0.56,1.44-1.04,2.35-1.42c0.92-0.39,2-0.69,3.25-0.91
		L540.54,446.73z"/>
</g>
<g>
	<path class="st2" d="M306.86,342.72c0.17-1.25-0.52-2.57-1.64-3.15c-0.43-0.22-0.94-0.37-1.19-0.78c-0.65-1.1,1.28-2.3,0.95-3.54
		c-0.86-1.35-2.72-1.49-4.27-1.88c-1.55-0.39-3.26-1.84-2.6-3.29c-1.49-0.47-3.08,0.68-3.74,2.1c-0.65,1.42-0.64,3.04-0.78,4.59
		c-0.16,1.87-0.8,4.01-2.55,4.68c-0.41,0.16-0.88,0.22-1.22,0.5c-0.62,0.5-0.62,1.43-0.56,2.22c0.17,2.24,0.34,4.52,1.21,6.58
		c0.87,2.07,2.56,3.92,4.75,4.38c0.34,0.07,0.73,0.13,0.95,0.4c0.15,0.19,0.18,0.43,0.2,0.67c0.2,2.21,0.38,3.22,1.04,3.8
		c0.08-0.01,0.15-0.02,0.22-0.02h5.46c0.18,0,0.35,0.03,0.51,0.05c0.01-0.05,0.01-0.1,0.02-0.15c0.21-1,1.32-1.6,1.56-2.59
		c0.28-1.16-0.73-2.25-0.75-3.44c-0.03-2.18,3.2-3.95,2.15-5.87c-0.57-1.05-2.27-1.49-2.17-2.68
		C305.66,345.06,306.69,343.97,306.86,342.72z"/>
	<path class="st3" d="M301.84,361.36c-2.46-0.59-3.72-0.73-4.42-1.36c-1.73,0.12-3.1,1.54-3.1,3.3v62.28c0,1.84,1.49,3.33,3.33,3.33
		h5.46c1.84,0,3.33-1.49,3.33-3.33v-62.28c0-1.66-1.22-3.03-2.81-3.28c-0.05,0.4-0.02,0.83-0.27,1.13
		C302.99,361.57,302.36,361.48,301.84,361.36z"/>
	<path class="st3" d="M297.64,359.98c-0.08,0-0.15,0.02-0.22,0.02c0.7,0.63,1.96,0.77,4.42,1.36c0.52,0.12,1.15,0.21,1.5-0.19
		c0.26-0.3,0.22-0.73,0.27-1.13c-0.17-0.03-0.34-0.05-0.51-0.05H297.64z"/>
	<path class="st4" d="M497.27,337.88l-8.28-4.97c-3.86,4.41-28.69,7.72-28.69,7.72c-28.69,2.21-28.69,16.55-28.69,16.55
		s0-14.34-28.69-16.55c0,0-24.83-3.31-28.69-7.72l-8.28,4.97l-10.48,76.14l67.86,14.9h7.17h2.21h7.17l67.86-14.9L497.27,337.88z
		 M422.79,422.29l-59.58-13.24l8.83-67.31l53.52,16L422.79,422.29z M437.14,357.74l53.52-16l8.83,67.31l-59.59,13.24L437.14,357.74z
		"/>
	<path class="st5" d="M406.88,361.63c0.27,0.02,0.55,0.06,0.83,0.14c0.7,0.19,1.27,0.5,1.74,0.93c0.46,0.42,0.82,0.91,1.06,1.46
		c0.24,0.55,0.38,1.14,0.41,1.76c0.03,0.62-0.04,1.24-0.21,1.84c-0.18,0.63-0.45,1.22-0.83,1.75c0.27,0.36,0.53,0.74,0.78,1.13
		c0.24,0.4,0.48,0.81,0.71,1.25l0.06,0.01l2.56-9.2l-7.66-2.13c0.1,0.12,0.2,0.28,0.31,0.48
		C406.71,361.25,406.8,361.44,406.88,361.63z"/>
	<path class="st5" d="M408.8,388.89c-1.24-0.31-1.97-0.39-2.43-0.4l-1.66,6.71l2.44,0.6c2.85,0.7,4.88-0.37,5.38-2.38
		C413.14,390.98,411.52,389.56,408.8,388.89z"/>
	<path class="st5" d="M383.28,355.06c0.27,0.02,0.55,0.06,0.83,0.14c0.7,0.19,1.27,0.5,1.74,0.93c0.46,0.42,0.81,0.91,1.06,1.46
		c0.24,0.55,0.38,1.14,0.41,1.76c0.03,0.62-0.04,1.24-0.2,1.84c-0.18,0.63-0.45,1.22-0.83,1.75c0.28,0.36,0.53,0.74,0.78,1.13
		c0.25,0.4,0.48,0.81,0.71,1.25l0.05,0.01l2.56-9.2l-7.66-2.13c0.1,0.12,0.2,0.28,0.31,0.48
		C383.11,354.69,383.2,354.88,383.28,355.06z"/>
	<path class="st5" d="M385.19,383.56l-0.06-0.02c-0.61,1.16-1.27,2.35-1.98,3.52l-3.53,5.53l6.28,1.55l-0.56-6.51
		C385.21,386.15,385.21,384.84,385.19,383.56z"/>
	<path class="st5" d="M406.44,397.79l-2.23-0.55l-1.96,7.95c0.5,0.22,1.27,0.44,2.23,0.68c2.78,0.69,5.61,0.3,6.35-2.73
		C411.53,400.3,409.38,398.52,406.44,397.79z"/>
	<path class="st5" d="M363.21,409.05l59.58,13.24l2.76-64.55l-53.52-16L363.21,409.05z M386.54,403.49l-0.61-7.11l-7.4-1.83
		l-3.79,6.03l-2.78-0.69l12.23-19.11l3.25,0.8l1.97,22.61L386.54,403.49z M415.33,393.82c-0.5,2.01-2.26,3.45-4.66,3.71l-0.02,0.06
		c1.86,0.98,3.77,3.2,3.01,6.29c-0.44,1.79-1.49,2.98-2.79,3.74c-1.78,0.97-4.29,1.01-7.69,0.17c-1.86-0.46-3.25-0.93-4.12-1.28
		l5.06-20.51c1.24,0.04,3.14,0.32,5.03,0.78c2.69,0.66,4.31,1.56,5.35,2.93C415.39,390.78,415.73,392.18,415.33,393.82z
		 M398.97,357.08l18.33,5.1c0.15,0.04,0.31,0.1,0.5,0.18c0.18,0.08,0.37,0.19,0.56,0.31c0.19,0.13,0.37,0.28,0.54,0.45
		c0.17,0.17,0.32,0.36,0.45,0.57l0.02-0.07c0.06-0.23,0.17-0.41,0.32-0.53c0.15-0.12,0.31-0.16,0.48-0.11l2.08,0.58l-0.37,1.34
		l-0.37-0.1c-0.22-0.06-0.43-0.08-0.64-0.06c-0.21,0.02-0.4,0.08-0.57,0.17c-0.18,0.09-0.33,0.21-0.45,0.35s-0.22,0.31-0.27,0.5
		l-3.03,10.9l-1.5-0.42l3.03-10.9c0.05-0.19,0.06-0.38,0.03-0.57c-0.03-0.19-0.09-0.37-0.19-0.53c-0.1-0.17-0.23-0.31-0.4-0.44
		c-0.17-0.12-0.36-0.22-0.58-0.28l-1.45-0.4l-3.52,12.66l-0.9-0.25c-0.05-0.43-0.14-0.86-0.27-1.29c-0.13-0.43-0.29-0.85-0.49-1.28
		c-0.19-0.42-0.42-0.83-0.67-1.24c-0.25-0.4-0.51-0.79-0.8-1.16c-0.54,0.4-1.18,0.67-1.91,0.81c-0.73,0.14-1.55,0.08-2.46-0.17
		c-0.62-0.17-1.16-0.42-1.65-0.75c-0.48-0.33-0.91-0.72-1.28-1.16c-0.37-0.44-0.7-0.93-0.97-1.46c-0.27-0.53-0.5-1.08-0.69-1.65
		c-0.19-0.57-0.33-1.15-0.45-1.74c-0.11-0.59-0.2-1.16-0.25-1.71c-0.06-0.55-0.09-1.08-0.1-1.57c-0.01-0.5,0-0.94,0.02-1.33
		l1.37-0.52l0.06,0.01c-0.02,1.33,0.05,2.58,0.2,3.74c0.15,1.17,0.39,2.2,0.73,3.11c0.33,0.91,0.77,1.67,1.31,2.28
		c0.54,0.61,1.19,1.02,1.96,1.24c0.56,0.16,1.08,0.2,1.58,0.13s0.95-0.22,1.35-0.45c0.4-0.23,0.75-0.53,1.03-0.9
		c0.28-0.37,0.49-0.78,0.61-1.22c0.1-0.37,0.14-0.75,0.13-1.14c-0.01-0.4-0.09-0.77-0.23-1.12c-0.14-0.35-0.34-0.67-0.59-0.96
		c-0.26-0.29-0.58-0.5-0.97-0.65l-0.12,0.11c0.07,0.16,0.12,0.35,0.14,0.57c0.02,0.21,0,0.43-0.06,0.65
		c-0.07,0.24-0.18,0.46-0.34,0.65c-0.16,0.19-0.34,0.35-0.56,0.47c-0.21,0.12-0.45,0.2-0.7,0.24c-0.25,0.04-0.5,0.02-0.75-0.05
		c-0.26-0.07-0.48-0.19-0.68-0.35c-0.2-0.16-0.36-0.36-0.48-0.59c-0.12-0.23-0.19-0.49-0.22-0.77c-0.03-0.28,0-0.58,0.09-0.89
		c0.11-0.38,0.28-0.7,0.52-0.96c0.24-0.26,0.53-0.46,0.86-0.59c-0.06-0.14-0.14-0.3-0.23-0.47c-0.09-0.17-0.18-0.34-0.29-0.51
		c-0.1-0.17-0.21-0.34-0.32-0.49c-0.11-0.16-0.22-0.29-0.33-0.4l-5.57-1.55L398.97,357.08z M375.37,350.52l19.09,5.31l-0.37,1.34
		l-2.22-0.62l-3.52,12.66l-0.9-0.25c-0.05-0.43-0.14-0.86-0.27-1.29c-0.13-0.43-0.29-0.85-0.49-1.28c-0.19-0.42-0.42-0.83-0.66-1.24
		c-0.25-0.4-0.52-0.79-0.8-1.16c-0.54,0.4-1.17,0.67-1.91,0.81s-1.55,0.08-2.45-0.17c-0.62-0.17-1.17-0.42-1.65-0.75
		c-0.48-0.33-0.91-0.72-1.28-1.16c-0.37-0.44-0.7-0.93-0.97-1.46c-0.27-0.53-0.5-1.08-0.69-1.65c-0.19-0.57-0.34-1.15-0.45-1.74
		c-0.11-0.59-0.2-1.16-0.25-1.71c-0.06-0.55-0.09-1.08-0.1-1.57c-0.01-0.5,0-0.94,0.02-1.33l1.36-0.52l0.06,0.01
		c-0.01,1.33,0.05,2.58,0.2,3.74c0.15,1.17,0.39,2.2,0.72,3.11c0.34,0.91,0.77,1.67,1.31,2.28c0.54,0.61,1.19,1.02,1.96,1.24
		c0.55,0.16,1.08,0.2,1.58,0.13c0.5-0.07,0.95-0.22,1.35-0.45c0.4-0.23,0.75-0.53,1.03-0.9c0.28-0.37,0.49-0.78,0.61-1.22
		c0.1-0.37,0.14-0.75,0.13-1.14c-0.02-0.4-0.09-0.77-0.23-1.12c-0.14-0.35-0.34-0.67-0.59-0.96c-0.26-0.29-0.58-0.5-0.97-0.65
		l-0.12,0.11c0.07,0.16,0.12,0.35,0.14,0.57c0.02,0.21,0,0.43-0.06,0.65c-0.07,0.24-0.18,0.46-0.34,0.65
		c-0.16,0.19-0.34,0.35-0.56,0.47c-0.22,0.12-0.45,0.2-0.7,0.24c-0.25,0.04-0.5,0.02-0.75-0.05c-0.26-0.07-0.48-0.19-0.68-0.35
		c-0.2-0.16-0.36-0.36-0.48-0.59c-0.12-0.23-0.19-0.49-0.22-0.77c-0.03-0.28,0-0.58,0.09-0.89c0.11-0.38,0.28-0.7,0.52-0.96
		c0.24-0.26,0.53-0.46,0.86-0.59c-0.07-0.14-0.14-0.3-0.23-0.47c-0.09-0.17-0.18-0.34-0.29-0.51c-0.1-0.17-0.21-0.34-0.32-0.49
		c-0.11-0.16-0.22-0.29-0.33-0.4l-5.57-1.55L375.37,350.52z"/>
	<path class="st5" d="M490.65,341.75l-53.52,16l2.76,64.55l59.59-13.24L490.65,341.75z M477.04,351.77l0.17,0.03
		c1.05,3.84,1.93,8.36,2.65,12.54c0.19,1.09,0.34,2.18,0.39,2.98c0.12,1-0.24,1.83-1.08,3.16l-0.25-0.09
		c-0.02-1.16-0.22-2.44-0.42-3.62l-0.3-1.76c-0.57-3.28-1.75-7.99-2.57-11.04C476,353.24,476.57,352.37,477.04,351.77z
		 M463.93,404.69c-0.06,0.48-0.17,0.96-0.33,1.45c-0.16,0.48-0.37,0.93-0.64,1.33c-0.27,0.41-0.6,0.76-0.99,1.06
		c-0.39,0.3-0.86,0.51-1.39,0.64c-0.33,0.08-0.66,0.11-0.97,0.09c-0.32-0.01-0.6-0.07-0.86-0.19c-0.26-0.11-0.48-0.27-0.66-0.48
		c-0.18-0.21-0.31-0.47-0.38-0.78c-0.09-0.39-0.07-0.76,0.06-1.1c0.13-0.34,0.33-0.64,0.6-0.91c0.27-0.27,0.58-0.49,0.93-0.68
		c0.36-0.18,0.71-0.32,1.07-0.4c0.22-0.05,0.45-0.09,0.69-0.1c0.24-0.02,0.47-0.03,0.7-0.02c0.17-0.38,0.28-0.74,0.31-1.08
		c0.03-0.34,0.02-0.65-0.05-0.94c-0.1-0.45-0.31-0.86-0.62-1.23c-0.31-0.37-0.68-0.72-1.13-1.04c-0.44-0.32-0.93-0.62-1.47-0.9
		c-0.54-0.28-1.08-0.56-1.63-0.83c-0.55-0.27-1.1-0.54-1.63-0.81c-0.53-0.27-1.02-0.55-1.46-0.85c-0.44-0.3-0.81-0.61-1.11-0.95
		c-0.3-0.34-0.5-0.71-0.59-1.11c-0.06-0.26-0.07-0.51-0.03-0.75c0.04-0.24,0.13-0.46,0.25-0.65c0.13-0.19,0.28-0.35,0.47-0.49
		c0.19-0.13,0.4-0.23,0.63-0.28c0.19-0.04,0.37-0.06,0.56-0.04c0.19,0.01,0.36,0.06,0.53,0.14c0.16,0.08,0.31,0.19,0.43,0.35
		c0.12,0.15,0.21,0.34,0.26,0.57c0.07,0.29,0.05,0.53-0.04,0.73c-0.09,0.2-0.26,0.4-0.5,0.59l0,0.07c0.17,0.2,0.42,0.39,0.74,0.58
		c0.32,0.19,0.69,0.39,1.1,0.59c0.41,0.2,0.86,0.41,1.33,0.63c0.48,0.22,0.96,0.46,1.44,0.72c0.48,0.26,0.95,0.54,1.41,0.84
		c0.46,0.3,0.88,0.63,1.27,1c0.39,0.37,0.72,0.77,1,1.2c0.28,0.43,0.48,0.91,0.6,1.44c0.08,0.35,0.13,0.74,0.15,1.19
		C464.02,403.75,464,404.21,463.93,404.69z M457.77,379.66c0.37-0.73,0.75-1.44,1.14-2.08c0.83,0.41,1.66,0.93,2.48,1.55
		c-0.28,0.71-0.66,1.39-1.18,2.01C459.39,380.6,458.59,380.14,457.77,379.66z M467.05,370.67c-1.4,1.22-5.78,3.2-9.33,3.81
		c-4.97,0.86-9.1-0.31-9.86-4.72c-0.25-1.45-0.21-2.94,0.31-4.52l0.77,0.18c-0.16,1.08-0.19,2.03-0.05,2.81
		c0.63,3.62,4.45,4.49,8.95,3.71c2.1-0.36,4.09-1.02,6-1.83c0.79-0.34,1.56-0.69,2.24-1.14c0.13-0.08,0.15-0.17,0.15-0.23
		c-0.15-0.84-1.31-2.45-2.56-4.12c0.3-0.85,0.63-1.6,0.99-2.26l0.09-0.02c1.08,1.31,2.43,3.38,2.74,5.16
		C467.72,368.85,467.41,369.74,467.05,370.67z M487.33,403.81c-0.33-0.31-0.77-0.62-1.31-0.94c-0.54-0.32-1.17-0.63-1.87-0.92
		c-0.7-0.29-1.47-0.56-2.3-0.81c-0.83-0.24-1.7-0.44-2.61-0.59c-0.91-0.15-1.84-0.24-2.8-0.27c-0.96-0.03-1.91,0.02-2.86,0.15
		l-0.25-1.95c0.14-0.02,0.3-0.04,0.48-0.06c0.18-0.02,0.37-0.03,0.56-0.05c0.2-0.02,0.39-0.03,0.59-0.03c0.2,0,0.38-0.01,0.55-0.02
		c0.16-0.02,0.37-0.05,0.62-0.09c0.26-0.04,0.49-0.09,0.71-0.14c0.36-0.08,0.75-0.2,1.16-0.35c0.41-0.15,0.81-0.32,1.21-0.53
		c0.4-0.21,0.78-0.43,1.14-0.69c0.36-0.25,0.67-0.53,0.92-0.83c0.25-0.3,0.44-0.61,0.55-0.94c0.11-0.33,0.13-0.68,0.05-1.04
		c-0.09-0.41-0.29-0.72-0.58-0.93c-0.29-0.21-0.65-0.36-1.07-0.45c-0.42-0.09-0.89-0.13-1.4-0.13c-0.51,0-1.03,0-1.57,0.01
		c-0.53,0.01-1.06,0-1.57-0.02c-0.52-0.02-0.99-0.09-1.42-0.21c-0.43-0.12-0.8-0.31-1.1-0.57c-0.3-0.26-0.51-0.62-0.62-1.09
		c-0.06-0.25-0.07-0.5-0.04-0.75c0.03-0.24,0.11-0.46,0.22-0.67c0.12-0.2,0.27-0.37,0.46-0.52c0.19-0.15,0.42-0.25,0.68-0.31
		c0.22-0.05,0.43-0.06,0.63-0.03c0.19,0.03,0.37,0.1,0.52,0.19c0.15,0.1,0.28,0.21,0.38,0.36c0.1,0.14,0.17,0.3,0.21,0.46
		c0.05,0.22,0.04,0.46-0.05,0.7c-0.08,0.25-0.24,0.47-0.48,0.67l0,0.07c0.41-0.04,0.89-0.08,1.44-0.12
		c0.55-0.05,1.13-0.06,1.73-0.06c0.6,0.01,1.2,0.05,1.8,0.14c0.6,0.09,1.15,0.24,1.66,0.45c0.51,0.22,0.95,0.51,1.32,0.89
		c0.37,0.38,0.63,0.87,0.76,1.47c0.15,0.64,0.13,1.24-0.06,1.79c-0.19,0.55-0.47,1.07-0.85,1.54c-0.38,0.47-0.82,0.9-1.32,1.27
		c-0.5,0.38-1,0.7-1.49,0.99l0.02,0.07c0.74,0.1,1.48,0.24,2.24,0.43c0.75,0.19,1.49,0.42,2.2,0.71c0.71,0.28,1.38,0.61,2.02,0.99
		c0.64,0.38,1.2,0.8,1.7,1.26L487.33,403.81z"/>
	<path d="M380.89,353.81c0.11,0.16,0.22,0.32,0.32,0.49c0.1,0.17,0.2,0.34,0.29,0.51c0.09,0.17,0.16,0.32,0.23,0.47
		c-0.33,0.14-0.62,0.33-0.86,0.59c-0.24,0.26-0.41,0.58-0.52,0.96c-0.09,0.31-0.12,0.61-0.09,0.89c0.03,0.28,0.1,0.54,0.22,0.77
		c0.12,0.23,0.28,0.43,0.48,0.59c0.2,0.16,0.42,0.28,0.68,0.35c0.25,0.07,0.5,0.09,0.75,0.05c0.25-0.04,0.48-0.11,0.7-0.24
		c0.21-0.12,0.4-0.28,0.56-0.47c0.16-0.19,0.27-0.41,0.34-0.65c0.06-0.22,0.08-0.44,0.06-0.65c-0.02-0.21-0.07-0.4-0.14-0.57
		l0.12-0.11c0.39,0.15,0.71,0.36,0.97,0.65c0.26,0.29,0.46,0.6,0.59,0.96c0.14,0.35,0.22,0.73,0.23,1.12
		c0.01,0.39-0.03,0.78-0.13,1.14c-0.12,0.44-0.33,0.85-0.61,1.22c-0.28,0.37-0.63,0.67-1.03,0.9c-0.4,0.23-0.85,0.38-1.35,0.45
		c-0.5,0.07-1.03,0.03-1.58-0.13c-0.77-0.21-1.42-0.62-1.96-1.24c-0.54-0.61-0.98-1.37-1.31-2.28c-0.33-0.91-0.58-1.95-0.72-3.11
		c-0.15-1.16-0.22-2.41-0.2-3.74l-0.06-0.01l-1.36,0.52c-0.02,0.39-0.03,0.84-0.02,1.33c0.01,0.5,0.04,1.02,0.1,1.57
		c0.06,0.56,0.14,1.12,0.25,1.71c0.11,0.59,0.26,1.16,0.45,1.74c0.19,0.57,0.42,1.12,0.69,1.65c0.27,0.53,0.6,1.01,0.97,1.46
		c0.37,0.44,0.8,0.83,1.28,1.16c0.48,0.33,1.03,0.58,1.65,0.75c0.9,0.25,1.72,0.31,2.45,0.17s1.37-0.41,1.91-0.81
		c0.29,0.37,0.55,0.75,0.8,1.16c0.25,0.4,0.47,0.82,0.66,1.24c0.19,0.42,0.36,0.85,0.49,1.28c0.13,0.43,0.22,0.86,0.27,1.29
		l0.9,0.25l3.52-12.66l2.22,0.62l0.37-1.34l-19.09-5.31l-0.37,1.34l5.57,1.55C380.67,353.52,380.78,353.65,380.89,353.81z
		 M390.36,356.14l-2.56,9.2l-0.05-0.01c-0.23-0.44-0.46-0.85-0.71-1.25c-0.24-0.4-0.5-0.77-0.78-1.13c0.38-0.53,0.65-1.12,0.83-1.75
		c0.17-0.6,0.23-1.21,0.2-1.84c-0.03-0.63-0.16-1.21-0.41-1.76c-0.24-0.55-0.59-1.04-1.06-1.46c-0.46-0.43-1.04-0.73-1.74-0.93
		c-0.28-0.08-0.56-0.13-0.83-0.14c-0.07-0.18-0.16-0.38-0.27-0.58c-0.11-0.2-0.21-0.36-0.31-0.48L390.36,356.14z"/>
	<path d="M384.2,380.78l-12.23,19.11l2.78,0.69l3.79-6.03l7.4,1.83l0.61,7.11l2.88,0.71l-1.97-22.61L384.2,380.78z M379.62,392.58
		l3.53-5.53c0.72-1.17,1.37-2.35,1.98-3.52l0.06,0.02c0.01,1.28,0.02,2.6,0.14,4.07l0.56,6.51L379.62,392.58z"/>
	<path d="M409.16,386.78c-1.89-0.47-3.79-0.74-5.03-0.78l-5.06,20.51c0.87,0.35,2.26,0.82,4.12,1.28c3.4,0.84,5.91,0.8,7.69-0.17
		c1.3-0.76,2.35-1.95,2.79-3.74c0.76-3.09-1.15-5.31-3.01-6.29l0.02-0.06c2.4-0.26,4.16-1.7,4.66-3.71c0.4-1.64,0.06-3.04-0.82-4.11
		C413.47,388.33,411.85,387.44,409.16,386.78z M410.83,403.15c-0.75,3.03-3.57,3.42-6.35,2.73c-0.96-0.24-1.73-0.46-2.23-0.68
		l1.96-7.95l2.23,0.55C409.38,398.52,411.53,400.3,410.83,403.15z M412.54,393.42c-0.5,2.01-2.53,3.08-5.38,2.38l-2.44-0.6
		l1.66-6.71c0.46,0.01,1.19,0.1,2.43,0.4C411.52,389.56,413.14,390.98,412.54,393.42z"/>
	<path d="M404.49,360.37c0.11,0.16,0.22,0.32,0.32,0.49c0.1,0.17,0.2,0.34,0.29,0.51c0.09,0.17,0.16,0.32,0.23,0.47
		c-0.33,0.14-0.62,0.33-0.86,0.59c-0.24,0.26-0.41,0.58-0.52,0.96c-0.09,0.31-0.11,0.61-0.09,0.89c0.03,0.28,0.1,0.54,0.22,0.77
		c0.12,0.23,0.28,0.43,0.48,0.59c0.2,0.16,0.42,0.28,0.68,0.35c0.25,0.07,0.5,0.09,0.75,0.05c0.25-0.04,0.48-0.11,0.7-0.24
		c0.22-0.12,0.4-0.28,0.56-0.47c0.16-0.19,0.27-0.41,0.34-0.65c0.06-0.22,0.08-0.44,0.06-0.65c-0.02-0.21-0.07-0.4-0.14-0.57
		l0.12-0.11c0.39,0.15,0.71,0.36,0.97,0.65c0.26,0.29,0.46,0.6,0.59,0.96c0.14,0.35,0.22,0.73,0.23,1.12
		c0.02,0.39-0.03,0.78-0.13,1.14c-0.12,0.44-0.33,0.85-0.61,1.22c-0.28,0.37-0.63,0.67-1.03,0.9c-0.4,0.23-0.85,0.38-1.35,0.45
		s-1.03,0.03-1.58-0.13c-0.77-0.21-1.42-0.62-1.96-1.24c-0.54-0.61-0.98-1.37-1.31-2.28c-0.33-0.91-0.58-1.95-0.73-3.11
		c-0.15-1.16-0.22-2.41-0.2-3.74l-0.06-0.01l-1.37,0.52c-0.02,0.39-0.03,0.84-0.02,1.33c0.01,0.5,0.04,1.02,0.1,1.57
		c0.06,0.56,0.14,1.12,0.25,1.71c0.11,0.59,0.26,1.16,0.45,1.74c0.19,0.57,0.42,1.12,0.69,1.65c0.27,0.53,0.6,1.01,0.97,1.46
		c0.37,0.44,0.8,0.83,1.28,1.16c0.48,0.33,1.03,0.58,1.65,0.75c0.9,0.25,1.72,0.31,2.46,0.17c0.73-0.14,1.37-0.41,1.91-0.81
		c0.29,0.37,0.55,0.75,0.8,1.16c0.25,0.4,0.47,0.82,0.67,1.24c0.19,0.42,0.36,0.85,0.49,1.28c0.13,0.43,0.22,0.86,0.27,1.29
		l0.9,0.25l3.52-12.66l1.45,0.4c0.22,0.06,0.41,0.15,0.58,0.28c0.17,0.13,0.3,0.27,0.4,0.44c0.1,0.17,0.16,0.34,0.19,0.53
		c0.03,0.19,0.02,0.38-0.03,0.57l-3.03,10.9l1.5,0.42l3.03-10.9c0.05-0.19,0.14-0.36,0.27-0.5s0.28-0.26,0.45-0.35
		c0.18-0.09,0.37-0.14,0.57-0.17c0.21-0.02,0.42,0,0.64,0.06l0.37,0.1l0.37-1.34l-2.08-0.58c-0.17-0.05-0.33-0.01-0.48,0.11
		c-0.15,0.12-0.26,0.3-0.32,0.53l-0.02,0.07c-0.12-0.21-0.27-0.4-0.45-0.57c-0.17-0.17-0.35-0.32-0.54-0.45
		c-0.19-0.13-0.37-0.23-0.56-0.31c-0.18-0.08-0.35-0.14-0.5-0.18l-18.33-5.1l-0.37,1.34l5.57,1.55
		C404.27,360.09,404.38,360.22,404.49,360.37z M413.97,362.7l-2.56,9.2l-0.06-0.01c-0.23-0.44-0.46-0.85-0.71-1.25
		c-0.24-0.4-0.5-0.77-0.78-1.13c0.38-0.53,0.65-1.12,0.83-1.75c0.17-0.6,0.23-1.21,0.21-1.84c-0.03-0.63-0.17-1.21-0.41-1.76
		c-0.24-0.55-0.59-1.04-1.06-1.46c-0.46-0.43-1.04-0.73-1.74-0.93c-0.28-0.08-0.56-0.13-0.83-0.14c-0.07-0.18-0.16-0.38-0.27-0.58
		c-0.11-0.2-0.21-0.36-0.31-0.48L413.97,362.7z"/>
	<path d="M484.54,400.06c-0.71-0.28-1.44-0.52-2.2-0.71c-0.75-0.19-1.5-0.33-2.24-0.43l-0.02-0.07c0.49-0.28,0.99-0.61,1.49-0.99
		c0.5-0.38,0.94-0.8,1.32-1.27c0.38-0.47,0.66-0.99,0.85-1.54c0.18-0.55,0.2-1.15,0.06-1.79c-0.14-0.6-0.39-1.09-0.76-1.47
		c-0.37-0.38-0.81-0.67-1.32-0.89c-0.51-0.22-1.06-0.37-1.66-0.45c-0.6-0.09-1.2-0.13-1.8-0.14c-0.6-0.01-1.18,0.01-1.73,0.06
		c-0.55,0.05-1.03,0.09-1.44,0.12l0-0.07c0.24-0.2,0.4-0.42,0.48-0.67c0.08-0.25,0.1-0.48,0.05-0.7c-0.04-0.16-0.11-0.31-0.21-0.46
		c-0.1-0.14-0.23-0.26-0.38-0.36c-0.15-0.1-0.32-0.16-0.52-0.19c-0.19-0.03-0.4-0.02-0.63,0.03c-0.26,0.06-0.49,0.16-0.68,0.31
		c-0.19,0.15-0.35,0.32-0.46,0.52c-0.12,0.2-0.19,0.42-0.22,0.67c-0.03,0.24-0.02,0.49,0.04,0.75c0.11,0.47,0.31,0.83,0.62,1.09
		c0.3,0.26,0.67,0.45,1.1,0.57c0.43,0.12,0.9,0.19,1.42,0.21c0.52,0.02,1.04,0.02,1.57,0.02c0.53-0.01,1.06-0.01,1.57-0.01
		c0.51,0,0.98,0.05,1.4,0.13c0.42,0.09,0.78,0.24,1.07,0.45c0.29,0.21,0.49,0.52,0.58,0.93c0.08,0.36,0.07,0.71-0.05,1.04
		c-0.11,0.33-0.3,0.64-0.55,0.94c-0.25,0.3-0.56,0.57-0.92,0.83c-0.36,0.25-0.74,0.48-1.14,0.69c-0.4,0.21-0.8,0.38-1.21,0.53
		c-0.41,0.15-0.79,0.26-1.16,0.35c-0.22,0.05-0.45,0.1-0.71,0.14c-0.26,0.04-0.47,0.07-0.62,0.09c-0.17,0.01-0.35,0.01-0.55,0.02
		c-0.2,0.01-0.39,0.02-0.59,0.03c-0.2,0.02-0.38,0.03-0.56,0.05c-0.18,0.02-0.34,0.04-0.48,0.06l0.25,1.95
		c0.95-0.13,1.91-0.18,2.86-0.15c0.96,0.03,1.89,0.12,2.8,0.27c0.91,0.15,1.77,0.35,2.61,0.59c0.83,0.24,1.6,0.51,2.3,0.81
		c0.7,0.29,1.32,0.6,1.87,0.92c0.54,0.32,0.98,0.63,1.31,0.94l0.92-1.49c-0.5-0.46-1.06-0.88-1.7-1.26
		C485.92,400.68,485.25,400.35,484.54,400.06z"/>
	<path d="M464.75,362.35l-0.09,0.02c-0.37,0.65-0.7,1.41-0.99,2.26c1.25,1.67,2.41,3.28,2.56,4.12c0.01,0.05-0.01,0.15-0.15,0.23
		c-0.68,0.45-1.45,0.8-2.24,1.14c-1.91,0.81-3.9,1.47-6,1.83c-4.5,0.78-8.32-0.09-8.95-3.71c-0.14-0.79-0.12-1.73,0.05-2.81
		l-0.77-0.18c-0.52,1.59-0.56,3.07-0.31,4.52c0.76,4.41,4.9,5.58,9.86,4.72c3.55-0.61,7.93-2.59,9.33-3.81
		c0.36-0.93,0.67-1.81,0.43-3.16C467.18,365.74,465.82,363.66,464.75,362.35z"/>
	<path d="M463.26,400.67c-0.28-0.44-0.61-0.84-1-1.2c-0.39-0.37-0.81-0.7-1.27-1c-0.46-0.3-0.93-0.58-1.41-0.84
		c-0.48-0.26-0.96-0.5-1.44-0.72c-0.48-0.22-0.92-0.43-1.33-0.63c-0.41-0.2-0.78-0.4-1.1-0.59c-0.32-0.19-0.57-0.38-0.74-0.58
		l0-0.07c0.24-0.19,0.41-0.39,0.5-0.59c0.09-0.2,0.1-0.45,0.04-0.73c-0.05-0.23-0.14-0.42-0.26-0.57c-0.12-0.15-0.26-0.27-0.43-0.35
		c-0.16-0.08-0.34-0.13-0.53-0.14c-0.19-0.01-0.37,0-0.56,0.04c-0.23,0.05-0.44,0.15-0.63,0.28c-0.19,0.13-0.35,0.29-0.47,0.49
		c-0.13,0.19-0.21,0.41-0.25,0.65c-0.04,0.24-0.03,0.49,0.03,0.75c0.09,0.4,0.29,0.77,0.59,1.11c0.3,0.34,0.67,0.65,1.11,0.95
		c0.44,0.3,0.92,0.58,1.46,0.85c0.53,0.27,1.08,0.54,1.63,0.81c0.55,0.27,1.1,0.55,1.63,0.83c0.54,0.28,1.02,0.58,1.47,0.9
		c0.44,0.32,0.82,0.67,1.13,1.04c0.31,0.37,0.51,0.78,0.62,1.23c0.07,0.29,0.09,0.61,0.05,0.94c-0.03,0.34-0.13,0.69-0.31,1.08
		c-0.23,0-0.46,0-0.7,0.02c-0.24,0.02-0.47,0.05-0.69,0.1c-0.35,0.08-0.71,0.21-1.07,0.4c-0.36,0.18-0.67,0.41-0.93,0.68
		c-0.27,0.27-0.47,0.57-0.6,0.91c-0.13,0.34-0.15,0.71-0.06,1.1c0.07,0.31,0.2,0.57,0.38,0.78c0.18,0.21,0.4,0.37,0.66,0.48
		c0.26,0.11,0.54,0.17,0.86,0.19c0.31,0.01,0.64-0.02,0.97-0.09c0.53-0.12,0.99-0.33,1.39-0.64c0.39-0.3,0.72-0.65,0.99-1.06
		c0.27-0.41,0.48-0.85,0.64-1.33c0.16-0.48,0.27-0.96,0.33-1.45c0.06-0.48,0.09-0.95,0.07-1.39c-0.02-0.45-0.07-0.84-0.15-1.19
		C463.74,401.59,463.54,401.11,463.26,400.67z"/>
	<path d="M461.39,379.12c-0.83-0.61-1.65-1.14-2.48-1.55c-0.39,0.64-0.76,1.35-1.14,2.08c0.82,0.49,1.62,0.94,2.43,1.48
		C460.72,380.51,461.1,379.84,461.39,379.12z"/>
	<path d="M478.49,366.77c0.2,1.18,0.41,2.46,0.42,3.62l0.25,0.09c0.84-1.33,1.2-2.16,1.08-3.16c-0.05-0.8-0.2-1.89-0.39-2.98
		c-0.72-4.18-1.6-8.7-2.65-12.54l-0.17-0.03c-0.47,0.6-1.04,1.47-1.43,2.2c0.82,3.05,2.01,7.76,2.57,11.04L478.49,366.77z"/>
</g>
<g>
	<path d="M340.46,485.61h-8.91v8.26h9.93v2.48h-12.89v-22.92h12.38v2.48h-9.42v7.24h8.91V485.61z"/>
	<path d="M344.92,492.75c1.33,0.82,3.27,1.5,5.31,1.5c3.03,0,4.8-1.6,4.8-3.91c0-2.14-1.22-3.37-4.32-4.56
		c-3.74-1.33-6.05-3.27-6.05-6.5c0-3.57,2.96-6.22,7.41-6.22c2.35,0,4.05,0.54,5.07,1.12l-0.82,2.41c-0.75-0.41-2.28-1.09-4.35-1.09
		c-3.13,0-4.32,1.87-4.32,3.44c0,2.14,1.39,3.2,4.56,4.42c3.88,1.5,5.85,3.37,5.85,6.73c0,3.54-2.62,6.6-8.03,6.6
		c-2.21,0-4.63-0.65-5.85-1.46L344.92,492.75z"/>
	<path d="M366.45,475.95h-6.97v-2.52h16.97v2.52h-7.01v20.41h-2.99V475.95z"/>
	<path d="M379.01,473.74c1.8-0.27,3.95-0.48,6.29-0.48c4.25,0,7.28,0.99,9.29,2.86c2.04,1.87,3.23,4.52,3.23,8.23
		c0,3.74-1.16,6.8-3.3,8.91c-2.14,2.14-5.68,3.3-10.14,3.3c-2.11,0-3.88-0.1-5.37-0.27V473.74z M381.96,494.01
		c0.75,0.14,1.84,0.17,2.99,0.17c6.33,0,9.76-3.54,9.76-9.73c0.03-5.41-3.03-8.84-9.29-8.84c-1.53,0-2.69,0.14-3.47,0.31V494.01z"/>
	<path d="M399.69,494.59c0-1.26,0.85-2.14,2.04-2.14c1.19,0,2.01,0.88,2.01,2.14c0,1.22-0.78,2.14-2.04,2.14
		C400.51,496.73,399.69,495.81,399.69,494.59z"/>
	<path d="M420.2,477.04h-0.07l-3.84,2.07l-0.58-2.28l4.83-2.58h2.55v22.11h-2.89V477.04z"/>
	<path d="M432.89,494.25c0.65,0.07,1.39,0,2.41-0.1c1.73-0.24,3.37-0.95,4.63-2.14c1.46-1.33,2.52-3.27,2.93-5.88h-0.1
		c-1.22,1.5-2.99,2.38-5.2,2.38c-3.98,0-6.53-2.99-6.53-6.77c0-4.18,3.03-7.86,7.55-7.86s7.31,3.67,7.31,9.32
		c0,4.86-1.63,8.26-3.81,10.37c-1.7,1.67-4.05,2.69-6.43,2.96c-1.09,0.17-2.04,0.2-2.75,0.17V494.25z M433.98,481.53
		c0,2.75,1.67,4.69,4.25,4.69c2.01,0,3.57-0.99,4.35-2.31c0.17-0.27,0.27-0.61,0.27-1.09c0-3.78-1.39-6.67-4.52-6.67
		C435.78,476.16,433.98,478.4,433.98,481.53z"/>
	<path d="M448.33,490.75c0-2.79,1.67-4.76,4.39-5.92l-0.03-0.1c-2.45-1.16-3.5-3.06-3.5-4.97c0-3.5,2.96-5.88,6.84-5.88
		c4.29,0,6.43,2.69,6.43,5.44c0,1.87-0.92,3.88-3.64,5.17v0.1c2.75,1.09,4.46,3.03,4.46,5.71c0,3.84-3.3,6.43-7.52,6.43
		C451.12,496.73,448.33,493.98,448.33,490.75z M460.24,490.61c0-2.69-1.87-3.98-4.86-4.83c-2.58,0.75-3.98,2.45-3.98,4.56
		c-0.1,2.24,1.6,4.22,4.42,4.22C458.5,494.56,460.24,492.89,460.24,490.61z M452.01,479.56c0,2.21,1.67,3.4,4.22,4.08
		c1.9-0.65,3.37-2.01,3.37-4.01c0-1.77-1.05-3.61-3.74-3.61C453.37,476.02,452.01,477.65,452.01,479.56z"/>
	<path d="M480.41,474.25v1.97l-9.63,20.14h-3.1l9.59-19.56v-0.07h-10.82v-2.48H480.41z"/>
</g>
<path d="M398.5,138.5"/>
</svg>